<?xml version="1.0" encoding="utf-8"?>
<!-- Generator: Adobe Illustrator 27.8.0, SVG Export Plug-In . SVG Version: 6.00 Build 0)  -->
<svg version="1.1" id="Calque_1" xmlns="http://www.w3.org/2000/svg" xmlns:xlink="http://www.w3.org/1999/xlink" x="0px" y="0px"
	 viewBox="0 0 40 40" enable-background="new 0 0 40 40" xml:space="preserve">
<g>
	<path fill="#FFFFFF" stroke="#FFFFFF" stroke-miterlimit="10" d="M24.8,2.1c1.4-1.4,3.6-1.4,5-0.1c1.4,1.4,1.2,3.3-0.1,4.7
		c-1.4,1.4-3.4,1.7-4.8,0.4C23.5,5.7,23.4,3.5,24.8,2.1z"/>
	<path fill="#FFFFFF" stroke="#FFFFFF" stroke-miterlimit="10" d="M20,30l-6.5,2.8c-0.3,0.1-0.6,0.4-0.8,0.6c-0.7,1-0.5,2.3,0.4,3
		c0.7,0.5,1.6,0.5,2.3,0.2l1.7-0.8l5.6-2.6c3.3-2,2.1-4.4,1.4-5.4c-0.7-1-4.3-5.8-4.3-5.8l1.7-2.1l4-4.9l3.7,3c0,0,1,0.9,2.9-0.2
		l5.7-3c0.4-0.2,0.8-0.6,1-1.4c0.2-0.9-0.5-2.1-1.6-2.2c-0.4,0-0.8,0.1-1.3,0.3l-5.2,2.3c0,0-1.8-2.4-2.4-3.1
		c-0.6-0.6-1.2-1.2-2-1.8c-0.8-0.6-2.9-1.5-3.8-1.5l-0.6,0l-6.1,0.4c-1.1,0-1.5,0.6-2.1,1c-0.6,0.4-4.6,3.1-4.9,3.4
		c-0.5,0.4-0.7,0.9-0.6,1.3c0,0.9,0.8,1.7,1.7,1.7c0.5,0,1-0.3,1.6-0.7l4.6-3l2.7,0l-4.2,6.6c-2.2,2.8,0.2,5.2,1,6.3L20,30z"/>
	<path fill="#FFFFFF" stroke="#FFFFFF" stroke-miterlimit="10" d="M14.8,25.6l-0.3-0.3c-0.4-0.5-1.1-1.3-1.5-2.3
		c0,0-5.4,6.5-5.4,6.5l-5.9,6.1c-0.2,0.2-0.4,0.6-0.5,0.9c-0.3,1.2,0.4,2.3,1.5,2.6c0.9,0.2,1.7-0.1,2.2-0.7L7.1,36l4-4.1
		c1.3-1.1,3.7-3.7,5-4.9L14.8,25.6z"/>
</g>
</svg>
