<?xml version="1.0" encoding="utf-8"?>
<!-- Generator: Adobe Illustrator 27.8.0, SVG Export Plug-In . SVG Version: 6.00 Build 0)  -->
<svg version="1.1" id="Calque_1" xmlns="http://www.w3.org/2000/svg" xmlns:xlink="http://www.w3.org/1999/xlink" x="0px" y="0px"
	 viewBox="0 0 40 40" enable-background="new 0 0 40 40" xml:space="preserve">
<g>
	<path fill="#FFFFFF" d="M16.2,25.8l2.7-2.7l-2-2l-2.7,2.7c-4.5-1.2-11.1,4.5-13.7,8.8l6.9,6.9C12.2,36.6,17.3,30,16.2,25.8z"/>
	<path fill="#FFFFFF" d="M21.2,16.9l2,2L34.3,7.6c0.6-0.6,1.5-0.6,2.1,0c0.7,0.6,1.7,0.7,2.3,0.2c0.9-0.7,1-1.9,0.2-2.7l-4.1-4.1
		c-0.7-0.7-2.1-0.7-2.7,0.2c-0.5,0.7-0.4,1.7,0.2,2.3c0.6,0.6,0.6,1.5,0,2.1L21.2,16.9z"/>
	<path fill="#FFFFFF" d="M25.8,23.8L7.6,5.7c-0.6-0.6-0.6-1.5,0-2.1s0.7-1.7,0.2-2.3C7.2,0.3,6,0.3,5.2,1L1.1,5.2
		c-0.7,0.7-0.7,2,0.2,2.7c0.7,0.5,1.7,0.3,2.3-0.2s1.5-0.6,2.1,0l18.1,18.3c-1.2,4.5,4.5,11,8.8,13.7l6.9-6.9
		C36.7,27.9,30,22.6,25.8,23.8z"/>
</g>
</svg>
