<?xml version="1.0" encoding="utf-8"?>
<!-- Generator: Adobe Illustrator 27.8.0, SVG Export Plug-In . SVG Version: 6.00 Build 0)  -->
<svg version="1.1" id="Calque_1" xmlns="http://www.w3.org/2000/svg" xmlns:xlink="http://www.w3.org/1999/xlink" x="0px" y="0px"
	 viewBox="0 0 40 40" enable-background="new 0 0 40 40" xml:space="preserve">
<g>
	<path fill="#FFFFFF" d="M27.7,2.9c2.6-2.6,6.8-2.6,9.3,0s2.6,6.8,0,9.4l-1.2,1.2l-9.3-9.4L27.7,2.9z M17,10.6
		c-1.9-1.4-8.2-0.1-12.2,1.7c-4.4,2-4.2,4.1-3.2,6.2c0.6,1.2,1.3,2.1,2.7,2.3c-0.9,1.6-0.4,2.9,0.5,4.2c0.8,1.1,1.7,1.9,3.1,1.9
		c-0.6,1.7,0.1,2.9,1.2,4c1.1,1.1,2.3,1.8,4,1.2c0,1.4,0.8,2.3,1.9,3.1c1.3,0.9,2.6,1.4,4.1,0.5c0.2,1.3,1.2,2.1,2.3,2.7
		c2.1,1.1,4.1,1.2,6.1-3.2c1.9-4,3.1-10.4,1.7-12.3l2.5-5.4l0.1,0.1l1.9-1.9l-9.3-9.4l-1.6,1.6L17,10.6z M24.6,10.3L22,12.1
		l-1.7-1.7l3-1.4L24.6,10.3z M26.7,12.4l-2.2,2.2L22.9,13l2.6-1.8L26.7,12.4z M28.7,14.4L26.9,17l-1.5-1.6l2.2-2.2L28.7,14.4z
		 M29.5,19.6l-1.7-1.7l1.8-2.6l1.3,1.3L29.5,19.6z M25.3,21.4l1.9-2.7l1.8,1.9l-0.8,1.8c-0.8,0-1.7,0.6-2.7,1.4
		C25.6,22.8,25.6,22,25.3,21.4z M24.6,16.1l1.7,1.7l-2,2.9c-0.7-0.1-1.8,0.3-2.9,1c0.3-1,0.4-1.9,0.2-2.5L24.6,16.1z M19.2,15.6
		l2.9-2l1.7,1.7l-3,3c-0.6-0.2-1.5-0.1-2.5,0.3C18.9,17.4,19.3,16.4,19.2,15.6z M19.4,10.9l1.8,1.9l-2.7,1.9
		c-0.6-0.3-1.4-0.3-2.4-0.2c0.9-1,1.4-2,1.4-2.7L19.4,10.9z"/>
</g>
</svg>
