<?xml version="1.0" encoding="utf-8"?>
<!-- Generator: Adobe Illustrator 27.8.0, SVG Export Plug-In . SVG Version: 6.00 Build 0)  -->
<svg version="1.1"
	 id="Calque_1" xmlns:inkscape="http://www.inkscape.org/namespaces/inkscape" xmlns:cc="http://creativecommons.org/ns#" xmlns:dc="http://purl.org/dc/elements/1.1/" xmlns:rdf="http://www.w3.org/1999/02/22-rdf-syntax-ns#" xmlns:svg="http://www.w3.org/2000/svg" xmlns:sodipodi="http://sodipodi.sourceforge.net/DTD/sodipodi-0.dtd"
	 xmlns="http://www.w3.org/2000/svg" xmlns:xlink="http://www.w3.org/1999/xlink" x="0px" y="0px" viewBox="0 0 40 40"
	 enable-background="new 0 0 40 40" xml:space="preserve">
<g transform="translate(0,-952.36218)">
	<path fill="#FFFFFF" d="M36.6,982.5c-3,4.9-7.9,8.1-13.2,9c0-5.8-0.6-10.6-1.7-14.4c-1.1-3.8-2.7-6.5-4.9-8.1
		c0.9-1.6,1.8-3.2,2.8-4.6C26.9,968,32.8,973.8,36.6,982.5L36.6,982.5z M37.8,980.4c-4-8.2-9.9-14-17-17.5c0.6-0.8,1.1-1.5,1.7-2.3
		c4.2,2.1,8.6,1.2,13.1,0C39.8,966.2,40.8,973.8,37.8,980.4L37.8,980.4z M10.3,989.3c-0.3-0.2-0.7-0.4-1-0.6
		c2-6.9,4.2-12.8,6.7-17.8c1.6,1.2,3,3.5,4,6.9c1,3.5,1.6,8.2,1.6,14C17.7,992.1,13.8,991.3,10.3,989.3z M23.7,959.1
		c1.4-1.6,2.9-3.1,4.4-4.4c0.5,0.2,1.1,0.5,1.6,0.8c1.7,1,3.2,2.2,4.5,3.6C31,960.1,27.9,960.6,23.7,959.1z M1.1,977
		c3.1-3.4,5.9-5.6,8.4-6.6c1.9-0.8,3.5-0.9,4.9-0.5c-2.5,5-4.7,10.7-6.7,17.4C4.3,984.7,2,981,1.1,977z M26.1,953.9
		c-1.4,1.3-2.8,2.7-4.1,4.3c-1.6-1.2-2.7-2.9-3.3-5.2C21.1,952.7,23.7,953,26.1,953.9L26.1,953.9z M20.8,959.6
		c-0.6,0.8-1.2,1.6-1.8,2.5c-4-1.7-8.4-2.8-13-3.2c2.9-3,6.7-5,10.7-5.7C17.4,955.9,18.8,958.1,20.8,959.6L20.8,959.6z M17.9,963.7
		c-0.9,1.4-1.8,3-2.7,4.6c-2-0.7-4.2-0.6-6.5,0.4c-2.6,1.1-5.2,3.1-8,6c-0.5-4,0.3-8.2,2.5-12c0.4-0.7,0.9-1.4,1.3-2
		C9.3,961,13.8,962,17.9,963.7L17.9,963.7z"/>
</g>
</svg>
