<?xml version="1.0" encoding="utf-8"?>
<!-- Generator: Adobe Illustrator 27.8.0, SVG Export Plug-In . SVG Version: 6.00 Build 0)  -->
<svg version="1.1" id="Calque_1" xmlns="http://www.w3.org/2000/svg" xmlns:xlink="http://www.w3.org/1999/xlink" x="0px" y="0px"
	 viewBox="0 0 40 40" enable-background="new 0 0 40 40" xml:space="preserve">
<path fill="#FFFFFF" d="M19.5,9c0.1-2.4,1.1-4.9,2.9-6.8c0.5-0.5,1-0.9,1.5-1.3c0.4-0.1,0.8-0.1,1.1,0.1C25,1,25.1,1.1,25.2,1.1
	c2.5,1.6,5,3.5,7.2,5.6c2.3,2.1,4.3,4.5,6,6.9c0.1,0.1,0.1,0.2,0.2,0.3c0.2,0.4,0.2,0.8,0.1,1.2c-0.2,0.2-0.3,0.5-0.5,0.7l-1.4,1.5
	c-4,3.5-10.2,3.5-14.1-0.3c-0.2-0.2-0.3-0.3-0.5-0.5c0,0-0.1-0.1-0.1-0.1c-0.1-0.1-0.2-0.2-0.3-0.4c0,0-0.1-0.1-0.1-0.1
	c-0.1-0.2-0.3-0.3-0.4-0.5c0,0,0,0,0,0c-0.1-0.2-0.2-0.3-0.3-0.5c0,0-0.1-0.1-0.1-0.1c-0.1-0.1-0.2-0.3-0.2-0.4c0,0,0-0.1-0.1-0.1
	c-0.2-0.4-0.4-0.8-0.5-1.2c0,0,0-0.1,0-0.1c-0.1-0.2-0.1-0.4-0.2-0.5c0,0,0,0,0-0.1c-0.1-0.4-0.2-0.9-0.3-1.3c0,0,0,0,0-0.1
	C19.5,10.3,19.4,9.6,19.5,9C19.5,9,19.5,9,19.5,9z M6.8,30.9l0-1.7c0-0.8,0.6-1.4,1.3-1.4l1.7,0l0-1.7c0-0.6,0.3-1.1,0.9-1.3
	l-3.4-3.2l-5.7,6c-0.4,0.5-0.4,1.2,0,1.6L4,31.6c0.2-0.4,0.6-0.6,1.1-0.6L6.8,30.9z M14.3,30.4l-1.7,0l0,1.7c0,0.8-0.6,1.4-1.3,1.4
	l-1.7,0l0,1.7c0,0.5-0.2,0.9-0.6,1.1l2.6,2.5c0.5,0.4,1.2,0.4,1.6,0l5.7-6l-3.5-3.3C15.4,30,14.9,30.4,14.3,30.4z M8.5,35.7
	C8.5,35.7,8.5,35.7,8.5,35.7c-0.1,0.1-0.2,0.1-0.3,0.1c-0.1,0-0.2,0-0.3-0.1c-0.1-0.1-0.1-0.2-0.1-0.3l0-0.1l0-0.4l-0.1-2.1l-1.8,0
	l-0.7,0l-0.1,0c-0.1,0-0.2,0-0.3-0.1c-0.1-0.1-0.1-0.2-0.1-0.3c0-0.1,0-0.2,0.1-0.2c0,0,0,0,0,0c0,0,0-0.1,0.1-0.1c0,0,0,0,0.1,0
	c0,0,0,0,0.1,0c0,0,0.1,0,0.2,0l1.7,0l0.9,0l-0.1-2.6c0-0.3,0.2-0.5,0.4-0.5l2.6-0.1l0-0.9l0-1.7c0-0.3,0.2-0.5,0.4-0.5l0.3,0
	l2.3-0.1l-0.1-2.6c0-0.3,0.2-0.5,0.4-0.5l2.6-0.1l0-0.9l0-1.7c0-0.3,0.2-0.5,0.4-0.5c0.1,0,0.2,0,0.3,0.1c0.1,0.1,0.1,0.2,0.1,0.3
	l0,0.8l0,1.8l2.1-0.1l0.5,0c0.1,0,0.2,0,0.3,0.1c0.1,0.1,0.1,0.2,0.1,0.3c0,0.3-0.2,0.5-0.4,0.5l-1.4,0l-1.2,0l0.1,2.6
	c0,0.3-0.2,0.5-0.4,0.5l-2.6,0.1l0.1,2.3l0,0.3c0,0.3-0.2,0.5-0.4,0.5l-1.4,0l-1.2,0l0.1,2.6c0,0.3-0.2,0.5-0.4,0.5l-2.6,0.1l0,1.2
	l0,1.4c0,0.1,0,0.1,0,0.2c0,0,0,0.1,0,0.1C8.7,35.5,8.6,35.6,8.5,35.7C8.6,35.6,8.6,35.6,8.5,35.7z M14.6,25.5l2.1-0.1l-0.1-2.1
	l-2.1,0.1L14.6,25.5z M11.6,28.6l2.1-0.1l0,0l0,0l-0.1-2.1l-1.8,0l-0.4,0l0,0.4L11.6,28.6z M8.6,31.8l2.1-0.1l-0.1-2.1l-2.1,0.1
	L8.6,31.8z M12.7,24.6l0-1.7c0-0.8,0.6-1.4,1.3-1.4l1.7,0l0-1.7c0-0.8,0.6-1.4,1.3-1.4c0.4,0,0.7,0.1,1,0.4c0.3,0.2,0.4,0.6,0.4,0.9
	c0.5-0.3,1.2-0.3,1.7,0.1c0.4,0.4,0.5,1,0.3,1.6c0.3,0,0.5,0.2,0.7,0.4c0.3,0.3,0.4,0.6,0.4,1c0,0.8-0.6,1.4-1.3,1.4l-1.7,0l0,1.7
	c0,0.8-0.6,1.4-1.3,1.4l-1.7,0l0,0.7l4.2,3.9C27.1,29.6,33,23.1,36,19.1c-1.9,1.2-4,1.8-6.2,1.7c-2.9-0.1-5.6-1.2-7.7-3.1
	c-2.6-2.4-3.8-5.8-3.5-9.1l-1.1,0.2c-0.4,0.5-0.9,1-1.4,1.5l-0.2,0.2l-0.2,0.2c-0.5,0.5-0.9,1-1.4,1.4L13.6,13
	c0.5,0.8,0.8,2.2-0.6,3.6c-0.2,0.2-0.5,0.2-0.6,0c-0.2-0.2-0.2-0.5,0-0.6c1-1.1,0.8-1.9,0.5-2.4c-0.8,0.5-2.2,0.9-3.4-0.2
	c-0.2-0.2-0.2-0.5,0-0.6c0.2-0.2,0.5-0.2,0.6,0c1.1,1.1,2.4,0,2.5-0.1l2.5-2.7c0,0,0,0,0.1-0.1c0.3-0.3,0.6-0.6,0.8-0.9c0,0,0,0,0,0
	c0.1-0.2,0.3-0.3,0.4-0.4c0,0,0,0,0,0c0.1-0.1,0.3-0.3,0.4-0.4c0,0,0,0,0,0c1.8-2,2.8-3.5,1.7-4.6c-1.5-1.4-4.8-0.2-7.5,2.6
	c-1,1-1.7,2.1-2.2,3.1c0,0,0,0,0,0c0,0,0,0.1,0,0.1C8.9,9.5,8.8,9.6,8.8,9.7c-0.6,1.4-0.9,2.7-1.1,3.7c0,0,0,0,0,0
	c-0.1,0.4-0.1,0.7-0.2,1.1c0,0.2,0,0.4,0,0.4l0,0c-0.2,2.2-0.1,4.2,0,5.5l4.5,4.3L12.7,24.6z"/>
</svg>
