<?xml version="1.0" encoding="utf-8"?>
<!-- Generator: Adobe Illustrator 27.8.0, SVG Export Plug-In . SVG Version: 6.00 Build 0)  -->
<svg version="1.1" id="Calque_1" xmlns="http://www.w3.org/2000/svg" xmlns:xlink="http://www.w3.org/1999/xlink" x="0px" y="0px"
	 viewBox="0 0 40 40" enable-background="new 0 0 40 40" xml:space="preserve">
<g>
	<path fill="#FFFFFF" d="M12.1,20.8c0,0.2,0.5-0.9,0.5-0.9c-0.5-0.7-1.8,0-1.8,0l-1.1-0.7c0.5-0.1,0.1-0.6,0.1-0.6l1.6-1.5
		c2.9-2.3,5.1,0.9,5.1,0.9c0.6,1.2,1.4,1.2,1.4,1.2l2.6,0c0.7,0.1,0.8-0.3,0.8-0.3c-0.1-0.8,0.2-1.1,0.2-1.1
		c-0.4-3-3.1-10.1-3.1-10.1c0.1-1.4-0.8-0.4-0.8-0.4c-2.5,1.3-1.9-2-1.9-2c0.3-2.6,7-5.3,7-5.3c1.8,0,1.7,2.3,1.7,2.3l-0.8,1.7
		c0,3.5,3.9,12.7,3.9,12.7c0.5,0.6,1.2,0.8,1.2,0.8c0.7-0.3,3-1.7,3-1.7c-0.6-0.3-2.1-1.5-2.1-1.5c-0.1-0.9-0.6-0.9-0.6-0.9
		c-0.8,0.7-1.6,0.4-1.6,0.4c-0.9-1.4-0.2-6-0.2-6c0.5-1.5,1-0.4,1-0.4c0.2,0.9,1.8,3.1,1.8,3.1l0.7,0.2l0,0.6l1.5,1.4
		c2.4-0.4,4.4,1,4.4,1c1.7,0.9,1.8,1.6,1.8,1.6c-0.6,3.2-7.3,7.4-7.3,7.4c-0.6,0.2-1.6,1.3-1.6,1.3L28,25.5
		c-0.5-0.3-0.9-0.6-0.9-0.6l-2.1,0.7C22.2,29,17,29.8,17,29.8c-1.5-0.1-2.9,1.6-2.9,1.6c-1.4,3.3-3.8,1.9-3.8,1.9
		c-1,2.9-5.1,5.5-5.1,5.5c-0.3,0.2-1.1-0.5-1.1-0.5l-1-0.7L2,37l0.2-0.3l-0.9-0.8l0.4,0l0.5-0.1L4.3,37c1,0.4,1.3-0.5,1.3-0.5
		l3.3-5.7c0,0,1.8-3.3,1.9-3.5c0,0,0-0.1,0.1-0.1c0.2-0.2,0.5-0.6,0.1-1.1c0,0,0,0-0.1-0.1c-0.5-0.5-0.9-0.4-0.9-0.4
		c-1.5-0.5-1.4-1.1-1.4-1.1c-2-1.8-1.6-3.7-1.6-3.7c0.3-1.4,2.2-2,2.2-2S12,19.6,12.1,20.8z"/>
</g>
</svg>
