<?xml version="1.0" encoding="utf-8"?>
<!-- Generator: Adobe Illustrator 27.8.0, SVG Export Plug-In . SVG Version: 6.00 Build 0)  -->
<svg version="1.1" id="Calque_1" xmlns="http://www.w3.org/2000/svg" xmlns:xlink="http://www.w3.org/1999/xlink" x="0px" y="0px"
	 viewBox="0 0 40 40" enable-background="new 0 0 40 40" xml:space="preserve">
<g>
	<path fill="#FFFFFF" d="M30.7,20.6c-2.9,0-5.3,2.4-5.3,5.3s2.4,5.3,5.3,5.3s5.3-2.4,5.3-5.3C36,23,33.6,20.6,30.7,20.6z"/>
	<path fill="#FFFFFF" d="M9.3,20.6C6.4,20.6,4,23,4,25.9s2.4,5.3,5.3,5.3s5.3-2.4,5.3-5.3S12.2,20.6,9.3,20.6z"/>
	<circle fill="#FFFFFF" cx="32.8" cy="8.5" r="3.2"/>
	<path fill="#FFFFFF" d="M30.7,17.1c-0.3,0-0.6,0-1,0l-3.4-1.7l2.8-3.1c0.4-0.5,0.6-1.2,0.3-1.9s-0.9-1-1.6-1H11.9
		c-0.7,0-1.4,0.4-1.7,1.2c-0.2,0.7,0,1.5,0.5,2l7.4,6.1v8.6c0,1,0.8,1.8,1.7,1.8l0,0c1,0,1.7-0.8,1.8-1.7l0-9.5c0-0.5-0.2-1-0.6-1.4
		L16.8,13h7l-1.7,1.9c-0.3,0.4-0.5,1-0.4,1.5c0.1,0.5,0.4,1,0.9,1.2l2.7,1.3c-2.1,1.6-3.4,4.1-3.4,6.9c0,4.8,3.9,8.8,8.8,8.8
		s8.8-3.9,8.8-8.8C39.5,21.1,35.6,17.1,30.7,17.1z M30.7,31.1c-2.9,0-5.3-2.4-5.3-5.3s2.4-5.3,5.3-5.3S36,23,36,25.9
		C36,28.8,33.6,31.1,30.7,31.1z"/>
	<path fill="#FFFFFF" d="M9.3,17.1c-4.8,0-8.8,3.9-8.8,8.8s3.9,8.8,8.8,8.8s8.8-3.9,8.8-8.8S14.1,17.1,9.3,17.1z M9.3,31.1
		c-2.9,0-5.3-2.4-5.3-5.3s2.4-5.3,5.3-5.3s5.3,2.4,5.3,5.3S12.2,31.1,9.3,31.1z"/>
</g>
</svg>
