<?xml version="1.0" encoding="utf-8"?>
<!-- Generator: Adobe Illustrator 26.0.2, SVG Export Plug-In . SVG Version: 6.00 Build 0)  -->
<svg version="1.1" id="Calque_1" xmlns="http://www.w3.org/2000/svg" xmlns:xlink="http://www.w3.org/1999/xlink" x="0px" y="0px"
	 viewBox="0 0 40 40" style="enable-background:new 0 0 40 40;" xml:space="preserve">
<style type="text/css">
	.st0{fill:#FFFFFF;}
</style>
<g>
	<path class="st0" d="M22.7,27.2c-0.4,0.1-0.8,0.2-1.3,0.2c-0.5,0-0.9-0.1-1.4-0.2l-5,11.3c-0.5,1-1.7,1.4-2.8,0.8
		c-1.1-0.6-1.6-1.9-1.1-3l6.1-13.8l7.7,0.1l0-1.3l3.9-1.8c1-0.5,2.3,0.4,2.6,1.4l1.9,7.7c0.3,1.1-0.4,2.2-1.5,2.4
		c-1.1,0.3-2.2-0.4-2.5-1.5l-1.2-4.9L22.7,27.2z"/>
	<path class="st0" d="M10.8,16c0.4,0.7,1.3,1,2.1,0.7l4.5-1.7l0,6.2l7.7,0.1l0-7.2l7-11c0.5-0.8,0.3-1.9-0.5-2.4
		c-0.8-0.5-1.9-0.3-2.3,0.5l-5.9,9.3l-3.5,0c-0.2,0-0.5,0-0.7,0.1L12.9,13L9.8,8.2c-0.5-0.8-1.6-1-2.4-0.5c-0.8,0.5-1.1,1.6-0.5,2.4
		L10.8,16z"/>
	<path class="st0" d="M20.7,9.9c1.7,0,3.1-1.3,3.1-3c0-1.7-1.4-3.1-3-3.1c-1.7,0-3.1,1.4-3.1,3C17.6,8.5,19,9.9,20.7,9.9z"/>
</g>
</svg>
