<?xml version="1.0" encoding="utf-8"?>
<!-- Generator: Adobe Illustrator 26.0.2, SVG Export Plug-In . SVG Version: 6.00 Build 0)  -->
<svg version="1.1" id="Calque_1" xmlns="http://www.w3.org/2000/svg" xmlns:xlink="http://www.w3.org/1999/xlink" x="0px" y="0px"
	 viewBox="0 0 40 40" style="enable-background:new 0 0 40 40;" xml:space="preserve">
<g>
	<path d="M11.2,36.8c-0.2,0.3-0.7,0.4-1,0.1c0,0,0,0-0.1-0.1c-5.3-5.3-1.7-1.7-7-7c-0.3-0.3-0.3-0.8,0-1c0,0,0,0,0.1-0.1
		c2.3-1.7,5.4-1.5,7.4,0.5l0.1,0.1C12.7,31.4,12.9,34.5,11.2,36.8z"/>
	<path d="M6.6,35.4L3,39c-0.6,0.6-1.5,0.6-2,0c-0.6-0.6-0.6-1.5,0-2l3.6-3.6L6.6,35.4z"/>
	<path d="M19,22.2l-6.6,6.9c-0.6-0.8-1.3-1.4-2.1-1.9l7.1-6.6L19,22.2z"/>
	<path d="M39.4,1.1L22.5,18.5l-1.5-1.4L38.8,0.6c0.1-0.1,0.2-0.1,0.3,0l0.2,0.2C39.4,0.9,39.4,1,39.4,1.1z"/>
	<path d="M36.9,29.9c-5.3,5.3-1.7,1.7-7,7c-0.3,0.3-0.8,0.3-1,0c0,0,0,0-0.1-0.1c-1.7-2.3-1.5-5.4,0.5-7.4l0.1-0.1
		c2-2,5.2-2.2,7.4-0.5C37.1,29,37.2,29.5,36.9,29.9C36.9,29.8,36.9,29.8,36.9,29.9z"/>
	<path d="M37,39l-3.6-3.6l2-2l3.6,3.6c0.6,0.6,0.6,1.5,0,2C38.5,39.6,37.6,39.6,37,39z"/>
	<path d="M29.7,27.2c-0.8,0.5-1.5,1.1-2.1,1.9L20,21.2l-1.5-1.6L0.6,1.1C0.6,1,0.6,0.9,0.6,0.8l0.2-0.2c0.1-0.1,0.2-0.1,0.3,0
		L20,18.1l1.5,1.4L29.7,27.2z"/>
</g>
</svg>
