<?xml version="1.0" encoding="utf-8"?>
<!-- Generator: Adobe Illustrator 27.8.0, SVG Export Plug-In . SVG Version: 6.00 Build 0)  -->
<svg version="1.1" id="Calque_1" xmlns="http://www.w3.org/2000/svg" xmlns:xlink="http://www.w3.org/1999/xlink" x="0px" y="0px"
	 viewBox="0 0 40 40" enable-background="new 0 0 40 40" xml:space="preserve">
<g>
	<path fill="#FFFFFF" d="M20,32.6c5.4,0,11.1-7,11.1-18.7C31.1,6.1,26.7,1,20,1S8.9,6.1,8.9,13.9C8.9,25.6,14.6,32.6,20,32.6z
		 M15.6,2.8l0.1,0c0.3-0.1,0.5-0.2,0.8-0.3c0.2-0.1,0.5,0,0.5,0.3c0.1,0.2,0,0.5-0.3,0.5c-0.2,0.1-0.5,0.2-0.7,0.3l-0.1,0
		c-0.1,0-0.1,0-0.2,0c-0.2,0-0.3-0.1-0.4-0.3C15.3,3.1,15.4,2.9,15.6,2.8z M13.1,25.3c0.1,0.2,0,0.5-0.2,0.6c-0.1,0-0.1,0-0.2,0
		c-0.2,0-0.3-0.1-0.4-0.2c-1.6-3.3-2.6-7.6-2.6-11.8c0-4.6,1.5-8.2,4.3-10.2c0.2-0.1,0.5-0.1,0.6,0.1c0.1,0.2,0.1,0.5-0.1,0.6
		c-2.6,1.9-4,5.2-4,9.5C10.6,18,11.5,22.1,13.1,25.3z"/>
	<path fill="#FFFFFF" d="M20.4,33.4V39c6-0.1,8.4-2.5,8.9-3.1l-0.9-8.1C26.5,31,23.8,33.2,20.4,33.4z"/>
	<path fill="#FFFFFF" d="M11.5,27.8l-0.9,8.1c0.5,0.6,3,3,8.9,3.1v-5.5C16.2,33.2,13.5,31,11.5,27.8z"/>
</g>
</svg>
