<?xml version="1.0" encoding="utf-8"?>
<!-- Generator: Adobe Illustrator 26.0.2, SVG Export Plug-In . SVG Version: 6.00 Build 0)  -->
<svg version="1.1" id="Calque_1" xmlns="http://www.w3.org/2000/svg" xmlns:xlink="http://www.w3.org/1999/xlink" x="0px" y="0px"
	 viewBox="0 0 40 40" style="enable-background:new 0 0 40 40;" xml:space="preserve">
<style type="text/css">
	.st0{fill:#FFFFFF;stroke:#FFFFFF;stroke-width:0.95;stroke-miterlimit:10;}
</style>
<path class="st0" d="M20,38.5c-5,0.1-9.3-1.6-12.8-4.8c-2.5-2.3-4.5-5.1-5.4-8.4c-0.9-3.2-1.1-6.8-0.3-10.1c0.2-0.9,0.5-1.8,0.9-2.6
	c1.5-3.2,4-6.2,6.9-8.1c1.7-1.1,3.7-1.9,5.6-2.5c9-2.4,18.9,2,22.5,11c2.6,6.5,1.7,12.6-2.5,18.2c-2.4,3.3-5.7,5.3-9.5,6.5
	C23.7,38.4,21.8,38.6,20,38.5z M16.1,25.6c-0.1-0.4-0.1-0.7-0.2-1c-0.7-1.8-1.3-3.5-2-5.3c-0.2-0.7-0.7-1-1.3-1.1
	c-1.1-0.3-2.2-0.7-3.3-1.2c-0.6-0.2-1.1-0.4-1.8-0.4c-1.4,1.6-2.3,3.6-3.9,4.9c-0.6,0-0.6-0.7-1.3-0.6c0,3.3,1.2,6,2.9,8.6
	c0.5-0.2,0.3-0.9,0.8-1c2,0.5,4,1,6,1.5C13.4,28.6,14.7,27.2,16.1,25.6z M13.6,3.9c-2.9,1.1-5.2,2.7-7.2,5c0.5,0.4,1,0,1.3,0.5
	c0.2,1.9-0.1,3.9,0.2,6c2,0.8,4,1.5,5.9,2.2c2.1-1.5,4-2.9,5.8-4.6c0-1.9,0-3.9,0-5.9c-2.2-0.7-4.2-1.3-6.2-1.9
	C13.2,4.7,13.7,4.5,13.6,3.9z M24.5,35.4c1-1.6,2.1-3.3,3.3-5c-1.4-1.4-2.6-2.7-3.9-3.9c-0.2-0.2-0.5-0.3-0.8-0.3
	c-1.9,0-3.8-0.1-5.7,0.1c-1.5,1.5-2.8,3.1-4.1,4.6c1.2,1.9,2.8,3.3,3.9,5.1c-0.3,0.2-0.4,0.3-0.6,0.4c-0.2,0.1-0.5,0.4-0.4,0.5
	c2.5,1,8.6,0.7,9.2-0.5C25.1,36,24.6,35.9,24.5,35.4z M26.5,17.4c2-0.8,3.9-1.5,5.9-2.2c0-2.1,0-4,0-5.7c0.3-0.6,0.8-0.3,0.8-0.7
	c-1.1-1.7-5.6-4.9-6.3-4.4c-0.2,0.2,0.2,0.5-0.2,0.8c-1.8,0.6-3.8,1.1-5.7,2c0,2.1,0,4.1,0,6.1C22.9,14.6,24.6,16,26.5,17.4z
	 M27.1,18.5c-0.9,2.3-1.8,4.5-2.5,6.7c1.5,1.5,2.8,3,4.2,4.2c2.2-0.7,4.1-1.8,6.1-2.4c0.5,0.3,0.2,0.8,0.7,1.1
	c1.1-2.1,1.8-4.2,1.9-6.5c-0.4-0.2-0.6,0.3-1.1-0.1c-1.4-1.4-2.4-3.3-4-4.9C30.7,17.2,28.9,17.9,27.1,18.5z"/>
</svg>
