<?xml version="1.0" encoding="utf-8"?>
<!-- Generator: Adobe Illustrator 26.0.2, SVG Export Plug-In . SVG Version: 6.00 Build 0)  -->
<svg version="1.1" id="Calque_1" xmlns="http://www.w3.org/2000/svg" xmlns:xlink="http://www.w3.org/1999/xlink" x="0px" y="0px"
	 viewBox="0 0 40 40" style="enable-background:new 0 0 40 40;" xml:space="preserve">
<style type="text/css">
	.st0{fill:#FFFFFF;}
</style>
<g>
	<ellipse class="st0" cx="24.3" cy="26" rx="3.7" ry="3.5"/>
	<path class="st0" d="M16.6,1.9c0,0,0,6.1,0,8.1c0,1.5,0,6,0,6l18.8-7L16.6,1.9z"/>
	<path class="st0" d="M20,31.9c-0.8,0-1.6,0-2.4,0c-1.4,1.1-2,2.8-2,2.8V32V1.9c0-0.8-0.7-1.4-1.5-1.4s-1.5,0.6-1.5,1.4v30.3
		c-7.1,0.6-12,1.9-12,3.5c0,2.1,8.7,3.8,19.5,3.8s19.5-1.7,19.5-3.8C39.5,33.6,30.8,31.9,20,31.9z"/>
</g>
</svg>
