<?xml version="1.0" encoding="utf-8"?>
<!-- Generator: Adobe Illustrator 27.8.0, SVG Export Plug-In . SVG Version: 6.00 Build 0)  -->
<svg version="1.1" id="Calque_1" xmlns="http://www.w3.org/2000/svg" xmlns:xlink="http://www.w3.org/1999/xlink" x="0px" y="0px"
	 viewBox="0 0 40 40" enable-background="new 0 0 40 40" xml:space="preserve">
<path fill="#FFFFFF" d="M15.3,33.6l-3.7,4.8c-0.1,0.2-0.3,0.2-0.5,0.2c-0.2,0-0.4-0.1-0.5-0.2l-3.7-4.8h1.6l2.6,3.4l2.6-3.4H15.3z
	 M31.3,33.6L28.7,37l-2.6-3.4h-1.6l3.7,4.8c0.1,0.2,0.3,0.2,0.5,0.2c0.2,0,0.4-0.1,0.5-0.2l3.7-4.8H31.3z M34.4,31.7v-1.3
	c0-0.3-0.3-0.6-0.6-0.6H6c-0.3,0-0.6,0.3-0.6,0.6v1.3c0,0.3,0.3,0.6,0.6,0.6h27.7C34.1,32.4,34.4,32.1,34.4,31.7z M23.1,15.1
	c-1.3,0-2.4,0.5-3.3,1.3c-0.8,0.8-1.3,2-1.3,3.3c0,2.5,2.1,4.6,4.6,4.6s4.6-2.1,4.6-4.6C27.7,17.1,25.7,15.1,23.1,15.1z M20.5,15.7
	c-0.2,0.3-0.4,0.5-0.6,0.7c-1.8,1.8-4.7,1.8-6.5,0L5.2,8.3c-1.8-1.8-1.8-4.7,0-6.5c0.9-0.9,2.1-1.4,3.3-1.4h13.9L19.3,5H15l4.2,4.2
	l1.4-2.1l0,0l3.8-5.7c0.4-0.6,1.1-1,1.9-1c0.5,0,0.9,0.1,1.3,0.4C28.7,1.5,29,3,28.3,4l-2.2,3.3L20.5,15.7z M35,2.7
	C35,4,34,5,32.7,5h-2.4c0.8-1.5,0.8-3.2,0-4.6h2.4C34,0.4,35,1.5,35,2.7z"/>
</svg>
