<?xml version="1.0" encoding="utf-8"?>
<!-- Generator: Adobe Illustrator 26.0.2, SVG Export Plug-In . SVG Version: 6.00 Build 0)  -->
<svg version="1.1" id="Calque_1" xmlns="http://www.w3.org/2000/svg" xmlns:xlink="http://www.w3.org/1999/xlink" x="0px" y="0px"
	 viewBox="0 0 40 40" style="enable-background:new 0 0 40 40;" xml:space="preserve">
<style type="text/css">
	.st0{fill-rule:evenodd;clip-rule:evenodd;fill:#FFFFFF;}
</style>
<path class="st0" d="M3.2,22.2c0.1,0.7,0.2,1.5,0.4,2.2v-1.9L3.2,22.2L3.2,22.2z M9.7,33.4v-0.5L8,32c0,0,0,0,0,0
	C8.5,32.5,9.1,33,9.7,33.4L9.7,33.4z M11,30.7l4.8-2.7v-5.5l-2.4-1.4L11,19.7l-4.8,2.7V28L11,30.7L11,30.7z M18.3,28l4.8,2.7
	l4.8-2.7v-5.5l-2.4-1.4L23,19.7l-4.8,2.7V28L18.3,28z M24.3,32.9l4.8-2.7l3,1.7c0,0,0,0-0.1,0.1c-2.1,2.1-4.7,3.6-7.7,4.4L24.3,32.9
	L24.3,32.9z M21.7,36.9c-0.6,0.1-1.2,0.1-1.7,0.1c-2.8,0-5.4-0.7-7.8-1.9v-2.1l4.8-2.7l4.8,2.7V36.9L21.7,36.9z M29,20.3l-4.8-2.7
	V12l2.4-1.4L29,9.3l2.4,1.4l2.4,1.4v5.5L29,20.3L29,20.3z M36.4,17.5l0.4,0.3c-0.1-0.7-0.2-1.5-0.4-2.2V17.5L36.4,17.5z M36.9,20.8
	l-1.8-1.1l-4.8,2.7V28l3.4,2C35.6,27.3,36.8,24.2,36.9,20.8L36.9,20.8z M4.9,20.3l-1.8-1.1c0.2-3.4,1.3-6.6,3.2-9.1l3.4,2v5.5
	L4.9,20.3L4.9,20.3z M11,9.8l4.8-2.7V3.6C12.7,4.4,10.1,5.9,8,8c0,0,0,0-0.1,0.1L11,9.8L11,9.8z M18.3,7.1L23,9.8l2.8-1.6l1.9-1.1
	V4.9c-2.3-1.2-5-1.9-7.8-1.9c-0.6,0-1.2,0-1.7,0.1V7.1L18.3,7.1z M30.3,7.1L32,8c0,0,0,0,0,0c-0.5-0.5-1.1-1-1.7-1.5V7.1L30.3,7.1z
	 M19.4,10.7l2.4,1.4v5.5L17,20.3l-4.8-2.7V12L17,9.3L19.4,10.7L19.4,10.7z M6.2,33.8C2.7,30.3,0.5,25.4,0.5,20S2.7,9.7,6.2,6.2
	C9.7,2.7,14.6,0.5,20,0.5c5.4,0,10.3,2.2,13.8,5.7c3.5,3.5,5.7,8.4,5.7,13.8s-2.2,10.3-5.7,13.8c-3.5,3.5-8.4,5.7-13.8,5.7
	C14.6,39.5,9.7,37.3,6.2,33.8z"/>
</svg>
