<?xml version="1.0" encoding="utf-8"?>
<!-- Generator: Adobe Illustrator 26.0.2, SVG Export Plug-In . SVG Version: 6.00 Build 0)  -->
<svg version="1.1" id="Calque_1" xmlns="http://www.w3.org/2000/svg" xmlns:xlink="http://www.w3.org/1999/xlink" x="0px" y="0px"
	 viewBox="0 0 40 40" style="enable-background:new 0 0 40 40;" xml:space="preserve">
<style type="text/css">
	.st0{fill:#FFFFFF;stroke:#FFFFFF;stroke-miterlimit:10;}
</style>
<path class="st0" d="M30.4,31.1c7.8-7.2,10.6-16.3,6.5-20.8l-5.8-6.4C26.9-0.6,17.6,1.5,9.8,8.6S-0.8,24.9,3.3,29.5l5.8,6.4
	C13.3,40.3,22.7,38.2,30.4,31.1z M10.8,9.7c7-6.5,15.6-8.6,19.2-4.8c3.5,3.8,0.7,12.2-6.4,18.7c-7,6.5-15.6,8.6-19.2,4.8
	S3.8,16.2,10.8,9.7z M7.4,31.6c4.7,0.9,11.4-1.6,17.2-6.9s8.9-11.8,8.3-16.6l2.9,3.1c3.5,3.8,0.7,12.2-6.4,18.7
	c-7,6.5-15.6,8.6-19.2,4.8L7.4,31.6z"/>
</svg>
