<?xml version="1.0" encoding="utf-8"?>
<!-- Generator: Adobe Illustrator 26.0.2, SVG Export Plug-In . SVG Version: 6.00 Build 0)  -->
<svg version="1.1" id="Calque_1" xmlns="http://www.w3.org/2000/svg" xmlns:xlink="http://www.w3.org/1999/xlink" x="0px" y="0px"
	 viewBox="0 0 40 40" style="enable-background:new 0 0 40 40;" xml:space="preserve">
<style type="text/css">
	.st0{fill:#FFFFFF;}
</style>
<path class="st0" d="M34.7,23.4c-1.4-4.5-8.4-14.9-8.4-14.9s-0.7-1.9,0.8-4.1c-1.9,0.8-1.9,0.8-2.9,1.9C24,5.4,24,5.4,24.5,3.9
	c-2.9-0.2-4,2.4-8,3.9c-3.8-2.3-10.9,3-14.3,6.6c2.2-0.4,2.7-0.4,3.3,0c-1.6,1.2-3.7,1.8-4.3,4.4c2.1-0.8,2.5-0.8,3.5-0.5
	c-1.8,3.2-2.6,7.1-0.6,10.6c6.1,9.4,15,7.4,15.2,6.8s-4.3-16.1,3.1-9.3c3.4,2.2,2.8,2.4,6.7,3.6c1.9,3,2,3.9,2.9,5.5
	c0.6,1.1,3.4,0.4,4.9-1.3c0.8-0.9,0.8-0.9,1.6-3.1C40,29.8,36.1,27.9,34.7,23.4z M30.8,17.5c-0.2,0-0.2-0.4-2.6-0.3
	c-2.4,0.1-3.1-2-3.1-2c0.5-0.5,2.6-0.7,3.6-0.6C29.7,14.9,31,17.6,30.8,17.5z"/>
</svg>
