<?xml version="1.0" encoding="utf-8"?>
<!-- Generator: Adobe Illustrator 26.0.2, SVG Export Plug-In . SVG Version: 6.00 Build 0)  -->
<svg version="1.1" id="Calque_1" xmlns="http://www.w3.org/2000/svg" xmlns:xlink="http://www.w3.org/1999/xlink" x="0px" y="0px"
	 viewBox="0 0 40 40" style="enable-background:new 0 0 40 40;" xml:space="preserve">
<style type="text/css">
	.st0{fill-rule:evenodd;clip-rule:evenodd;fill:#FFFFFF;}
</style>
<g>
	<path class="st0" d="M9.4,25.8c0.7,0,1.3,0.6,1.3,1.3s-0.6,1.3-1.3,1.3H4.7c-2,0-3.7-1.7-3.7-3.7V13.4c0-1.1,0.4-2.1,1.2-2.8
		L12,1.9c0.2-0.2,0.6-0.3,0.9-0.3h14.2c0.3,0,0.6,0.1,0.9,0.3l9.8,8.7c0.8,0.7,1.2,1.7,1.2,2.8v11.3c0,2-1.7,3.7-3.7,3.7h-4.7
		c-0.7,0-1.3-0.6-1.3-1.3s0.6-1.3,1.3-1.3h4.7c0.6,0,1-0.5,1-1V13.4c0-0.3-0.1-0.6-0.3-0.8l-9.5-8.4H13.4L4,12.6
		c-0.2,0.2-0.3,0.5-0.3,0.8v11.3c0,0.6,0.5,1,1,1C4.7,25.8,9.4,25.8,9.4,25.8z"/>
	<path class="st0" d="M29.3,14.7c0-0.7,0.6-1.3,1.3-1.3S32,14,32,14.7v20.1c0,1-0.4,1.9-1.1,2.6c-0.7,0.7-1.6,1.1-2.6,1.1H11.7
		c-1,0-1.9-0.4-2.6-1.1C8.4,36.7,8,35.7,8,34.8V14.7c0-0.7,0.6-1.3,1.3-1.3s1.3,0.6,1.3,1.3v20.1c0,0.3,0.1,0.5,0.3,0.7
		c0.2,0.2,0.5,0.3,0.7,0.3h16.5c0.3,0,0.5-0.1,0.7-0.3c0.2-0.2,0.3-0.5,0.3-0.7V14.7z"/>
	<path class="st0" d="M30.6,16.9c0.7,0,1.3,0.6,1.3,1.3s-0.6,1.3-1.3,1.3H9.4C8.6,19.6,8,19,8,18.2s0.6-1.3,1.3-1.3H30.6z"/>
	<path class="st0" d="M30.6,24c0.7,0,1.3,0.6,1.3,1.3s-0.6,1.3-1.3,1.3H9.4C8.6,26.6,8,26,8,25.3S8.6,24,9.4,24H30.6z"/>
	<path class="st0" d="M26,2.1c0.5-0.6,1.3-0.7,1.9-0.2s0.7,1.3,0.2,1.9L15.7,19.1c-0.5,0.6-1.3,0.7-1.9,0.2
		c-0.6-0.5-0.7-1.3-0.2-1.9C13.7,17.4,26,2.1,26,2.1z"/>
	<path class="st0" d="M11.9,3.7c-0.5-0.6-0.4-1.4,0.2-1.9c0.6-0.5,1.4-0.4,1.9,0.2l7.1,8.8c0.5,0.6,0.4,1.4-0.2,1.9
		c-0.6,0.5-1.4,0.4-1.9-0.2C19,12.5,11.9,3.7,11.9,3.7z"/>
</g>
</svg>
