<?xml version="1.0" encoding="utf-8"?>
<!-- Generator: Adobe Illustrator 26.0.2, SVG Export Plug-In . SVG Version: 6.00 Build 0)  -->
<svg version="1.1" id="Calque_1" xmlns="http://www.w3.org/2000/svg" xmlns:xlink="http://www.w3.org/1999/xlink" x="0px" y="0px"
	 viewBox="0 0 40 40" style="enable-background:new 0 0 40 40;" xml:space="preserve">
<style type="text/css">
	.st0{fill:#FFFFFF;stroke:#FFFFFF;stroke-width:0.25;stroke-miterlimit:10;}
</style>
<path class="st0" d="M44.9,35.6l-7.6-6.8l1.7-8.5c0-0.1,0-0.2,0-0.3c0.1-0.8-0.2-1.5-0.7-2c-0.1-0.2-0.2-0.4-0.4-0.5l-7-7.5
	c-0.1-0.1-0.3-0.3-0.4-0.4C30.1,9.3,29.6,9,29,8.9c0.2-1.5-0.6-3-2-3.6c-1.7-0.8-3.8,0-4.5,1.7c-0.8,1.7,0,3.8,1.7,4.5
	c0,0,0.1,0,0.1,0l-2.8,0.9l-6-3.7c0-0.1,0-0.1-0.1-0.2c0.4,0,0.9-0.1,1.3-0.3c1.7-0.8,2.5-2.8,1.7-4.5c-0.8-1.7-2.8-2.5-4.5-1.7
	c-1.7,0.8-2.5,2.7-1.8,4.4c-1.5,0-2.9,0.8-3.5,2.3l-4,9.6c-0.4,0.6-0.5,1.2-0.4,2l1.7,8.8l-5,6.8c-0.5,0.6-0.4,1.5,0.2,2
	c0.6,0.6,1.6,0.5,2.1-0.1l6.5-6.9c0.3-0.4,0.5-0.9,0.5-1.4l0-0.2L9.7,24l5.3,3l2.6,9c0.2,0.7,0.9,1.2,1.7,1.1
	c0.8-0.1,1.4-0.9,1.2-1.7l-1.7-10.2c-0.1-0.5-0.3-0.9-0.7-1.2l-0.2-0.1L11,19.2l2.3-3.8l1.9,3.7c0.2,0.4,0.6,0.7,1,0.8l6.7,1.7
	c0.1,0,0.3,0,0.4,0c0.5,0,0.9-0.2,1.2-0.6l3.4-4.1l3.3,2.6l-6.6,4.2L24.4,24c-0.5,0.3-0.8,0.8-0.8,1.4l-0.8,10.1
	c-0.1,0.8,0.5,1.5,1.2,1.6c0.8,0.2,1.6-0.4,1.8-1.2l1.7-8.9l6.1-3.2l-0.5,5.4l0,0.2c-0.1,0.6,0.2,1.3,0.7,1.7L43,38
	c0.6,0.5,1.5,0.4,2-0.2C45.6,37.1,45.5,36.2,44.9,35.6z M22.7,18.3l-5-1.3l-2.3-4.5l5,3.1c0.3,0.2,0.6,0.2,0.9,0.2
	c0.2,0,0.3,0,0.5-0.1l3.5-1.1c0.1,0.1,0.1,0.2,0.2,0.3L22.7,18.3z"/>
</svg>
