<?xml version="1.0" encoding="utf-8"?>
<!-- Generator: Adobe Illustrator 26.0.2, SVG Export Plug-In . SVG Version: 6.00 Build 0)  -->
<svg version="1.1" id="Calque_1" xmlns="http://www.w3.org/2000/svg" xmlns:xlink="http://www.w3.org/1999/xlink" x="0px" y="0px"
	 viewBox="0 0 40 40" style="enable-background:new 0 0 40 40;" xml:space="preserve">
<style type="text/css">
	.st0{fill:#FFFFFF;stroke:#FFFFFF;stroke-width:0.5;stroke-miterlimit:10;}
</style>
<g>
	<path class="st0" d="M39.7,35.4c-1,0-1.9-0.2-2.8-0.6c-0.9-0.4-1.8-0.6-2.9-0.6c-1,0-2,0.2-2.9,0.6c-0.8,0.4-1.8,0.6-2.8,0.6
		c-1,0-1.9-0.2-2.8-0.6c-0.9-0.4-1.9-0.6-2.9-0.6c-1,0-2,0.2-2.9,0.6c-0.8,0.4-1.8,0.6-2.8,0.6c-1,0-1.9-0.2-2.8-0.6
		c-0.9-0.4-1.8-0.6-2.9-0.6c-1,0-2,0.2-2.9,0.6c-0.8,0.4-1.8,0.6-2.8,0.6c-1,0-1.9-0.2-2.8-0.6c-0.9-0.4-1.8-0.6-2.9-0.6
		c-1,0-2,0.2-2.9,0.6c-0.9,0.4-1.8,0.6-2.8,0.6v-4.2c1,0,1.9-0.2,2.8-0.6c0.9-0.4,1.8-0.6,2.9-0.6c1,0,2,0.2,2.9,0.6
		c0.8,0.4,1.8,0.6,2.8,0.6c1,0,2-0.2,2.8-0.6c0.9-0.4,1.9-0.6,2.9-0.6c1,0,2,0.2,2.9,0.6c0.9,0.4,1.8,0.6,2.8,0.6
		c1,0,1.9-0.2,2.8-0.6c0.9-0.4,1.9-0.6,2.9-0.6c1,0,2,0.2,2.9,0.6c0.8,0.4,1.8,0.6,2.8,0.6c1,0,1.9-0.2,2.8-0.6
		c0.9-0.4,1.8-0.6,2.9-0.6c1,0,2,0.2,2.9,0.6c0.8,0.4,1.8,0.6,2.8,0.6L39.7,35.4z"/>
	<path class="st0" d="M33.2,23.4c3,0,5.4-2.5,5.4-5.5c0-3-2.4-5.4-5.4-5.4c-3,0-5.4,2.4-5.4,5.4C27.8,21,30,23.4,33.2,23.4z"/>
	<path class="st0" d="M1.8,26.5c0.4,0.1,0.8,0.2,1.2,0.4c0.8,0.4,1.8,0.6,2.8,0.6c1,0,2-0.2,2.8-0.6c0.9-0.4,1.8-0.7,2.9-0.7
		c1,0,2,0.3,2.9,0.7c0.9,0.4,1.8,0.6,2.8,0.6c1,0,1.9-0.2,2.8-0.6c0.9-0.4,1.9-0.7,2.9-0.7c1,0,2,0.3,2.9,0.7
		c0.8,0.4,1.8,0.6,2.8,0.6c0.7,0,1.4-0.1,2.1-0.3l-9-16.4L32,8.9c1.5-0.3,2.6-1.5,2.6-3.1c0-1.7-1.4-3.1-3.1-3.1c-0.1,0-0.2,0-0.4,0
		L15,5.7c-1.1,0.3-2.6,1.9-1.8,4c0,0.1,0.1,0.2,0.1,0.3l4.2,7.7L1.8,26.5z"/>
</g>
</svg>
