<?xml version="1.0" encoding="utf-8"?>
<!-- Generator: Adobe Illustrator 26.0.2, SVG Export Plug-In . SVG Version: 6.00 Build 0)  -->
<svg version="1.1"
	 id="Calque_1" xmlns:inkscape="http://www.inkscape.org/namespaces/inkscape" xmlns:sodipodi="http://sodipodi.sourceforge.net/DTD/sodipodi-0.dtd" xmlns:svg="http://www.w3.org/2000/svg"
	 xmlns="http://www.w3.org/2000/svg" xmlns:xlink="http://www.w3.org/1999/xlink" x="0px" y="0px" viewBox="0 0 40 40"
	 style="enable-background:new 0 0 40 40;" xml:space="preserve">
<style type="text/css">
	.st0{fill:#FFFFFF;stroke:#FFFFFF;stroke-width:0.25;stroke-miterlimit:10;}
</style>
<g transform="translate(851.24347,348.81778)">
	<path class="st0" d="M-823.5-348.2c-0.2,0-0.4,0.1-0.7,0.2l-12.4,6.5c-0.6,0.3-0.9,0.9-0.6,1.4l2.5,4.8c0,0,0.1,0.1,0.1,0.1
		c0.1,0.3,0.3,0.5,0.5,0.7c4.4,3.4,7.1,5.7,9.7,8.2l-0.1,6.4c0,1.1,0.9,2.1,2,2.1c1.1,0,2.1-0.9,2.1-2l0-3.5
		c0.3-0.1,0.6-0.2,0.8-0.4c0.6-0.6,0.6-1.6,0-2.2c0,0,0,0,0,0c-0.2-0.2-0.5-0.4-0.7-0.7l0.1-15.1v0c0,0,0,0,0,0l0-0.8
		c0-0.1,0-0.2-0.1-0.3l-2.5-4.8C-822.9-348.1-823.2-348.2-823.5-348.2z M-824.2-339.8l-0.1,9.3c-1.9-1.7-4-3.5-6.8-5.7L-824.2-339.8
		z M-840-338.3c-0.5,0-1.1,0.2-1.5,0.4c-1.8,0.9-2.4,3.1-1.5,4.9c0.9,1.8,3.1,2.4,4.9,1.5c1.8-0.9,2.4-3.1,1.5-4.9c0,0,0,0,0,0
		C-837.3-337.6-838.6-338.3-840-338.3z M-849.8-316.5c-0.2,0-0.4,0.2-0.5,0.3c-0.2,0.3-0.1,0.8,0.3,1c0,0,0,0,0,0l1.7,1
		c1.1,0.6,2.4,0.6,3.5,0l0.3-0.2c0.6-0.4,1.4-0.4,2.1,0l0.3,0.2c1.1,0.6,2.4,0.6,3.5,0l0.3-0.2c0.6-0.4,1.4-0.4,2.1,0l0.3,0.2
		c1.1,0.6,2.4,0.6,3.5,0l0.3-0.2c0.6-0.4,1.4-0.4,2.1,0l0.3,0.2c1.1,0.6,2.4,0.6,3.5,0l0.3-0.2c0.6-0.4,1.4-0.4,2.1,0l0.3,0.2
		c1.1,0.6,2.4,0.6,3.5,0l0.3-0.2c0.6-0.4,1.4-0.4,2.1,0l0.3,0.2c1.1,0.6,2.4,0.6,3.5,0l1.7-1c0.3-0.2,0.5-0.6,0.3-1c0,0,0,0,0,0
		c-0.2-0.3-0.6-0.5-1-0.3l-1.7,1c-0.6,0.4-1.4,0.4-2.1,0l-0.3-0.2c-1.1-0.6-2.4-0.6-3.5,0l-0.3,0.2c-0.6,0.4-1.4,0.4-2.1,0l-0.3-0.2
		c-1.1-0.6-2.4-0.6-3.5,0l-0.3,0.2c-0.6,0.4-1.4,0.4-2.1,0l-0.3-0.2c-1.1-0.6-2.4-0.6-3.5,0l-0.3,0.2c-0.6,0.4-1.4,0.4-2.1,0
		l-0.3-0.2c-1.1-0.6-2.4-0.6-3.5,0l-0.3,0.2c-0.6,0.4-1.4,0.4-2.1,0l-0.3-0.2c-1.1-0.6-2.4-0.6-3.5,0l-0.3,0.2
		c-0.6,0.4-1.4,0.4-2.1,0l-1.7-1C-849.5-316.5-849.7-316.5-849.8-316.5z M-814-312.8L-814-312.8c-0.1,0-0.3,0-0.4,0.1l-1.5,1
		c-0.6,0.4-1.4,0.4-2,0c0,0,0,0,0,0l-0.2-0.1c-1.1-0.7-2.4-0.7-3.4,0l-0.2,0.1c-0.6,0.4-1.4,0.4-2,0l-0.2-0.1
		c-1.1-0.7-2.4-0.7-3.4,0l-0.2,0.1c-0.6,0.4-1.4,0.4-2,0l-0.2-0.1c-1-0.7-2.4-0.7-3.4,0l-0.2,0.1c-0.6,0.4-1.4,0.4-2,0l-0.2-0.1
		c-1.1-0.7-2.4-0.7-3.4,0l-0.2,0.1c-0.6,0.4-1.4,0.4-2,0l-0.2-0.1c-1-0.7-2.4-0.7-3.4,0l-0.2,0.1c-0.6,0.4-1.4,0.4-2,0l-1.5-1
		c-0.2-0.1-0.3-0.1-0.5-0.1c-0.2,0-0.3,0.1-0.4,0.3c-0.2,0.3-0.1,0.7,0.2,1c0,0,0,0,0,0l1.5,1c1.1,0.7,2.4,0.7,3.4,0l0.2-0.1
		c0.6-0.4,1.4-0.4,2,0c0,0,0,0,0,0l0.2,0.1c1.1,0.7,2.4,0.7,3.4,0v0l0.2-0.1c0,0,0,0,0,0c0,0,0,0,0,0c0,0,0,0,0,0
		c0.6-0.4,1.4-0.4,2,0c0,0,0,0,0,0l0.2,0.1v0c1.1,0.7,2.4,0.7,3.4,0v0l0.2-0.1c0,0,0,0,0,0c0,0,0,0,0,0c0,0,0,0,0,0c0,0,0,0,0,0
		c0.6-0.4,1.4-0.4,2,0c0,0,0,0,0,0l0.2,0.1c1.1,0.7,2.4,0.7,3.4,0v0l0.2-0.1c0,0,0,0,0,0c0,0,0,0,0,0c0,0,0,0,0,0c0,0,0,0,0,0
		c0,0,0,0,0,0c0.6-0.4,1.4-0.4,2,0c0,0,0,0,0,0l0.2,0.1v0c1.1,0.7,2.4,0.7,3.4,0v0l0.2-0.1c0,0,0,0,0,0c0,0,0,0,0,0c0,0,0,0,0,0
		c0,0,0,0,0,0c0.6-0.4,1.4-0.4,2,0c0,0,0,0,0,0l0.2,0.1v0c1.1,0.7,2.4,0.7,3.4,0l1.5-1c0.3-0.2,0.4-0.6,0.2-0.9c0,0,0,0,0,0
		C-813.5-312.7-813.7-312.8-814-312.8z"/>
</g>
</svg>
