<?xml version="1.0" encoding="utf-8"?>
<!-- Generator: Adobe Illustrator 26.0.2, SVG Export Plug-In . SVG Version: 6.00 Build 0)  -->
<svg version="1.1" id="Calque_1" xmlns="http://www.w3.org/2000/svg" xmlns:xlink="http://www.w3.org/1999/xlink" x="0px" y="0px"
	 viewBox="0 0 40 40" style="enable-background:new 0 0 40 40;" xml:space="preserve">
<style type="text/css">
	.st0{fill:#FFFFFF;}
</style>
<g>
	<path class="st0" d="M36.7,3.4c-1.8-1.8-4.7-2.8-8.2-2.8C21.7,0.6,13.9,4,9,9.1C5.7,12.6,2.8,18,1.5,23.2C0,29.1,0.6,33.9,3.3,36.6
		c1.8,1.8,4.5,2.7,7.9,2.7c0,0,0,0,0,0c6.6,0,14.9-3.5,19.8-8.4c5-5,8.4-13.1,8.4-19.6C39.3,8,38.4,5.2,36.7,3.4z M10.3,28.1
		c0,0-2.4,1.1-3.4,0.8c-0.8-0.2-1.3-2.7-0.6-6c0.7-3.4,1.9-8,5.9-12.5c0,0,0,0,0,0c2.2-2.2,5-4.1,8.1-5.5c3-1.3,6.1-1.9,8.8-1.9
		c2,0,3.7,0.4,4.9,1.1c0.5,0.3,0.5,2.1-0.6,4.1s-4.4,6.5-8.3,10C21.2,21.7,12.4,27.3,10.3,28.1z M29.2,27.7c-2.7,2.7-6.7,5-10.8,6.3
		c-0.1,0-0.2,0-0.4,0.1c-1.6,0.3-3.4,0.4-4.2,0.2c-1-0.2-0.8-1.2,0-1.7c0.8-0.5,7.3-5.7,10.8-9.3c3.2-3.3,9.8-10.3,11.7-14.1
		c0.1-0.1,0.2-0.1,0.2,0c0.1,0.5,0.1,1,0.1,1.4C36.6,16.1,33.5,23.3,29.2,27.7z"/>
</g>
</svg>
