<?xml version="1.0" encoding="utf-8"?>
<!-- Generator: Adobe Illustrator 26.0.2, SVG Export Plug-In . SVG Version: 6.00 Build 0)  -->
<svg version="1.1" id="Calque_1" xmlns="http://www.w3.org/2000/svg" xmlns:xlink="http://www.w3.org/1999/xlink" x="0px" y="0px"
	 viewBox="0 0 40 40" style="enable-background:new 0 0 40 40;" xml:space="preserve">
<style type="text/css">
	.st0{fill:#FFFFFF;stroke:#FFFFFF;stroke-width:0.25;stroke-miterlimit:10;}
</style>
<g>
	<g>
		<path class="st0" d="M36.8,3.4c2.5,2.5,2.5,6.5,0,9L12,37.3c-2.5,2.5-6.5,2.5-9,0l0,0c-2.5-2.5-2.5-6.5,0-9L27.8,3.4
			C30.3,0.9,34.3,0.9,36.8,3.4L36.8,3.4z"/>
	</g>
	<g>
		<path class="st0" d="M7.1,21.9c0.4,0.4,0.4,1.1,0,1.5l-2.3,2.3c-0.4,0.4-1.1,0.4-1.5,0l-0.8-0.8c-0.4-0.4-0.4-1.1,0-1.5l2.3-2.3
			c0.4-0.4,1.1-0.4,1.5,0L7.1,21.9z"/>
	</g>
	<g>
		<path class="st0" d="M25.2,3.8c0.4,0.4,0.4,1.1,0,1.5l-2.3,2.3c-0.4,0.4-1.1,0.4-1.5,0l-0.8-0.8c-0.4-0.4-0.4-1.1,0-1.5l2.3-2.3
			c0.4-0.4,1.1-0.4,1.5,0L25.2,3.8z"/>
	</g>
	<g>
		<path class="st0" d="M19.1,33.9c0.4,0.4,0.4,1.1,0,1.5l-2.3,2.3c-0.4,0.4-1.1,0.4-1.5,0l-0.8-0.8c-0.4-0.4-0.4-1.1,0-1.5l2.3-2.3
			c0.4-0.4,1.1-0.4,1.5,0L19.1,33.9z"/>
	</g>
	<g>
		<path class="st0" d="M37.2,15.9c0.4,0.4,0.4,1.1,0,1.5l-2.3,2.3c-0.4,0.4-1.1,0.4-1.5,0l-0.8-0.8c-0.4-0.4-0.4-1.1,0-1.5l2.3-2.3
			c0.4-0.4,1.1-0.4,1.5,0L37.2,15.9z"/>
	</g>
</g>
</svg>
