<?xml version="1.0" encoding="utf-8"?>
<!-- Generator: Adobe Illustrator 26.0.2, SVG Export Plug-In . SVG Version: 6.00 Build 0)  -->
<svg version="1.1" id="Calque_1" xmlns="http://www.w3.org/2000/svg" xmlns:xlink="http://www.w3.org/1999/xlink" x="0px" y="0px"
	 viewBox="0 0 40 40" style="enable-background:new 0 0 40 40;" xml:space="preserve">
<style type="text/css">
	.st0{fill:#FFFFFF;}
	.st1{fill-rule:evenodd;clip-rule:evenodd;fill:#FFFFFF;}
</style>
<g>
	<path class="st0" d="M26.1,5.2c0,2.4-2,4.4-4.4,4.4c-2.4,0-4.4-2-4.4-4.4s2-4.4,4.4-4.4C24.1,0.8,26.1,2.8,26.1,5.2z"/>
	<path class="st1" d="M12,8.3L9.5,3.8c-0.6-1.1-2-1.4-3-0.8C5.4,3.6,5,5,5.6,6.1L8.5,11c0.4,0.7,1,1.2,1.8,1.4l3.5,0.9
		c0,0,0,0.1,0,0.1l-1.5,5.4c-0.2,0.9-0.2,1.7,0.1,2.5l1.4,5.1L12,32.6c1.9,0.1,2.9,0.7,3.9,1.3c1,0.7,2.1,1.3,4.2,1.3
		c2.1,0,3.1-0.7,4.2-1.3c1-0.7,2.1-1.3,4.2-1.3c2.1,0,3.1,0.7,4.2,1.3c0.2,0.1,0.4,0.2,0.6,0.4c2.9-1.6,4.6-3.3,4.2-4.7
		c-0.5-2-5.6-2.5-11.9-1.3v-3c0-1.1-0.6-2-1.5-2.6L20.8,21l1.1-4.3l2.7,1.5c0.4,0.2,0.9,0.4,1.4,0.4h4.6c1.2,0,2.2-1,2.2-2.2
		c0-1.2-1-2.2-2.2-2.2l-4.2,0L20.9,11c-0.9-0.5-1.8-0.9-2.8-1.1L12,8.3z M21,29.4l0-3.2l-3.3-1.9l0.4,1.4c0.1,0.5,0.1,1,0,1.5
		l-1,3.6C18.3,30.3,19.6,29.8,21,29.4z"/>
	<path class="st0" d="M32.6,36.3c-1.5-0.9-2.4-1.2-4.2-1.2c-1.9,0-2.9,0.4-4.6,1.4l-0.3,0.2c-1.3,0.8-2,1-3.5,1
		c-1.6,0-2.3-0.3-3.8-1.2l-0.3-0.2c-1.5-0.9-2.4-1.2-4.2-1.2c-1.9,0-2.9,0.4-4.6,1.4l-0.3,0.2c-1.3,0.8-2,1-3.5,1
		c-0.4,0-0.7,0.3-0.7,0.7c0,0.4,0.3,0.7,0.7,0.7c1.9,0,2.9-0.4,4.6-1.4l0.3-0.2c1.3-0.8,2-1,3.5-1c1.6,0,2.3,0.3,3.8,1.2l0.3,0.2
		c1.5,0.9,2.4,1.2,4.2,1.2c1.9,0,2.9-0.4,4.6-1.4l0.3-0.2c1.3-0.8,2-1,3.5-1c1.6,0,2.3,0.3,3.8,1.2l0.3,0.2c1.5,0.9,2.4,1.2,4.2,1.2
		c0.4,0,0.7-0.3,0.7-0.7c0-0.4-0.3-0.7-0.7-0.7c-1.6,0-2.3-0.3-3.8-1.2L32.6,36.3z"/>
</g>
</svg>
