<?xml version="1.0" encoding="utf-8"?>
<!-- Generator: Adobe Illustrator 26.0.2, SVG Export Plug-In . SVG Version: 6.00 Build 0)  -->
<svg version="1.1" xmlns="http://www.w3.org/2000/svg" xmlns:xlink="http://www.w3.org/1999/xlink" x="0px" y="0px"
	 viewBox="0 0 40 40" style="enable-background:new 0 0 40 40;" xml:space="preserve">
<style type="text/css">
	.st0{fill:#FFFFFF;}
</style>
<g id="Calque_2">
</g>
<g id="Calque_1">
	<g>
		<circle class="st0" cx="20.2" cy="5.2" r="4.8"/>
		<path class="st0" d="M30.5,27.2l-5.9-3.7h-5.8l1.1,1.4l-1.1,0.7L18.2,24l-0.7,1.5L16.3,25l1-1.6h-1.5l-5.9,3.7
			c-0.9,0.6-1.4,1.6-1.2,2.7l0.9,7.4c0.2,1.5,1.5,2.6,3,2.4c1.5-0.2,2.6-1.5,2.4-3l-0.7-5.7l5.9-3.7l5.9,3.7l-0.7,5.7
			c-0.2,1.5,0.9,2.9,2.4,3c0.1,0,0.2,0,0.3,0c1.4,0,2.6-1,2.7-2.4l0.9-7.4C31.9,28.8,31.4,27.7,30.5,27.2z"/>
		<path class="st0" d="M34.4,15.9h-4.1l-4.4-3.3c-1.2-0.9-2.7-1.4-4.2-1.4H18c-1,0-2,0.2-2.9,0.6l-6.4,2.9c-0.6,0.3-1.1,0.8-1.3,1.4
			c-0.2,0.6-0.1,1.3,0.2,1.9l2.5,4.1c0.5,0.7,1.2,1.1,2,1.1c0.4,0,0.8-0.1,1.2-0.3c1.1-0.7,1.4-2.1,0.8-3.2l-1.1-1.9l3-1.4V22h8.5
			v-4.6l3.7,2.8c0.4,0.3,0.9,0.5,1.4,0.5h4.9c1.3,0,2.3-1,2.3-2.3C36.8,16.9,35.7,15.9,34.4,15.9z"/>
	</g>
</g>
</svg>
