<?xml version="1.0" encoding="utf-8"?>
<!-- Generator: Adobe Illustrator 27.8.0, SVG Export Plug-In . SVG Version: 6.00 Build 0)  -->
<svg version="1.1" id="Calque_1" xmlns="http://www.w3.org/2000/svg" xmlns:xlink="http://www.w3.org/1999/xlink" x="0px" y="0px"
	 viewBox="0 0 40 40" enable-background="new 0 0 40 40" xml:space="preserve">
<g>
	<path fill="#FFFFFF" d="M24.3,30.3c-2.8,0.1-5.5-0.7-7.9-2.2L6,38.6l-4.5-4.7l10.5-10.5c-2-3.1-2.6-6.9-1.8-10.6l14.3,14.3
		c0,0.1,0,0.2-0.1,0.3c-0.1,0.3-0.1,0.7-0.1,1c0,0.1,0,0.3,0,0.4C24.2,29.3,24.2,29.8,24.3,30.3z M32,21c1.2,0,2.3,0.3,3.3,0.8
		c0.5,0.2,1,0.5,1.5,0.9c3.8-7,1.1-15.7-5.9-19.5c-2.1-1.1-4.5-1.7-6.9-1.7c-3.8,0-7.5,1.5-10.2,4.2c-1.3,1.3-2.3,2.8-3,4.4
		l14.5,14.5C26.9,22.4,29.4,21,32,21z M38.6,28.9c0-2-0.9-3.9-2.4-5.1c-0.4-0.3-0.8-0.6-1.3-0.8c-0.9-0.4-1.8-0.6-2.8-0.6
		c-2.3,0-4.5,1.2-5.6,3.2c-0.4,0.7-0.7,1.4-0.8,2.1c0,0.2-0.1,0.5-0.1,0.7c0,0.1,0,0.1,0,0.2c0,0.1,0,0.2,0,0.3c0,0.4,0,0.9,0.1,1.3
		c0.6,3,3.3,5.2,6.4,5.2C35.7,35.4,38.6,32.5,38.6,28.9L38.6,28.9z"/>
</g>
</svg>
