<?xml version="1.0" encoding="utf-8"?>
<!-- Generator: Adobe Illustrator 26.0.2, SVG Export Plug-In . SVG Version: 6.00 Build 0)  -->
<svg version="1.1" id="Calque_1" xmlns="http://www.w3.org/2000/svg" xmlns:xlink="http://www.w3.org/1999/xlink" x="0px" y="0px"
	 viewBox="0 0 40 40" style="enable-background:new 0 0 40 40;" xml:space="preserve">
<style type="text/css">
	.st0{fill:#FFFFFF;}
</style>
<g>
	<path class="st0" d="M6.2,33.8c7.6,7.6,20,7.6,27.6,0s7.6-20,0-27.6s-20-7.6-27.6,0S-1.4,26.2,6.2,33.8z M32,32
		c-3.2,3.3-7.7,5-12.3,4.9c-0.2-9.3,7.1-17,16.4-17.2c0.3,0,0.5,0,0.8,0C37,24.3,35.2,28.7,32,32z M36.6,17.1
		C25.9,17,17.1,25.6,17.1,36.4c0,0.1,0,0.2,0,0.3c-7-1.2-12.5-6.7-13.7-13.7c5.2,0,10.2-2,13.9-5.7c3.7-3.7,5.7-8.7,5.7-13.9
		C29.9,4.6,35.4,10.1,36.6,17.1z M20.3,3.1c0.1,4.6-1.7,9-4.9,12.3c-3.3,3.2-7.7,5-12.3,4.9C3,11,10.4,3.3,19.7,3.1
		C19.9,3.1,20.1,3.1,20.3,3.1z"/>
</g>
</svg>
