<?xml version="1.0" encoding="utf-8"?>
<!-- Generator: Adobe Illustrator 26.0.2, SVG Export Plug-In . SVG Version: 6.00 Build 0)  -->
<svg version="1.1" id="Calque_1" xmlns="http://www.w3.org/2000/svg" xmlns:xlink="http://www.w3.org/1999/xlink" x="0px" y="0px"
	 viewBox="0 0 40 40" style="enable-background:new 0 0 40 40;" xml:space="preserve">
<style type="text/css">
	.st0{fill:#FFFFFF;stroke:#FFFFFF;stroke-width:0.25;stroke-miterlimit:10;}
</style>
<g>
	<path class="st0" d="M37,5L34,4l-1-3.1c-0.2-0.7-1.1-0.7-1.4-0.3l-4.6,4.6c-0.2,0.2-0.3,0.5-0.2,0.8l1,3l-1.3,1.3
		c-1.8-1.6-4.2-2.5-6.9-2.5C13.8,7.8,9,12.6,9,18.4C9,24.2,13.8,29,19.6,29c5.8,0,10.6-4.7,10.6-10.6c0-2.6-1-5-2.6-6.9l1.3-1.3l3,1
		c0.4,0.1,0.7,0,0.8-0.2l4.6-4.6C38,5.7,37.3,5.1,37,5z M28.5,18.4c0,4.9-4,8.9-8.9,8.9s-8.9-4-8.9-8.9s4-8.9,8.9-8.9
		c2.2,0,4.1,0.8,5.7,2.1L21.8,15c-0.6-0.4-1.4-0.7-2.2-0.7c-2.3,0-4.1,1.8-4.1,4.1s1.8,4.1,4.1,4.1s4.1-1.8,4.1-4.1
		c0-0.8-0.3-1.6-0.7-2.3l3.4-3.4C27.7,14.2,28.5,16.2,28.5,18.4z M22,18.4c0,1.4-1.1,2.5-2.5,2.5c-1.4,0-2.5-1.1-2.5-2.5
		c0-1.4,1.1-2.5,2.5-2.5c0.4,0,0.7,0.1,1,0.2L19,17.8c-0.3,0.3-0.3,0.8,0,1.2c0.2,0.2,0.6,0.4,1.2,0l1.6-1.6
		C21.9,17.7,22,18,22,18.4z M31.9,9.5l-2.6-0.9L28.4,6l3.3-3.3l0.7,2.2c0.1,0.2,0.3,0.4,0.5,0.5l2.2,0.7L31.9,9.5z"/>
	<path class="st0" d="M36.8,18.4c0-2.5-0.5-4.9-1.6-7.1c-0.2-0.4-0.7-0.6-1.1-0.4c-0.4,0.2-0.6,0.7-0.4,1.1c0.9,2,1.4,4.2,1.4,6.5
		c0,8.6-7,15.6-15.6,15.6S4,27,4,18.4S11,2.8,19.6,2.8c2.2,0,4.4,0.5,6.4,1.4c0.4,0.2,0.9,0,1.1-0.4c0.2-0.4,0-0.9-0.4-1.1
		c-2.3-1-4.6-1.6-7.1-1.6c-9.5,0-17.2,7.7-17.2,17.2c0,5.1,2.3,9.7,5.9,12.9l-2.4,7.3c-0.1,0.3,0,1,0.8,1.1h4.8
		c0.3,0,0.7-0.2,0.8-0.6l1.5-4.5c1.8,0.7,3.8,1.1,5.9,1.1c2.1,0,4.1-0.4,5.9-1.1l1.5,4.6c0.1,0.3,0.4,0.6,0.8,0.6h4.8
		c0.9-0.1,0.9-0.8,0.8-1.1L31,31.2C34.5,28.1,36.8,23.5,36.8,18.4z M10.8,38H7.7l1.9-5.6c0.8,0.6,1.7,1.1,2.6,1.5L10.8,38z M31.5,38
		h-3.1L27,33.9c0.9-0.4,1.8-0.9,2.6-1.5L31.5,38z"/>
</g>
</svg>
