<?xml version="1.0" encoding="utf-8"?>
<!-- Generator: Adobe Illustrator 26.0.2, SVG Export Plug-In . SVG Version: 6.00 Build 0)  -->
<svg version="1.1" id="Calque_1" xmlns:serif="http://www.serif.com/"
	 xmlns="http://www.w3.org/2000/svg" xmlns:xlink="http://www.w3.org/1999/xlink" x="0px" y="0px" viewBox="0 0 40 40"
	 style="enable-background:new 0 0 40 40;" xml:space="preserve">
<style type="text/css">
	.st0{fill-rule:evenodd;clip-rule:evenodd;fill:#FFFFFF;}
</style>
<g transform="matrix(1,0,0,1,-503.967,-24.0114)">
	<path class="st0" d="M522,28.7c-6.9,0.9-12.5,6.4-13.3,13.3h-1.7c-1.1,0-2,0.9-2,2c0,1.1,0.9,2,2,2h1.7c0.9,6.9,6.4,12.4,13.3,13.3
		V61c0,1.1,0.9,2,2,2c1.1,0,2-0.9,2-2v-1.7c6.9-0.9,12.4-6.4,13.3-13.3h1.7c1.1,0,2-0.9,2-2c0-1.1-0.9-2-2-2h-1.7
		c-0.9-7-6.4-12.5-13.3-13.3V27c0-1.1-0.9-2-2-2c-1.1,0-2,0.9-2,2V28.7z M522,32.7c-4.8,0.8-8.5,4.6-9.3,9.3h1.4c1.1,0,2,0.9,2,2
		c0,1.1-0.9,2-2,2h-1.4c0.8,4.8,4.6,8.5,9.3,9.3v-1.4c0-1.1,0.9-2,2-2c1.1,0,2,0.9,2,2v1.4c4.8-0.8,8.5-4.6,9.3-9.3h-1.4
		c-1.1,0-2-0.9-2-2c0-1.1,0.9-2,2-2h1.4c-0.8-4.8-4.6-8.5-9.3-9.3v1.4c0,1.1-0.9,2-2,2c-1.1,0-2-0.9-2-2V32.7z M529.9,44
		c0-3.3-2.7-5.9-5.9-5.9c-3.3,0-5.9,2.7-5.9,5.9c0,3.3,2.7,5.9,5.9,5.9C527.3,49.9,529.9,47.3,529.9,44z M526,44c0,1.1-0.9,2-2,2
		c-1.1,0-2-0.9-2-2c0-1.1,0.9-2,2-2C525.1,42,526,42.9,526,44z"/>
</g>
</svg>
