<?xml version="1.0" encoding="utf-8"?>
<!-- Generator: Adobe Illustrator 27.8.0, SVG Export Plug-In . SVG Version: 6.00 Build 0)  -->
<svg version="1.1"
	 id="Calque_1" xmlns:inkscape="http://www.inkscape.org/namespaces/inkscape" xmlns:cc="http://creativecommons.org/ns#" xmlns:dc="http://purl.org/dc/elements/1.1/" xmlns:rdf="http://www.w3.org/1999/02/22-rdf-syntax-ns#" xmlns:svg="http://www.w3.org/2000/svg" xmlns:sodipodi="http://sodipodi.sourceforge.net/DTD/sodipodi-0.dtd"
	 xmlns="http://www.w3.org/2000/svg" xmlns:xlink="http://www.w3.org/1999/xlink" x="0px" y="0px" viewBox="0 0 40 40"
	 enable-background="new 0 0 40 40" xml:space="preserve">
<path fill="#FFFFFF" d="M20,0.5c-5.2,0-10.1,2-13.8,5.7C2.5,9.9,0.5,14.8,0.5,20s2,10.1,5.7,13.8c3.1,3.1,7,5,11.2,5.5h0
	c0.3,0,0.5,0.1,0.8,0.1h0c0.6,0,1.1,0.1,1.7,0.1c4.5,0,8.9-1.5,12.4-4.4c0.5-0.4,1-0.9,1.4-1.3l0.2-0.2c0.2-0.2,0.3-0.3,0.5-0.5l0,0
	c3.2-3.6,5-8.2,5-13c0-5.2-2-10.1-5.7-13.8C30.1,2.6,25.2,0.5,20,0.5z M20,3c1.1,0,2.1,0.1,3,0.3l-0.4,0.7
	c-3.6,5.6-3.5,12.9-3.3,15.8c0,0-0.1,0-0.1,0.1c-0.4,0.3-2.3,1.7-5,3v-0.3c0-0.1-1.1-9.3,2.1-16.7l1.1-2.6C18.2,3,19.1,3,20,3z
	 M25.5,3.9C28,4.7,30.2,6,32.1,8c2.2,2.2,3.8,5,4.5,8c-5.5-4.8-11.5-7.3-11.8-7.4l-1.4-0.6C23.7,7,24.2,6,24.8,5.2L25.5,3.9z
	 M8.9,7.1c-2.2,7.9-1.3,15.8-1.2,16.2l0.2,1.5c-1.1,0.2-2.2,0.2-3.4,0.2l-0.9,0c-0.4-1.6-0.7-3.2-0.7-4.9c0-4.6,1.8-8.9,5-12.1
	C8.3,7.6,8.6,7.3,8.9,7.1z M21.8,14.4l0.4,0.2c0.1,0,8.7,3.7,13.6,10l0.4,0.6c-0.5,1.8-1.4,3.5-2.5,5c-3.5-5.6-9.6-8.8-12-9.9v0
	C21.7,19.2,21.6,17,21.8,14.4z M20.2,22.1C20.2,22.1,20.2,22.1,20.2,22.1c0.4,0.2,2,0.9,4,2.1l-0.9,0.7c-0.3,0.2-7.4,5.6-16,6.5
	c-1.1-1.2-2-2.6-2.6-4h0.6C12,27.4,18.2,23.4,20.2,22.1z M31,30.5l0.6,0.8c0.1,0.2,0.2,0.3,0.2,0.4c0,0.1,0.1,0.2,0.2,0.4
	c-0.4,0.4-0.9,0.9-1.3,1.2c-3,2.4-6.7,3.8-10.7,3.8h-0.9c5.7-2,10.2-5.3,10.2-5.4L31,30.5z"/>
</svg>
