<?xml version="1.0" encoding="utf-8"?>
<!-- Generator: Adobe Illustrator 26.0.2, SVG Export Plug-In . SVG Version: 6.00 Build 0)  -->
<svg version="1.1" id="Calque_1" xmlns="http://www.w3.org/2000/svg" xmlns:xlink="http://www.w3.org/1999/xlink" x="0px" y="0px"
	 viewBox="0 0 40 40" style="enable-background:new 0 0 40 40;" xml:space="preserve">
<style type="text/css">
	.st0{fill:#FFFFFF;}
</style>
<path class="st0" d="M36.8,20.9c0-0.3,0-0.6,0-0.9s0-0.6,0-0.9l2.7-1.2l-0.1-0.9L39.2,16l-2.9-0.3c-0.2-0.6-0.3-1.1-0.6-1.7l2.2-2
	l-0.4-0.8L37,10.3l-2.9,0.6c-0.3-0.5-0.7-1-1.1-1.4l1.4-2.6l-0.7-0.7l-0.7-0.7l-2.6,1.4c-0.5-0.4-0.9-0.7-1.4-1.1L29.7,3l-0.8-0.4
	l-0.8-0.4l-2,2.2c-0.6-0.2-1.1-0.4-1.7-0.6L24,0.8l-0.9-0.1l-0.9-0.2l-1.2,2.7c-0.3,0-0.6,0-0.9,0c-0.3,0-0.6,0-0.9,0l-1.2-2.7
	l-0.9,0.1L16,0.8l-0.3,2.9c-0.6,0.2-1.1,0.3-1.7,0.6l-2-2.2l-0.8,0.4L10.3,3l0.6,2.9c-0.5,0.3-1,0.7-1.4,1.1L6.8,5.5L6.1,6.1
	L5.5,6.8l1.4,2.6c-0.4,0.5-0.7,0.9-1.1,1.4L3,10.3l-0.4,0.8l-0.4,0.8l2.2,2c-0.2,0.6-0.4,1.1-0.6,1.7L0.8,16l-0.1,0.9l-0.1,0.9
	l2.7,1.2c0,0.3,0,0.6,0,0.9s0,0.6,0,0.9l-2.7,1.2l0.1,0.9L0.8,24l2.9,0.3c0.2,0.6,0.3,1.1,0.6,1.7l-2.2,2l0.4,0.8L3,29.7l2.9-0.6
	c0.3,0.5,0.7,1,1.1,1.4l-1.4,2.6l0.7,0.7l0.7,0.7l2.6-1.4c0.5,0.4,0.9,0.7,1.4,1.1L10.3,37l0.8,0.4l0.8,0.4l2-2.2
	c0.6,0.2,1.1,0.4,1.7,0.6l0.3,2.9l0.9,0.1l0.9,0.1l1.2-2.7c0.3,0,0.6,0,0.9,0c0.3,0,0.6,0,0.9,0l1.2,2.7l0.9-0.1l0.9-0.1l0.3-2.9
	c0.6-0.2,1.1-0.3,1.7-0.6l2,2.2l0.8-0.4l0.8-0.4l-0.6-2.9c0.5-0.3,1-0.7,1.4-1.1l2.6,1.4l0.7-0.7l0.7-0.7l-1.4-2.6
	c0.4-0.5,0.7-0.9,1.1-1.4l2.9,0.6l0.4-0.8l0.4-0.8l-2.2-2c0.2-0.6,0.4-1.1,0.6-1.7l2.9-0.3l0.1-0.9l0.1-0.9L36.8,20.9z M24.6,7
	c1.9,0.7,3.7,1.8,5.2,3.3s2.6,3.3,3.3,5.2L23.4,18c-0.2-0.3-0.4-0.5-0.6-0.8c-0.2-0.2-0.5-0.4-0.8-0.6L24.6,7z M22.5,6.4l-2.6,9.6
	c-0.6,0-1.3,0.2-1.9,0.5L11,9.5C14.3,6.7,18.5,5.7,22.5,6.4z M6.4,22.5c-0.7-4,0.3-8.2,3.1-11.5l7.1,7.1c-0.3,0.6-0.5,1.2-0.5,1.9
	L6.4,22.5z M15.4,33c-1.9-0.7-3.7-1.8-5.2-3.3S7.6,26.5,7,24.6l9.6-2.6c0.2,0.3,0.4,0.5,0.6,0.8c0.2,0.2,0.5,0.4,0.8,0.6L15.4,33z
	 M17.5,33.6l2.6-9.6c0.6,0,1.3-0.2,1.9-0.5l7.1,7.1C25.7,33.3,21.5,34.3,17.5,33.6z M30.5,29l-7.1-7.1c0.3-0.6,0.5-1.2,0.5-1.9
	l9.6-2.6C34.3,21.5,33.3,25.7,30.5,29z"/>
</svg>
