<?xml version="1.0" encoding="utf-8"?>
<!-- Generator: Adobe Illustrator 28.0.0, SVG Export Plug-In . SVG Version: 6.00 Build 0)  -->
<svg version="1.1"
	 id="svg2" xmlns:rdf="http://www.w3.org/1999/02/22-rdf-syntax-ns#" xmlns:svg="http://www.w3.org/2000/svg" xmlns:inkscape="http://www.inkscape.org/namespaces/inkscape" xmlns:sodipodi="http://sodipodi.sourceforge.net/DTD/sodipodi-0.dtd" xmlns:cc="http://creativecommons.org/ns#" xmlns:dc="http://purl.org/dc/elements/1.1/" inkscape:export-filename="/Users/tevabaude/Downloads/Logo Paris 2024.png" inkscape:export-xdpi="718" inkscape:export-ydpi="718" inkscape:version="0.92.2 5c3e80d, 2017-08-06" sodipodi:docname="Logo Paris 2024.svg"
	 xmlns="http://www.w3.org/2000/svg" xmlns:xlink="http://www.w3.org/1999/xlink" x="0px" y="0px" viewBox="0 0 131.8 85"
	 style="enable-background:new 0 0 131.8 85;" xml:space="preserve">
<style type="text/css">
	.st0{fill:#FCB030;}
	.st1{fill:#00A652;}
	.st2{fill:#0082C7;}
	.st3{fill:#E8384F;}
</style>
<sodipodi:namedview  bordercolor="#666666" borderopacity="1" fit-margin-bottom="5" fit-margin-left="5" fit-margin-right="5" fit-margin-top="5" gridtolerance="10" guidetolerance="10" id="namedview4" inkscape:current-layer="g10" inkscape:cx="-261.47305" inkscape:cy="185.76267" inkscape:pageopacity="0" inkscape:pageshadow="2" inkscape:window-height="682" inkscape:window-maximized="1" inkscape:window-width="1280" inkscape:window-x="0" inkscape:window-y="1" inkscape:zoom="0.84096496" objecttolerance="10" pagecolor="#ffffff" showgrid="false">
	</sodipodi:namedview>
<g id="g10" transform="matrix(1.3333333,0,0,-1.3333333,-188.3856,697.58692)" inkscape:groupmode="layer" inkscape:label="Paris2024_Nouvel_embleme_Dossier_de_presse">
	<g id="g1068">
		<g id="g5564" transform="translate(205.5795,388.4116)">
			<path id="path5566" inkscape:connector-curvature="0" class="st0" d="M-15.5,98.8c0-4.3-3.5-7.8-7.8-7.8c-4.3,0-7.8,3.5-7.8,7.8
				c0,4.3,3.5,7.8,7.8,7.8C-19,106.5-15.5,103.1-15.5,98.8 M-23.3,105.2c-3.6,0-6.5-2.9-6.5-6.5c0-3.6,2.9-6.5,6.5-6.5
				c3.6,0,6.5,2.9,6.5,6.5C-16.8,102.3-19.7,105.2-23.3,105.2"/>
		</g>
		<g id="g5568" transform="translate(227.4189,388.4116)">
			<path id="path5570" inkscape:connector-curvature="0" class="st1" d="M-20.5,98.8c0-4.3-3.5-7.8-7.8-7.8c-4.3,0-7.8,3.5-7.8,7.8
				c0,4.3,3.5,7.8,7.8,7.8C-24,106.5-20.5,103.1-20.5,98.8 M-28.3,105.2c-3.6,0-6.5-2.9-6.5-6.5c0-3.6,2.9-6.5,6.5-6.5
				c3.6,0,6.5,2.9,6.5,6.5C-21.8,102.3-24.7,105.2-28.3,105.2"/>
		</g>
		<g id="g5572" transform="translate(184.5818,407.7274)">
			<path id="path5574" inkscape:connector-curvature="0" class="st2" d="M-10.7,94.3c-4.3,0-7.8-3.5-7.8-7.8c0-4.3,3.5-7.8,7.8-7.8
				c0.2,0,0.4,0,0.7,0c0,0.2,0,0.4,0,0.6c0,0.2,0,0.5,0,0.7c-0.2,0-0.4,0-0.7,0c-3.6,0-6.5,2.9-6.5,6.5c0,3.6,2.9,6.5,6.5,6.5
				c3.6,0,6.5-2.9,6.5-6.5c0-2.9-1.9-5.3-4.5-6.1c0-0.3-0.1-0.6-0.1-1c0-0.1,0-0.3,0-0.4c3.3,0.9,5.8,3.9,5.8,7.5
				C-2.9,90.9-6.4,94.3-10.7,94.3"/>
		</g>
		<g id="g5576" transform="translate(228.2572,407.7294)">
			<path id="path5578" inkscape:connector-curvature="0" class="st3" d="M-20.7,94.3c-4.1,0-7.4-3.1-7.7-7.1c0.4,0,0.9-0.1,1.3-0.2
				c0.2,3.4,3,6.1,6.5,6.1c3.6,0,6.5-2.9,6.5-6.5c0-3.6-2.9-6.5-6.5-6.5c-3.2,0-5.9,2.4-6.4,5.5c-0.4,0.1-0.9,0.2-1.3,0.3
				c0.3-4,3.7-7.1,7.7-7.1c4.3,0,7.8,3.5,7.8,7.8C-13,90.9-16.4,94.3-20.7,94.3"/>
		</g>
		<g id="g5580" transform="translate(206.4196,407.7294)">
			<path id="path5582" inkscape:connector-curvature="0" d="M-15.7,94.3c-4.1,0-7.4-3.1-7.7-7.1c0.4,0,0.9-0.1,1.3-0.2
				c0.2,3.4,3,6.1,6.5,6.1c3.6,0,6.5-2.9,6.5-6.5c0-2.9-1.9-5.3-4.5-6.1c0-0.3-0.1-0.6-0.1-1c0-0.1,0-0.3,0-0.4
				c3.3,0.9,5.8,3.9,5.8,7.5C-7.9,90.9-11.4,94.3-15.7,94.3"/>
		</g>
		<g id="g5584" transform="translate(207.2594,388.4116)">
			<path id="path5586" inkscape:connector-curvature="0" d="M-15.9,98.8c0,0.2,0,0.5,0,0.7c-0.2,0-0.4,0-0.7,0
				c-3.2,0-5.9,2.4-6.4,5.5c-0.4,0.1-0.9,0.2-1.3,0.3c0.3-4,3.7-7.1,7.7-7.1c0.2,0,0.5,0,0.7,0C-15.9,98.4-15.9,98.6-15.9,98.8"/>
		</g>
	</g>
</g>
</svg>
