<?xml version="1.0" encoding="utf-8"?>
<!-- Generator: Adobe Illustrator 27.8.0, SVG Export Plug-In . SVG Version: 6.00 Build 0)  -->
<svg version="1.1" xmlns="http://www.w3.org/2000/svg" xmlns:xlink="http://www.w3.org/1999/xlink" x="0px" y="0px"
	 viewBox="0 0 189.47 156.63" enable-background="new 0 0 189.47 156.63" xml:space="preserve">
<pattern  x="-1493.72" y="-406.72" width="72" height="72" patternUnits="userSpaceOnUse" id="Plage_de_gravier_USGS_22" viewBox="0.35 -72 72 72" overflow="visible">
	<g>
		<rect x="0.35" y="-72" fill="none" width="72" height="72"/>
		<g>
			<path fill="#FFFFFF" d="M21.35-68.9c-0.09,0-0.18-0.04-0.25-0.1c-0.06-0.07-0.1-0.16-0.1-0.25s0.04-0.18,0.1-0.25
				c0.14-0.13,0.36-0.13,0.49,0c0.07,0.07,0.11,0.16,0.11,0.25s-0.04,0.18-0.1,0.25C21.53-68.94,21.44-68.9,21.35-68.9z"/>
			<path fill="#FFFFFF" d="M20.35-63.65c-0.09,0-0.18-0.04-0.25-0.1C20.04-63.82,20-63.91,20-64c0-0.1,0.04-0.19,0.11-0.25
				c0.11-0.12,0.35-0.13,0.49,0c0.06,0.06,0.1,0.15,0.1,0.25c0,0.09-0.04,0.18-0.1,0.25C20.53-63.69,20.45-63.65,20.35-63.65z"/>
			<path fill="#FFFFFF" d="M20.6-61.4c-0.09,0-0.18-0.04-0.25-0.1c-0.06-0.07-0.1-0.16-0.1-0.25c0-0.09,0.04-0.18,0.1-0.25
				c0.13-0.13,0.36-0.13,0.5,0c0.06,0.07,0.1,0.16,0.1,0.25c0,0.09-0.04,0.18-0.1,0.25C20.78-61.44,20.69-61.4,20.6-61.4z"/>
			<path fill="#FFFFFF" d="M15.6-61.4c-0.09,0-0.18-0.04-0.25-0.1c-0.06-0.07-0.1-0.16-0.1-0.25c0-0.1,0.04-0.18,0.1-0.25
				c0.12-0.12,0.36-0.13,0.5,0c0.06,0.07,0.1,0.16,0.1,0.25c0,0.09-0.04,0.18-0.1,0.25C15.78-61.44,15.69-61.4,15.6-61.4z"/>
			<path fill="#FFFFFF" d="M23.1-51.9c-0.09,0-0.18-0.04-0.25-0.1c-0.06-0.07-0.1-0.16-0.1-0.25c0-0.09,0.04-0.18,0.1-0.25
				c0.14-0.13,0.36-0.13,0.49,0c0.07,0.07,0.11,0.16,0.11,0.25c0,0.09-0.04,0.18-0.1,0.25C23.28-51.94,23.19-51.9,23.1-51.9z"/>
			<path fill="#FFFFFF" d="M15.6-48.9c-0.09,0-0.18-0.04-0.25-0.1c-0.06-0.07-0.1-0.16-0.1-0.25c0-0.1,0.04-0.19,0.11-0.25
				c0.11-0.12,0.35-0.13,0.49,0c0.06,0.06,0.1,0.15,0.1,0.25c0,0.09-0.04,0.18-0.1,0.25C15.78-48.94,15.69-48.9,15.6-48.9z"/>
			<path fill="#FFFFFF" d="M14.35-47.9c-0.09,0-0.18-0.04-0.25-0.1c-0.06-0.07-0.1-0.16-0.1-0.25c0-0.09,0.04-0.18,0.1-0.25
				c0.14-0.13,0.36-0.13,0.49,0c0.07,0.07,0.11,0.16,0.11,0.25c0,0.09-0.04,0.18-0.1,0.25C14.53-47.94,14.45-47.9,14.35-47.9z"/>
			<path fill="#FFFFFF" d="M24.35-44.9c-0.09,0-0.18-0.04-0.25-0.1c-0.06-0.07-0.1-0.16-0.1-0.25c0-0.1,0.04-0.19,0.11-0.25
				c0.11-0.12,0.36-0.13,0.49,0c0.06,0.07,0.1,0.16,0.1,0.25c0,0.09-0.04,0.18-0.1,0.24C24.53-44.94,24.44-44.9,24.35-44.9z"/>
			<path fill="#FFFFFF" d="M31.1-46.15c-0.09,0-0.18-0.04-0.25-0.1c-0.06-0.07-0.1-0.16-0.1-0.25c0-0.09,0.04-0.18,0.1-0.25
				c0.14-0.13,0.36-0.13,0.49,0c0.07,0.07,0.11,0.16,0.11,0.25c0,0.09-0.04,0.18-0.1,0.25C31.28-46.19,31.19-46.15,31.1-46.15z"/>
			<path fill="#FFFFFF" d="M31.6-48.65c-0.09,0-0.18-0.04-0.25-0.1c-0.06-0.07-0.1-0.16-0.1-0.25c0-0.1,0.04-0.19,0.11-0.25
				c0.12-0.13,0.35-0.13,0.49,0c0.06,0.06,0.1,0.15,0.1,0.25c0,0.09-0.04,0.18-0.1,0.25C31.78-48.69,31.7-48.65,31.6-48.65z"/>
			<path fill="#FFFFFF" d="M29.6-53.65c-0.09,0-0.18-0.04-0.25-0.1c-0.06-0.07-0.1-0.16-0.1-0.25c0-0.09,0.04-0.18,0.1-0.25
				c0.14-0.13,0.36-0.13,0.49,0c0.07,0.07,0.11,0.16,0.11,0.25c0,0.09-0.04,0.18-0.1,0.25C29.78-53.69,29.69-53.65,29.6-53.65z"/>
			<path fill="#FFFFFF" d="M34.35-52.15c-0.09,0-0.18-0.04-0.25-0.1c-0.06-0.07-0.1-0.16-0.1-0.25c0-0.09,0.04-0.18,0.1-0.25
				c0.14-0.13,0.36-0.13,0.49,0c0.07,0.07,0.11,0.16,0.11,0.25c0,0.09-0.04,0.18-0.1,0.25C34.53-52.19,34.44-52.15,34.35-52.15z"/>
			<path fill="#FFFFFF" d="M31.85-57.15c-0.09,0-0.18-0.04-0.25-0.1c-0.06-0.07-0.1-0.16-0.1-0.25c0-0.09,0.04-0.18,0.1-0.25
				c0.14-0.13,0.36-0.13,0.49,0c0.07,0.07,0.11,0.16,0.11,0.25c0,0.09-0.04,0.18-0.1,0.25C32.03-57.19,31.94-57.15,31.85-57.15z"/>
			<path fill="#FFFFFF" d="M32.1-60.15c-0.09,0-0.18-0.04-0.25-0.1c-0.06-0.07-0.1-0.16-0.1-0.25c0-0.09,0.04-0.18,0.1-0.25
				c0.14-0.13,0.36-0.13,0.5,0c0.06,0.07,0.1,0.16,0.1,0.25c0,0.09-0.04,0.18-0.1,0.25C32.28-60.19,32.19-60.15,32.1-60.15z"/>
			<path fill="#FFFFFF" d="M32.6-64.9c-0.09,0-0.18-0.04-0.25-0.1c-0.06-0.07-0.1-0.16-0.1-0.25s0.04-0.18,0.1-0.25
				c0.14-0.13,0.36-0.13,0.49,0c0.07,0.07,0.11,0.16,0.11,0.25s-0.04,0.18-0.1,0.25C32.78-64.94,32.69-64.9,32.6-64.9z"/>
			<path fill="#FFFFFF" d="M32.35-68.9c-0.09,0-0.18-0.04-0.25-0.1c-0.06-0.07-0.1-0.16-0.1-0.25c0-0.1,0.04-0.19,0.11-0.25
				c0.12-0.13,0.35-0.13,0.49,0c0.06,0.06,0.1,0.15,0.1,0.25c0,0.09-0.04,0.18-0.1,0.25C32.53-68.94,32.44-68.9,32.35-68.9z"/>
			<path fill="#FFFFFF" d="M34.35-70.65c-0.09,0-0.18-0.04-0.25-0.11C34.04-70.81,34-70.91,34-71c0-0.1,0.04-0.19,0.11-0.25
				c0.12-0.13,0.36-0.13,0.49,0c0.06,0.06,0.1,0.15,0.1,0.25c0,0.09-0.04,0.19-0.11,0.25C34.53-70.69,34.44-70.65,34.35-70.65z"/>
			<path fill="#FFFFFF" d="M41.85-64.9c-0.09,0-0.18-0.04-0.25-0.1c-0.07-0.07-0.1-0.16-0.1-0.25s0.04-0.18,0.1-0.25
				c0.15-0.14,0.36-0.13,0.49,0c0.07,0.07,0.11,0.16,0.11,0.25s-0.04,0.18-0.1,0.25C42.03-64.94,41.94-64.9,41.85-64.9z"/>
			<path fill="#FFFFFF" d="M45.85-65.15c-0.09,0-0.18-0.04-0.25-0.1c-0.06-0.07-0.1-0.15-0.1-0.25s0.04-0.18,0.1-0.25
				c0.14-0.13,0.36-0.13,0.49,0c0.07,0.07,0.11,0.16,0.11,0.25s-0.04,0.18-0.1,0.25C46.03-65.19,45.94-65.15,45.85-65.15z"/>
			<path fill="#FFFFFF" d="M42.85-58.4c-0.09,0-0.18-0.04-0.25-0.1c-0.06-0.07-0.1-0.16-0.1-0.25c0-0.1,0.04-0.19,0.11-0.25
				c0.12-0.13,0.35-0.13,0.49,0c0.06,0.06,0.1,0.15,0.1,0.25c0,0.09-0.04,0.18-0.1,0.25C43.03-58.44,42.94-58.4,42.85-58.4z"/>
			<path fill="#FFFFFF" d="M47.35-57.65c-0.09,0-0.18-0.04-0.25-0.1C47.04-57.82,47-57.91,47-58c0-0.1,0.04-0.19,0.11-0.25
				c0.12-0.13,0.35-0.13,0.49,0c0.06,0.07,0.1,0.16,0.1,0.25c0,0.09-0.03,0.17-0.1,0.24C47.53-57.69,47.44-57.65,47.35-57.65z"/>
			<path fill="#FFFFFF" d="M47.35-55.65c-0.09,0-0.18-0.04-0.25-0.1C47.04-55.82,47-55.91,47-56c0-0.1,0.04-0.19,0.11-0.25
				c0.12-0.13,0.36-0.13,0.49,0c0.06,0.07,0.1,0.16,0.1,0.25c0,0.09-0.04,0.17-0.1,0.24C47.53-55.69,47.44-55.65,47.35-55.65z"/>
			<path fill="#FFFFFF" d="M39.35-51.15c-0.09,0-0.18-0.04-0.25-0.1c-0.06-0.07-0.1-0.16-0.1-0.25c0-0.09,0.04-0.18,0.1-0.25
				c0.14-0.13,0.36-0.13,0.49,0c0.07,0.06,0.11,0.16,0.11,0.25c0,0.09-0.04,0.18-0.1,0.25C39.53-51.19,39.44-51.15,39.35-51.15z"/>
			<path fill="#FFFFFF" d="M50.6-58.4c-0.09,0-0.18-0.04-0.25-0.1c-0.07-0.07-0.1-0.16-0.1-0.25c0-0.09,0.03-0.18,0.1-0.25
				c0.14-0.13,0.37-0.13,0.5,0c0.06,0.07,0.1,0.16,0.1,0.25c0,0.09-0.04,0.18-0.1,0.25C50.78-58.44,50.69-58.4,50.6-58.4z"/>
			<path fill="#FFFFFF" d="M52.6-59.9c-0.09,0-0.18-0.04-0.25-0.11c-0.06-0.06-0.1-0.15-0.1-0.24c0-0.1,0.04-0.19,0.11-0.25
				c0.12-0.12,0.35-0.13,0.49,0c0.06,0.06,0.1,0.15,0.1,0.25c0,0.09-0.04,0.18-0.1,0.25C52.78-59.94,52.69-59.9,52.6-59.9z"/>
			<path fill="#FFFFFF" d="M55.1-60.9c-0.09,0-0.18-0.04-0.25-0.11c-0.06-0.06-0.1-0.15-0.1-0.24c0-0.1,0.04-0.19,0.11-0.25
				c0.12-0.13,0.35-0.13,0.49,0c0.06,0.06,0.1,0.15,0.1,0.25c0,0.09-0.04,0.18-0.1,0.25C55.28-60.94,55.19-60.9,55.1-60.9z"/>
			<path fill="#FFFFFF" d="M56.85-71.15c-0.09,0-0.18-0.04-0.25-0.1c-0.06-0.07-0.1-0.16-0.1-0.25s0.04-0.18,0.1-0.25
				c0.12-0.13,0.37-0.13,0.5,0.01c0.06,0.06,0.1,0.15,0.1,0.24s-0.04,0.18-0.1,0.25C57.03-71.19,56.94-71.15,56.85-71.15z"/>
			<path fill="#FFFFFF" d="M68.35-68.9c-0.09,0-0.18-0.04-0.25-0.1c-0.06-0.07-0.1-0.16-0.1-0.25c0-0.1,0.04-0.19,0.11-0.25
				c0.11-0.12,0.35-0.13,0.49,0c0.06,0.06,0.1,0.15,0.1,0.25c0,0.09-0.04,0.18-0.1,0.25C68.53-68.94,68.45-68.9,68.35-68.9z"/>
			<path fill="#FFFFFF" d="M68.35-61.65c-0.09,0-0.18-0.04-0.25-0.11C68.04-61.82,68-61.91,68-62c0-0.09,0.04-0.18,0.1-0.25
				c0.13-0.13,0.36-0.13,0.5,0c0.06,0.07,0.1,0.16,0.1,0.25c0,0.1-0.04,0.18-0.11,0.25C68.53-61.69,68.44-61.65,68.35-61.65z"/>
			<path fill="#FFFFFF" d="M64.6-59.65c-0.09,0-0.18-0.04-0.25-0.1c-0.06-0.07-0.1-0.16-0.1-0.25c0-0.09,0.04-0.18,0.1-0.25
				c0.13-0.13,0.36-0.13,0.49,0c0.07,0.07,0.11,0.16,0.11,0.25c0,0.09-0.04,0.18-0.1,0.25C64.78-59.69,64.69-59.65,64.6-59.65z"/>
			<path fill="#FFFFFF" d="M65.6-56.15c-0.09,0-0.18-0.04-0.25-0.1c-0.06-0.07-0.1-0.16-0.1-0.25c0-0.1,0.04-0.18,0.1-0.25
				c0.12-0.12,0.37-0.13,0.5,0c0.06,0.07,0.1,0.16,0.1,0.25c0,0.09-0.04,0.18-0.1,0.25C65.78-56.19,65.69-56.15,65.6-56.15z"/>
			<path fill="#FFFFFF" d="M64.35-52.15c-0.09,0-0.18-0.04-0.25-0.11c-0.06-0.06-0.1-0.15-0.1-0.24c0-0.09,0.04-0.18,0.1-0.25
				c0.13-0.13,0.37-0.13,0.5,0c0.06,0.07,0.1,0.16,0.1,0.25c0,0.1-0.04,0.18-0.11,0.25C64.53-52.19,64.44-52.15,64.35-52.15z"/>
			<path fill="#FFFFFF" d="M66.6-52.15c-0.09,0-0.18-0.04-0.25-0.1c-0.06-0.07-0.1-0.16-0.1-0.25c0-0.1,0.04-0.19,0.11-0.25
				c0.11-0.12,0.35-0.13,0.49,0c0.06,0.06,0.1,0.15,0.1,0.25c0,0.09-0.04,0.18-0.1,0.25C66.78-52.19,66.69-52.15,66.6-52.15z"/>
			<path fill="#FFFFFF" d="M68.35-50.65c-0.09,0-0.18-0.04-0.25-0.1C68.04-50.82,68-50.91,68-51c0-0.09,0.04-0.18,0.1-0.25
				c0.13-0.13,0.36-0.13,0.5,0c0.06,0.07,0.1,0.16,0.1,0.25c0,0.09-0.04,0.18-0.1,0.25C68.53-50.69,68.44-50.65,68.35-50.65z"/>
			<path fill="#FFFFFF" d="M7.35-19.65c-0.09,0-0.18-0.04-0.25-0.1C7.04-19.82,7-19.91,7-20s0.04-0.18,0.1-0.25
				c0.12-0.12,0.36-0.13,0.5,0c0.06,0.07,0.1,0.16,0.1,0.25s-0.04,0.18-0.1,0.25C7.53-19.69,7.44-19.65,7.35-19.65z"/>
			<path fill="#FFFFFF" d="M7.6-17.4c-0.09,0-0.18-0.04-0.25-0.1c-0.06-0.07-0.1-0.16-0.1-0.25s0.04-0.18,0.1-0.25
				c0.12-0.13,0.36-0.13,0.5,0c0.06,0.07,0.1,0.16,0.1,0.25s-0.04,0.18-0.1,0.25C7.78-17.44,7.69-17.4,7.6-17.4z"/>
			<path fill="#FFFFFF" d="M2.6-17.4c-0.09,0-0.18-0.04-0.25-0.1c-0.06-0.07-0.1-0.16-0.1-0.25s0.04-0.18,0.1-0.25
				c0.12-0.12,0.36-0.13,0.5,0c0.06,0.07,0.1,0.16,0.1,0.25s-0.04,0.18-0.1,0.25C2.78-17.44,2.69-17.4,2.6-17.4z"/>
			<path fill="#FFFFFF" d="M10.1-7.9c-0.09,0-0.18-0.04-0.25-0.1c-0.06-0.07-0.1-0.16-0.1-0.25s0.04-0.18,0.1-0.25
				c0.13-0.13,0.36-0.13,0.49,0c0.07,0.07,0.11,0.16,0.11,0.25S10.41-8.07,10.35-8C10.28-7.94,10.19-7.9,10.1-7.9z"/>
			<path fill="#FFFFFF" d="M1.35-3.9C1.26-3.9,1.17-3.94,1.1-4C1.04-4.07,1-4.16,1-4.25C1-4.34,1.04-4.43,1.1-4.5
				c0.12-0.12,0.36-0.13,0.5,0c0.06,0.07,0.1,0.16,0.1,0.25C1.7-4.16,1.66-4.07,1.6-4C1.53-3.94,1.44-3.9,1.35-3.9z"/>
			<path fill="#FFFFFF" d="M11.35-0.9c-0.09,0-0.18-0.04-0.25-0.1C11.04-1.07,11-1.16,11-1.25c0-0.09,0.04-0.18,0.1-0.25
				c0.12-0.12,0.37-0.13,0.5,0c0.06,0.07,0.1,0.16,0.1,0.25c0,0.09-0.04,0.18-0.1,0.25C11.53-0.94,11.44-0.9,11.35-0.9z"/>
			<path fill="#FFFFFF" d="M18.6-4.65c-0.09,0-0.18-0.04-0.25-0.1c-0.06-0.07-0.1-0.16-0.1-0.25c0-0.09,0.04-0.19,0.1-0.25
				c0.12-0.12,0.36-0.13,0.49,0c0.07,0.07,0.11,0.16,0.11,0.25c0,0.09-0.04,0.18-0.1,0.25C18.78-4.69,18.69-4.65,18.6-4.65z"/>
			<path fill="#FFFFFF" d="M16.6-9.65c-0.09,0-0.18-0.04-0.25-0.1c-0.06-0.07-0.1-0.16-0.1-0.25c0-0.09,0.04-0.18,0.1-0.25
				c0.12-0.13,0.36-0.13,0.5,0c0.06,0.07,0.1,0.16,0.1,0.25c0,0.09-0.04,0.18-0.1,0.25C16.78-9.69,16.69-9.65,16.6-9.65z"/>
			<path fill="#FFFFFF" d="M19.85-14.15c-0.09,0-0.18-0.04-0.25-0.1c-0.06-0.07-0.1-0.16-0.1-0.25c0-0.1,0.04-0.19,0.11-0.25
				c0.12-0.12,0.36-0.13,0.49,0c0.06,0.06,0.1,0.15,0.1,0.25c0,0.09-0.04,0.18-0.1,0.25C20.03-14.19,19.94-14.15,19.85-14.15z"/>
			<path fill="#FFFFFF" d="M19.1-16.15c-0.09,0-0.18-0.04-0.25-0.1c-0.06-0.07-0.1-0.16-0.1-0.25c0-0.1,0.04-0.19,0.11-0.25
				c0.11-0.12,0.35-0.13,0.49,0c0.06,0.06,0.1,0.15,0.1,0.25c0,0.09-0.04,0.18-0.1,0.25C19.28-16.19,19.19-16.15,19.1-16.15z"/>
			<path fill="#FFFFFF" d="M16.6-17.15c-0.09,0-0.18-0.04-0.25-0.1c-0.06-0.07-0.1-0.16-0.1-0.25c0-0.1,0.04-0.19,0.11-0.25
				c0.11-0.12,0.35-0.13,0.49,0c0.06,0.06,0.1,0.15,0.1,0.25c0,0.09-0.04,0.18-0.1,0.25C16.78-17.19,16.69-17.15,16.6-17.15z"/>
			<path fill="#FFFFFF" d="M19.6-20.9c-0.09,0-0.18-0.04-0.25-0.1c-0.06-0.07-0.1-0.16-0.1-0.25c0-0.1,0.04-0.19,0.11-0.25
				c0.12-0.12,0.36-0.13,0.49,0c0.06,0.06,0.1,0.15,0.1,0.25c0,0.09-0.04,0.18-0.1,0.25C19.78-20.94,19.69-20.9,19.6-20.9z"/>
			<path fill="#FFFFFF" d="M19.35-24.9c-0.09,0-0.18-0.04-0.25-0.1c-0.06-0.07-0.1-0.16-0.1-0.25s0.04-0.18,0.1-0.25
				c0.12-0.12,0.36-0.13,0.5,0c0.06,0.07,0.1,0.16,0.1,0.25s-0.04,0.18-0.1,0.25C19.53-24.94,19.44-24.9,19.35-24.9z"/>
			<path fill="#FFFFFF" d="M16.6-24.65c-0.09,0-0.18-0.04-0.25-0.1c-0.06-0.07-0.1-0.16-0.1-0.25s0.04-0.18,0.1-0.25
				c0.12-0.13,0.36-0.13,0.5,0c0.06,0.07,0.1,0.16,0.1,0.25s-0.04,0.18-0.1,0.25C16.78-24.69,16.69-24.65,16.6-24.65z"/>
			<path fill="#FFFFFF" d="M32.85-21.15c-0.09,0-0.18-0.04-0.25-0.1c-0.06-0.07-0.1-0.16-0.1-0.25c0-0.1,0.04-0.19,0.11-0.25
				c0.12-0.13,0.35-0.13,0.49,0c0.06,0.06,0.1,0.15,0.1,0.25c0,0.09-0.04,0.18-0.1,0.25C33.03-21.19,32.94-21.15,32.85-21.15z"/>
			<path fill="#FFFFFF" d="M27.6-17.65c-0.09,0-0.18-0.04-0.25-0.1c-0.06-0.07-0.1-0.16-0.1-0.25s0.04-0.18,0.1-0.25
				c0.13-0.13,0.36-0.13,0.5,0c0.06,0.07,0.1,0.16,0.1,0.25s-0.04,0.18-0.1,0.25C27.78-17.69,27.69-17.65,27.6-17.65z"/>
			<path fill="#FFFFFF" d="M32.35-16.15c-0.09,0-0.18-0.04-0.25-0.1c-0.06-0.07-0.1-0.16-0.1-0.25s0.04-0.18,0.1-0.25
				c0.13-0.13,0.36-0.13,0.5,0c0.06,0.07,0.1,0.16,0.1,0.25s-0.04,0.18-0.1,0.25C32.53-16.19,32.44-16.15,32.35-16.15z"/>
			<path fill="#FFFFFF" d="M32.35-14.4c-0.09,0-0.18-0.04-0.24-0.1C32.04-14.57,32-14.66,32-14.75c0-0.1,0.04-0.19,0.1-0.25
				c0.13-0.13,0.36-0.13,0.5,0c0.06,0.06,0.1,0.15,0.1,0.25c0,0.09-0.04,0.18-0.1,0.25C32.53-14.44,32.44-14.4,32.35-14.4z"/>
			<path fill="#FFFFFF" d="M34.35-13.65c-0.09,0-0.18-0.04-0.25-0.1C34.04-13.82,34-13.91,34-14s0.04-0.18,0.1-0.25
				c0.13-0.13,0.37-0.13,0.5,0c0.06,0.07,0.1,0.16,0.1,0.25s-0.04,0.18-0.1,0.25C34.53-13.69,34.44-13.65,34.35-13.65z"/>
			<path fill="#FFFFFF" d="M26.35-7.15c-0.09,0-0.18-0.04-0.25-0.1C26.04-7.32,26-7.41,26-7.5c0-0.09,0.04-0.18,0.1-0.25
				c0.14-0.13,0.36-0.13,0.49,0c0.07,0.07,0.11,0.16,0.11,0.25c0,0.09-0.04,0.18-0.1,0.25C26.53-7.19,26.44-7.15,26.35-7.15z"/>
			<path fill="#FFFFFF" d="M36.35-15.65c-0.09,0-0.18-0.04-0.25-0.1C36.04-15.82,36-15.91,36-16s0.04-0.18,0.1-0.25
				c0.15-0.13,0.36-0.13,0.49,0c0.07,0.07,0.11,0.16,0.11,0.25s-0.04,0.18-0.1,0.25C36.53-15.69,36.44-15.65,36.35-15.65z"/>
			<path fill="#FFFFFF" d="M39.6-15.9c-0.09,0-0.18-0.04-0.24-0.1c-0.07-0.07-0.11-0.16-0.11-0.25s0.04-0.18,0.1-0.25
				c0.14-0.13,0.36-0.13,0.5,0c0.06,0.07,0.1,0.16,0.1,0.25s-0.04,0.18-0.1,0.25C39.78-15.94,39.69-15.9,39.6-15.9z"/>
			<path fill="#FFFFFF" d="M42.1-21.15c-0.09,0-0.18-0.04-0.25-0.1c-0.06-0.07-0.1-0.16-0.1-0.25s0.04-0.18,0.1-0.25
				c0.14-0.13,0.36-0.13,0.5,0c0.06,0.07,0.1,0.16,0.1,0.25s-0.04,0.18-0.1,0.25C42.28-21.19,42.19-21.15,42.1-21.15z"/>
			<path fill="#FFFFFF" d="M43.85-27.15c-0.09,0-0.18-0.04-0.25-0.11c-0.06-0.06-0.1-0.15-0.1-0.24s0.04-0.18,0.1-0.25
				c0.13-0.13,0.36-0.13,0.5,0c0.06,0.07,0.1,0.16,0.1,0.25s-0.04,0.18-0.1,0.25C44.03-27.19,43.94-27.15,43.85-27.15z"/>
			<path fill="#FFFFFF" d="M51.35-21.4c-0.09,0-0.18-0.04-0.25-0.1c-0.07-0.08-0.1-0.16-0.1-0.25s0.04-0.18,0.1-0.25
				c0.14-0.14,0.36-0.13,0.5,0c0.06,0.07,0.1,0.16,0.1,0.25s-0.04,0.18-0.1,0.25C51.53-21.44,51.44-21.4,51.35-21.4z"/>
			<path fill="#FFFFFF" d="M52.35-25.4c-0.09,0-0.18-0.04-0.25-0.11c-0.06-0.06-0.1-0.15-0.1-0.24c0-0.1,0.04-0.19,0.11-0.25
				c0.11-0.12,0.35-0.13,0.49,0c0.06,0.06,0.1,0.15,0.1,0.25c0,0.09-0.04,0.18-0.1,0.25C52.53-25.44,52.44-25.4,52.35-25.4z"/>
			<path fill="#FFFFFF" d="M55.35-24.9c-0.1,0-0.19-0.04-0.25-0.11c-0.06-0.06-0.1-0.15-0.1-0.24s0.04-0.19,0.1-0.25
				c0.13-0.13,0.36-0.13,0.49,0c0.07,0.07,0.11,0.15,0.11,0.25c0,0.09-0.04,0.18-0.1,0.25C55.53-24.94,55.44-24.9,55.35-24.9z"/>
			<path fill="#FFFFFF" d="M55.35-17.65c-0.1,0-0.19-0.04-0.25-0.11C55.04-17.82,55-17.91,55-18c0-0.1,0.04-0.19,0.11-0.25
				c0.11-0.12,0.35-0.13,0.49,0c0.06,0.06,0.1,0.15,0.1,0.25c0,0.09-0.04,0.18-0.1,0.25C55.53-17.69,55.44-17.65,55.35-17.65z"/>
			<path fill="#FFFFFF" d="M51.6-15.65c-0.09,0-0.18-0.04-0.25-0.1c-0.06-0.07-0.1-0.16-0.1-0.25s0.04-0.18,0.1-0.25
				c0.13-0.13,0.37-0.13,0.5,0c0.07,0.07,0.1,0.16,0.1,0.25s-0.04,0.18-0.1,0.25C51.78-15.69,51.7-15.65,51.6-15.65z"/>
			<path fill="#FFFFFF" d="M51.35-8.15c-0.09,0-0.18-0.04-0.25-0.1C51.04-8.32,51-8.41,51-8.5s0.03-0.18,0.1-0.24
				c0.15-0.15,0.36-0.14,0.49-0.01c0.07,0.07,0.11,0.16,0.11,0.25s-0.04,0.18-0.1,0.25C51.53-8.19,51.45-8.15,51.35-8.15z"/>
			<path fill="#FFFFFF" d="M53.6-8.15c-0.09,0-0.18-0.04-0.25-0.1c-0.06-0.07-0.1-0.16-0.1-0.25c0-0.1,0.04-0.19,0.11-0.25
				c0.11-0.12,0.36-0.13,0.49,0.01c0.06,0.05,0.1,0.14,0.1,0.24c0,0.09-0.04,0.18-0.1,0.25C53.78-8.19,53.69-8.15,53.6-8.15z"/>
			<path fill="#FFFFFF" d="M56.35-8.9c-0.09,0-0.18-0.04-0.25-0.1C56.04-9.07,56-9.16,56-9.25s0.04-0.18,0.1-0.25
				c0.13-0.13,0.35-0.13,0.49,0c0.07,0.07,0.11,0.16,0.11,0.25S56.66-9.07,56.6-9C56.53-8.94,56.44-8.9,56.35-8.9z"/>
			<path fill="#FFFFFF" d="M58.6-10.4c-0.09,0-0.18-0.04-0.25-0.11c-0.06-0.06-0.1-0.15-0.1-0.24s0.04-0.18,0.1-0.25
				c0.13-0.13,0.36-0.13,0.5,0c0.06,0.07,0.1,0.15,0.1,0.25c0,0.09-0.04,0.18-0.1,0.25C58.78-10.44,58.69-10.4,58.6-10.4z"/>
			<path fill="#FFFFFF" d="M21.35-44.9c-0.09,0-0.18-0.04-0.25-0.1c-0.06-0.07-0.1-0.16-0.1-0.25c0-0.09,0.04-0.18,0.1-0.25
				c0.14-0.13,0.36-0.13,0.49,0c0.07,0.07,0.11,0.16,0.11,0.25c0,0.09-0.04,0.18-0.1,0.25C21.53-44.94,21.44-44.9,21.35-44.9z"/>
			<path fill="#FFFFFF" d="M23.1-47.9c-0.09,0-0.18-0.04-0.25-0.1c-0.06-0.07-0.1-0.16-0.1-0.25c0-0.09,0.04-0.18,0.1-0.25
				c0.14-0.13,0.36-0.13,0.5,0c0.06,0.07,0.1,0.16,0.1,0.25c0,0.09-0.04,0.18-0.1,0.25C23.28-47.94,23.19-47.9,23.1-47.9z"/>
			<path fill="#FFFFFF" d="M39.35-47.15c-0.09,0-0.18-0.04-0.25-0.1c-0.06-0.07-0.1-0.16-0.1-0.25c0-0.09,0.04-0.18,0.1-0.25
				c0.13-0.13,0.37-0.13,0.5,0c0.06,0.07,0.1,0.16,0.1,0.25c0,0.09-0.04,0.18-0.1,0.25C39.53-47.19,39.44-47.15,39.35-47.15z"/>
			<path fill="#FFFFFF" d="M46.6-42.9c-0.09,0-0.18-0.04-0.25-0.1c-0.07-0.07-0.1-0.16-0.1-0.25c0-0.09,0.04-0.18,0.1-0.24
				c0.15-0.15,0.36-0.14,0.49-0.01c0.07,0.07,0.11,0.16,0.11,0.25c0,0.09-0.04,0.18-0.1,0.25C46.78-42.94,46.69-42.9,46.6-42.9z"/>
			<path fill="#FFFFFF" d="M55.6-43.9c-0.09,0-0.18-0.04-0.25-0.1c-0.06-0.07-0.1-0.16-0.1-0.25c0-0.09,0.04-0.18,0.1-0.25
				c0.12-0.12,0.36-0.14,0.5,0c0.06,0.07,0.1,0.16,0.1,0.25c0,0.09-0.04,0.18-0.1,0.25C55.78-43.94,55.69-43.9,55.6-43.9z"/>
			<path fill="#FFFFFF" d="M51.6-46.65c-0.09,0-0.18-0.04-0.25-0.1c-0.06-0.07-0.1-0.16-0.1-0.25c0-0.09,0.04-0.18,0.1-0.25
				c0.13-0.13,0.37-0.13,0.5,0c0.07,0.07,0.1,0.16,0.1,0.25c0,0.09-0.04,0.18-0.1,0.25C51.78-46.69,51.69-46.65,51.6-46.65z"/>
			<path fill="#FFFFFF" d="M52.35-42.4c-0.1,0-0.18-0.04-0.25-0.1c-0.06-0.07-0.1-0.16-0.1-0.25c0-0.09,0.04-0.18,0.1-0.25
				c0.14-0.13,0.36-0.13,0.49,0c0.07,0.07,0.11,0.16,0.11,0.25c0,0.09-0.04,0.18-0.1,0.25C52.53-42.44,52.44-42.4,52.35-42.4z"/>
			<path fill="#FFFFFF" d="M62.85-36.4c-0.09,0-0.18-0.04-0.25-0.1c-0.06-0.07-0.1-0.16-0.1-0.25c0-0.1,0.04-0.19,0.11-0.25
				c0.11-0.12,0.36-0.13,0.49,0.01c0.06,0.05,0.1,0.14,0.1,0.24c0,0.09-0.04,0.18-0.1,0.25C63.03-36.44,62.94-36.4,62.85-36.4z"/>
			<path fill="#FFFFFF" d="M57.1-32.9c-0.09,0-0.18-0.04-0.25-0.1c-0.06-0.07-0.1-0.16-0.1-0.25c0-0.09,0.04-0.18,0.1-0.25
				c0.13-0.13,0.36-0.13,0.49,0c0.07,0.07,0.11,0.16,0.11,0.25c0,0.09-0.04,0.18-0.1,0.25C57.28-32.94,57.19-32.9,57.1-32.9z"/>
			<path fill="#FFFFFF" d="M48.6-34.65c-0.09,0-0.18-0.04-0.24-0.1c-0.07-0.07-0.11-0.16-0.11-0.25c0-0.09,0.04-0.18,0.1-0.25
				c0.12-0.13,0.37-0.13,0.5,0.01c0.06,0.06,0.1,0.14,0.1,0.24c0,0.09-0.04,0.18-0.1,0.25C48.78-34.69,48.69-34.65,48.6-34.65z"/>
			<path fill="#FFFFFF" d="M48.35-30.65c-0.1,0-0.19-0.04-0.25-0.11C48.04-30.82,48-30.91,48-31s0.04-0.18,0.1-0.25
				c0.12-0.12,0.36-0.13,0.5,0c0.06,0.07,0.1,0.16,0.1,0.25s-0.04,0.18-0.1,0.25C48.53-30.69,48.44-30.65,48.35-30.65z"/>
			<path fill="#FFFFFF" d="M53.85-26.9c-0.09,0-0.19-0.04-0.25-0.11c-0.06-0.05-0.1-0.14-0.1-0.24s0.04-0.18,0.11-0.25
				c0.11-0.12,0.35-0.13,0.49,0c0.06,0.07,0.1,0.16,0.1,0.25s-0.04,0.18-0.1,0.25C54.03-26.94,53.94-26.9,53.85-26.9z"/>
			<path fill="#FFFFFF" d="M62.6-23.9c-0.09,0-0.18-0.04-0.25-0.1c-0.06-0.07-0.1-0.16-0.1-0.25c0-0.1,0.04-0.19,0.11-0.25
				c0.11-0.12,0.36-0.13,0.49,0.01c0.06,0.05,0.1,0.14,0.1,0.24c0,0.09-0.04,0.18-0.1,0.25C62.78-23.94,62.69-23.9,62.6-23.9z"/>
			<path fill="#FFFFFF" d="M65.35-20.15c-0.09,0-0.18-0.04-0.25-0.1c-0.06-0.07-0.1-0.16-0.1-0.25c0-0.1,0.04-0.19,0.11-0.25
				c0.11-0.12,0.35-0.13,0.49,0c0.06,0.06,0.1,0.15,0.1,0.25c0,0.09-0.04,0.18-0.1,0.25C65.53-20.19,65.44-20.15,65.35-20.15z"/>
			<path fill="#FFFFFF" d="M69.85-26.9c-0.09,0-0.18-0.04-0.25-0.1c-0.06-0.07-0.1-0.16-0.1-0.25s0.04-0.18,0.1-0.25
				c0.12-0.13,0.36-0.13,0.5,0c0.06,0.07,0.1,0.16,0.1,0.25s-0.04,0.18-0.1,0.25C70.03-26.94,69.94-26.9,69.85-26.9z"/>
			<path fill="#FFFFFF" d="M60.35-32.9c-0.1,0-0.19-0.04-0.25-0.11c-0.06-0.06-0.1-0.15-0.1-0.24c0-0.09,0.04-0.19,0.11-0.25
				c0.12-0.13,0.35-0.13,0.49,0c0.06,0.07,0.1,0.16,0.1,0.25c0,0.09-0.04,0.18-0.1,0.25C60.53-32.94,60.45-32.9,60.35-32.9z"/>
			<path fill="#FFFFFF" d="M32.85-24.9c-0.09,0-0.18-0.04-0.25-0.1c-0.06-0.07-0.1-0.16-0.1-0.25s0.04-0.18,0.1-0.25
				c0.14-0.13,0.36-0.13,0.49,0c0.07,0.07,0.11,0.16,0.11,0.25s-0.04,0.18-0.1,0.25C33.03-24.94,32.94-24.9,32.85-24.9z"/>
			<path fill="#FFFFFF" d="M26.6-34.15c-0.09,0-0.18-0.04-0.25-0.1c-0.06-0.07-0.1-0.16-0.1-0.25c0-0.09,0.04-0.18,0.1-0.25
				c0.14-0.13,0.36-0.13,0.49,0c0.07,0.07,0.11,0.16,0.11,0.25c0,0.09-0.04,0.18-0.1,0.25C26.78-34.19,26.69-34.15,26.6-34.15z"/>
			<path fill="#FFFFFF" d="M30.1-36.4c-0.09,0-0.18-0.04-0.24-0.1c-0.07-0.07-0.11-0.16-0.11-0.25c0-0.1,0.04-0.19,0.11-0.25
				c0.12-0.12,0.36-0.13,0.49,0c0.06,0.06,0.1,0.15,0.1,0.25c0,0.09-0.04,0.18-0.1,0.25C30.28-36.44,30.19-36.4,30.1-36.4z"/>
			<path fill="#FFFFFF" d="M10.85-42.4c-0.09,0-0.18-0.04-0.25-0.1c-0.06-0.07-0.1-0.16-0.1-0.25c0-0.09,0.04-0.18,0.1-0.25
				c0.13-0.12,0.36-0.13,0.49,0c0.07,0.06,0.11,0.15,0.11,0.25c0,0.09-0.04,0.18-0.1,0.25C11.03-42.44,10.94-42.4,10.85-42.4z"/>
			<path fill="#FFFFFF" d="M6.35-40.4c-0.09,0-0.18-0.04-0.25-0.1C6.04-40.57,6-40.66,6-40.75c0-0.09,0.04-0.18,0.1-0.25
				c0.13-0.13,0.36-0.13,0.49,0c0.07,0.06,0.11,0.15,0.11,0.25c0,0.1-0.04,0.18-0.1,0.25C6.53-40.44,6.44-40.4,6.35-40.4z"/>
			<path fill="#FFFFFF" d="M2.85-36.65c-0.09,0-0.18-0.04-0.25-0.1C2.54-36.82,2.5-36.91,2.5-37c0-0.09,0.04-0.18,0.1-0.25
				c0.12-0.13,0.37-0.13,0.5,0c0.07,0.07,0.1,0.16,0.1,0.25c0,0.09-0.03,0.17-0.1,0.24C3.03-36.69,2.94-36.65,2.85-36.65z"/>
			<path fill="#FFFFFF" d="M17.35-29.9c-0.09,0-0.18-0.04-0.25-0.1c-0.06-0.07-0.1-0.16-0.1-0.25c0-0.1,0.04-0.19,0.11-0.25
				c0.13-0.13,0.36-0.13,0.49,0c0.06,0.06,0.1,0.15,0.1,0.25c0,0.09-0.04,0.18-0.1,0.25C17.53-29.94,17.45-29.9,17.35-29.9z"/>
			<path fill="#FFFFFF" d="M13.1-35.9c-0.09,0-0.18-0.04-0.25-0.1c-0.06-0.07-0.1-0.16-0.1-0.25c0-0.1,0.04-0.19,0.11-0.25
				c0.11-0.12,0.35-0.13,0.49,0c0.06,0.06,0.1,0.15,0.1,0.25c0,0.09-0.04,0.18-0.1,0.25C13.28-35.94,13.2-35.9,13.1-35.9z"/>
			<path fill="#FFFFFF" d="M26.85-41.65c-0.09,0-0.18-0.04-0.25-0.1c-0.06-0.07-0.1-0.16-0.1-0.25c0-0.09,0.04-0.18,0.1-0.25
				c0.13-0.13,0.37-0.13,0.5,0c0.06,0.07,0.1,0.16,0.1,0.25c0,0.09-0.04,0.18-0.1,0.25C27.03-41.69,26.94-41.65,26.85-41.65z"/>
			<path fill="#FFFFFF" d="M39.6-41.15c-0.09,0-0.18-0.04-0.25-0.1c-0.06-0.07-0.1-0.16-0.1-0.25c0-0.09,0.04-0.18,0.1-0.25
				c0.13-0.13,0.36-0.13,0.5,0c0.06,0.07,0.1,0.16,0.1,0.25c0,0.09-0.04,0.18-0.1,0.25C39.78-41.19,39.7-41.15,39.6-41.15z"/>
			<path fill="#FFFFFF" d="M38.6-39.15c-0.09,0-0.18-0.04-0.25-0.1c-0.06-0.07-0.1-0.16-0.1-0.25c0-0.09,0.04-0.18,0.1-0.25
				c0.13-0.13,0.37-0.13,0.5,0c0.06,0.07,0.1,0.16,0.1,0.25c0,0.09-0.04,0.18-0.1,0.25C38.78-39.19,38.69-39.15,38.6-39.15z"/>
			<path fill="#FFFFFF" d="M28.35-29.9c-0.09,0-0.18-0.04-0.25-0.1c-0.06-0.07-0.1-0.16-0.1-0.25s0.04-0.18,0.1-0.25
				c0.13-0.13,0.37-0.13,0.5,0c0.06,0.07,0.1,0.16,0.1,0.25s-0.04,0.18-0.1,0.25C28.53-29.94,28.44-29.9,28.35-29.9z"/>
			<path fill="#FFFFFF" d="M6.85-51.4c-0.09,0-0.18-0.04-0.25-0.1c-0.06-0.07-0.1-0.16-0.1-0.25c0-0.09,0.04-0.18,0.1-0.25
				c0.12-0.13,0.36-0.13,0.5,0c0.06,0.07,0.1,0.16,0.1,0.25c0,0.09-0.04,0.18-0.1,0.25C7.03-51.44,6.94-51.4,6.85-51.4z"/>
			<path fill="#FFFFFF" d="M10.1-53.15c-0.09,0-0.18-0.04-0.25-0.1c-0.06-0.07-0.1-0.16-0.1-0.25c0-0.09,0.04-0.18,0.1-0.25
				c0.13-0.13,0.36-0.13,0.49,0c0.07,0.07,0.11,0.16,0.11,0.25c0,0.09-0.04,0.18-0.1,0.25C10.28-53.19,10.19-53.15,10.1-53.15z"/>
			<path fill="#FFFFFF" d="M12.1-48.4c-0.09,0-0.18-0.04-0.25-0.1c-0.06-0.07-0.1-0.16-0.1-0.25c0-0.1,0.04-0.19,0.11-0.25
				c0.11-0.12,0.35-0.13,0.49,0c0.06,0.06,0.1,0.15,0.1,0.25c0,0.09-0.04,0.18-0.1,0.25C12.28-48.44,12.2-48.4,12.1-48.4z"/>
			<path fill="#FFFFFF" d="M3.35-46.15c-0.09,0-0.18-0.04-0.25-0.1C3.04-46.32,3-46.41,3-46.5c0-0.09,0.04-0.18,0.1-0.25
				c0.12-0.12,0.37-0.13,0.5,0c0.06,0.07,0.1,0.16,0.1,0.25c0,0.09-0.04,0.18-0.1,0.25C3.53-46.19,3.44-46.15,3.35-46.15z"/>
			<path fill="#FFFFFF" d="M64.6-42.4c-0.09,0-0.18-0.04-0.24-0.1c-0.07-0.07-0.11-0.16-0.11-0.25c0-0.09,0.04-0.18,0.1-0.25
				c0.13-0.13,0.36-0.13,0.49,0c0.07,0.07,0.11,0.16,0.11,0.25c0,0.09-0.04,0.18-0.1,0.25C64.78-42.44,64.69-42.4,64.6-42.4z"/>
			<path fill="#FFFFFF" d="M69.85-42.15c-0.09,0-0.18-0.04-0.25-0.1c-0.06-0.07-0.1-0.16-0.1-0.25c0-0.09,0.04-0.19,0.11-0.25
				c0.11-0.12,0.35-0.13,0.49,0c0.06,0.06,0.1,0.15,0.1,0.25c0,0.09-0.04,0.18-0.1,0.25C70.03-42.19,69.95-42.15,69.85-42.15z"/>
			<path fill="#FFFFFF" d="M1.85-62.9c-0.09,0-0.18-0.04-0.25-0.1c-0.06-0.07-0.1-0.16-0.1-0.25c0-0.09,0.04-0.18,0.1-0.25
				c0.12-0.12,0.37-0.13,0.5,0c0.06,0.07,0.1,0.16,0.1,0.25c0,0.09-0.04,0.18-0.1,0.25C2.03-62.94,1.94-62.9,1.85-62.9z"/>
			<path fill="#FFFFFF" d="M16.85-65.9c-0.09,0-0.18-0.04-0.25-0.1c-0.06-0.07-0.1-0.16-0.1-0.25c0-0.1,0.04-0.18,0.1-0.25
				c0.12-0.12,0.36-0.13,0.5,0c0.06,0.07,0.1,0.16,0.1,0.25s-0.04,0.18-0.1,0.25C17.03-65.94,16.94-65.9,16.85-65.9z"/>
			<path fill="#FFFFFF" d="M4.1-65.9c-0.09,0-0.18-0.04-0.25-0.1c-0.06-0.07-0.1-0.16-0.1-0.25s0.04-0.18,0.1-0.25
				c0.13-0.13,0.36-0.13,0.49,0c0.07,0.07,0.11,0.16,0.11,0.25S4.41-66.07,4.35-66C4.28-65.94,4.19-65.9,4.1-65.9z"/>
			<path fill="#FFFFFF" d="M13.1-57.65c-0.09,0-0.18-0.04-0.25-0.1c-0.06-0.07-0.1-0.16-0.1-0.25c0-0.09,0.04-0.18,0.1-0.25
				c0.13-0.13,0.36-0.13,0.49,0c0.07,0.07,0.11,0.16,0.11,0.25c0,0.09-0.04,0.18-0.1,0.25C13.28-57.69,13.19-57.65,13.1-57.65z"/>
			<path fill="#FFFFFF" d="M18.85-52.65c-0.09,0-0.18-0.04-0.25-0.1c-0.06-0.07-0.1-0.16-0.1-0.25c0-0.09,0.04-0.19,0.1-0.25
				c0.13-0.13,0.36-0.13,0.49,0c0.07,0.07,0.11,0.16,0.11,0.25c0,0.09-0.04,0.18-0.1,0.25C19.03-52.69,18.94-52.65,18.85-52.65z"/>
			<path fill="#FFFFFF" d="M21.6-34.9c-0.09,0-0.18-0.04-0.25-0.1c-0.06-0.07-0.1-0.16-0.1-0.25c0-0.09,0.04-0.19,0.1-0.25
				c0.12-0.12,0.36-0.13,0.49,0c0.07,0.07,0.11,0.16,0.11,0.25c0,0.09-0.04,0.18-0.1,0.25C21.78-34.94,21.69-34.9,21.6-34.9z"/>
			<path fill="#FFFFFF" d="M1.1-27.65c-0.09,0-0.18-0.04-0.25-0.1c-0.06-0.07-0.1-0.16-0.1-0.25c0-0.1,0.04-0.19,0.11-0.25
				c0.11-0.12,0.35-0.13,0.49,0c0.06,0.06,0.1,0.15,0.1,0.25c0,0.09-0.04,0.18-0.1,0.25C1.28-27.69,1.19-27.65,1.1-27.65z"/>
			<path fill="#FFFFFF" d="M68.35-5.9c-0.09,0-0.18-0.04-0.25-0.1C68.04-6.07,68-6.16,68-6.25c0-0.1,0.04-0.19,0.11-0.25
				c0.11-0.12,0.35-0.13,0.49,0c0.06,0.06,0.1,0.15,0.1,0.25c0,0.09-0.04,0.18-0.1,0.25C68.53-5.94,68.44-5.9,68.35-5.9z"/>
			<path fill="#FFFFFF" d="M60.1-2.15c-0.09,0-0.18-0.04-0.25-0.1c-0.07-0.07-0.1-0.16-0.1-0.25s0.04-0.18,0.1-0.25
				c0.14-0.13,0.36-0.13,0.5,0c0.06,0.06,0.1,0.15,0.1,0.25s-0.04,0.18-0.1,0.25C60.28-2.19,60.19-2.15,60.1-2.15z"/>
			<path fill="#FFFFFF" d="M40.85-3.9c-0.09,0-0.18-0.04-0.25-0.1c-0.06-0.07-0.1-0.16-0.1-0.25c0-0.09,0.04-0.18,0.1-0.25
				c0.13-0.13,0.37-0.13,0.5,0c0.06,0.07,0.1,0.16,0.1,0.25c0,0.09-0.04,0.18-0.1,0.25C41.03-3.94,40.95-3.9,40.85-3.9z"/>
			<path fill="#FFFFFF" d="M4.85-11.9c-0.09,0-0.18-0.04-0.25-0.1c-0.06-0.07-0.1-0.16-0.1-0.25s0.04-0.18,0.1-0.25
				c0.13-0.13,0.36-0.13,0.49,0c0.07,0.07,0.11,0.16,0.11,0.25S5.16-12.07,5.1-12C5.03-11.94,4.94-11.9,4.85-11.9z"/>
			<path fill="#FFFFFF" d="M26.85-12.4c-0.09,0-0.18-0.04-0.25-0.1c-0.06-0.07-0.1-0.16-0.1-0.25s0.04-0.18,0.1-0.25
				c0.14-0.13,0.36-0.13,0.49,0c0.07,0.07,0.11,0.16,0.11,0.25s-0.04,0.18-0.1,0.25C27.03-12.44,26.94-12.4,26.85-12.4z"/>
			<path fill="#FFFFFF" d="M37.6-23.4c-0.09,0-0.18-0.04-0.25-0.1c-0.06-0.07-0.1-0.16-0.1-0.25c0-0.1,0.04-0.18,0.1-0.25
				c0.14-0.13,0.36-0.13,0.5,0c0.06,0.07,0.1,0.16,0.1,0.25s-0.04,0.18-0.1,0.25C37.78-23.44,37.7-23.4,37.6-23.4z"/>
			<path fill="#FFFFFF" d="M9.1-31.65c-0.09,0-0.18-0.04-0.25-0.1c-0.06-0.07-0.1-0.16-0.1-0.25c0-0.09,0.04-0.18,0.1-0.25
				c0.13-0.13,0.35-0.13,0.49,0c0.07,0.07,0.11,0.16,0.11,0.25c0,0.09-0.04,0.18-0.1,0.25C9.28-31.69,9.19-31.65,9.1-31.65z"/>
			<path fill="#FFFFFF" d="M52.6-33.9c-0.09,0-0.18-0.04-0.25-0.11c-0.06-0.06-0.1-0.15-0.1-0.24c0-0.1,0.04-0.19,0.11-0.25
				c0.11-0.12,0.35-0.13,0.49,0c0.06,0.06,0.1,0.15,0.1,0.25c0,0.09-0.04,0.18-0.1,0.25C52.78-33.94,52.69-33.9,52.6-33.9z"/>
			<path fill="#FFFFFF" d="M61.1-25.9c-0.09,0-0.18-0.04-0.25-0.1c-0.06-0.07-0.1-0.16-0.1-0.25c0-0.1,0.04-0.19,0.11-0.25
				c0.11-0.12,0.35-0.13,0.49,0c0.06,0.06,0.1,0.15,0.1,0.25c0,0.09-0.04,0.18-0.1,0.25C61.28-25.94,61.19-25.9,61.1-25.9z"/>
			<path fill="#FFFFFF" d="M51.6-5.65c-0.09,0-0.18-0.04-0.25-0.1c-0.06-0.07-0.1-0.16-0.1-0.25c0-0.09,0.04-0.18,0.1-0.25
				c0.14-0.13,0.36-0.13,0.5,0c0.06,0.07,0.1,0.16,0.1,0.25c0,0.09-0.03,0.18-0.1,0.25C51.78-5.69,51.69-5.65,51.6-5.65z"/>
			<path fill="#FFFFFF" d="M40.35-34.15c-0.09,0-0.18-0.04-0.25-0.1c-0.06-0.07-0.1-0.16-0.1-0.25c0-0.09,0.04-0.18,0.1-0.25
				c0.15-0.13,0.36-0.13,0.49,0c0.07,0.07,0.11,0.16,0.11,0.25c0,0.09-0.04,0.18-0.1,0.25C40.53-34.19,40.44-34.15,40.35-34.15z"/>
			<path fill="#FFFFFF" d="M27.85-58.4c-0.09,0-0.18-0.04-0.25-0.1c-0.06-0.07-0.1-0.16-0.1-0.25c0-0.09,0.04-0.18,0.1-0.25
				c0.14-0.13,0.36-0.13,0.49,0c0.07,0.07,0.11,0.16,0.11,0.25c0,0.09-0.04,0.18-0.1,0.25C28.03-58.44,27.94-58.4,27.85-58.4z"/>
			<path fill="#FFFFFF" d="M20.1-45.4c-0.09,0-0.18-0.04-0.25-0.1c-0.06-0.07-0.1-0.16-0.1-0.25c0-0.09,0.04-0.19,0.1-0.25
				c0.12-0.12,0.36-0.13,0.49,0c0.07,0.07,0.11,0.16,0.11,0.25c0,0.09-0.04,0.18-0.1,0.25C20.28-45.44,20.19-45.4,20.1-45.4z"/>
			<path fill="#FFFFFF" d="M12.1-70.15c-0.09,0-0.18-0.04-0.25-0.1c-0.06-0.07-0.1-0.16-0.1-0.25s0.04-0.18,0.1-0.25
				c0.12-0.12,0.36-0.13,0.5,0c0.06,0.07,0.1,0.16,0.1,0.25s-0.04,0.18-0.1,0.25C12.28-70.19,12.19-70.15,12.1-70.15z"/>
			<path fill="#FFFFFF" d="M55.6-68.15c-0.09,0-0.18-0.04-0.25-0.1c-0.06-0.07-0.1-0.16-0.1-0.25c0-0.1,0.04-0.19,0.11-0.25
				c0.11-0.12,0.35-0.13,0.49,0c0.06,0.06,0.1,0.15,0.1,0.25c0,0.09-0.04,0.18-0.1,0.25C55.78-68.19,55.69-68.15,55.6-68.15z"/>
			<path fill="#FFFFFF" d="M47.6-2.15c-0.09,0-0.18-0.04-0.25-0.1c-0.06-0.07-0.1-0.15-0.1-0.25c0-0.09,0.04-0.18,0.1-0.25
				c0.14-0.13,0.36-0.13,0.49,0c0.07,0.07,0.11,0.16,0.11,0.25s-0.04,0.18-0.1,0.25C47.78-2.19,47.69-2.15,47.6-2.15z"/>
			<path fill="#FFFFFF" d="M5.1-31.65c-0.09,0-0.18-0.04-0.25-0.1c-0.06-0.07-0.1-0.16-0.1-0.25c0-0.1,0.04-0.19,0.11-0.25
				c0.11-0.12,0.35-0.13,0.49,0c0.06,0.06,0.1,0.15,0.1,0.25c0,0.09-0.04,0.18-0.1,0.25C5.28-31.69,5.19-31.65,5.1-31.65z"/>
			<path fill="#FFFFFF" d="M69.1-58.65c-0.09,0-0.18-0.04-0.25-0.1c-0.06-0.07-0.1-0.16-0.1-0.25c0-0.09,0.04-0.18,0.1-0.25
				c0.13-0.13,0.36-0.13,0.5,0c0.06,0.07,0.1,0.15,0.1,0.25c0,0.1-0.04,0.18-0.1,0.25C69.28-58.69,69.19-58.65,69.1-58.65z"/>
			<path fill="#FFFFFF" d="M23.6-57.9c-0.09,0-0.18-0.04-0.25-0.1c-0.06-0.07-0.1-0.16-0.1-0.25c0-0.09,0.04-0.18,0.1-0.25
				c0.14-0.13,0.36-0.13,0.49,0c0.07,0.07,0.11,0.16,0.11,0.25c0,0.09-0.04,0.18-0.1,0.25C23.78-57.94,23.69-57.9,23.6-57.9z"/>
			<path fill="#FFFFFF" d="M20.85-54.65c-0.09,0-0.18-0.04-0.25-0.1c-0.06-0.07-0.1-0.16-0.1-0.25c0-0.09,0.04-0.18,0.1-0.25
				c0.14-0.13,0.36-0.13,0.5,0c0.06,0.07,0.1,0.16,0.1,0.25c0,0.09-0.04,0.18-0.1,0.25C21.03-54.69,20.94-54.65,20.85-54.65z"/>
			<path fill="#FFFFFF" d="M15.1-54.65c-0.09,0-0.18-0.04-0.25-0.1c-0.06-0.07-0.1-0.16-0.1-0.25c0-0.1,0.04-0.19,0.11-0.25
				c0.11-0.12,0.35-0.13,0.49,0c0.06,0.06,0.1,0.15,0.1,0.25c0,0.09-0.04,0.18-0.1,0.25C15.28-54.69,15.19-54.65,15.1-54.65z"/>
			<path fill="#FFFFFF" d="M6.35-60.15c-0.09,0-0.18-0.04-0.25-0.1C6.04-60.32,6-60.41,6-60.5c0-0.09,0.04-0.18,0.1-0.25
				c0.13-0.13,0.36-0.13,0.49,0C6.66-60.69,6.7-60.6,6.7-60.5c0,0.09-0.04,0.18-0.1,0.25C6.53-60.19,6.44-60.15,6.35-60.15z"/>
			<path fill="#FFFFFF" d="M7.35-69.15c-0.09,0-0.17-0.04-0.24-0.1C7.04-69.32,7-69.41,7-69.5s0.04-0.18,0.1-0.25
				c0.13-0.13,0.36-0.13,0.49,0c0.07,0.07,0.11,0.16,0.11,0.25s-0.04,0.18-0.1,0.25C7.53-69.19,7.44-69.15,7.35-69.15z"/>
			<path fill="#FFFFFF" d="M10.35-63.65c-0.09,0-0.18-0.04-0.25-0.1C10.04-63.82,10-63.91,10-64s0.04-0.18,0.1-0.25
				c0.13-0.13,0.36-0.13,0.49,0c0.07,0.07,0.11,0.16,0.11,0.25s-0.04,0.18-0.1,0.25C10.53-63.69,10.44-63.65,10.35-63.65z"/>
			<path fill="#FFFFFF" d="M14.6-63.65c-0.09,0-0.18-0.04-0.25-0.1c-0.06-0.07-0.1-0.16-0.1-0.25c0-0.1,0.04-0.19,0.11-0.25
				c0.11-0.12,0.35-0.13,0.49,0c0.06,0.06,0.1,0.15,0.1,0.25c0,0.09-0.04,0.18-0.1,0.25C14.78-63.69,14.69-63.65,14.6-63.65z"/>
			<path fill="#FFFFFF" d="M26.1-64.9c-0.09,0-0.18-0.04-0.25-0.1c-0.06-0.07-0.1-0.16-0.1-0.25s0.04-0.18,0.1-0.25
				c0.14-0.13,0.36-0.13,0.49,0c0.07,0.07,0.11,0.16,0.11,0.25s-0.04,0.18-0.1,0.25C26.28-64.94,26.19-64.9,26.1-64.9z"/>
			<path fill="#FFFFFF" d="M37.35-64.4c-0.09,0-0.18-0.04-0.25-0.1c-0.06-0.07-0.1-0.16-0.1-0.25s0.04-0.18,0.1-0.25
				c0.13-0.13,0.36-0.13,0.5,0c0.06,0.07,0.1,0.16,0.1,0.25s-0.04,0.18-0.1,0.25C37.53-64.44,37.44-64.4,37.35-64.4z"/>
			<path fill="#FFFFFF" d="M37.85-67.65c-0.09,0-0.18-0.04-0.25-0.1c-0.06-0.07-0.1-0.16-0.1-0.25c0-0.1,0.04-0.19,0.11-0.25
				c0.12-0.13,0.36-0.13,0.49,0c0.06,0.06,0.1,0.15,0.1,0.25c0,0.09-0.04,0.18-0.1,0.25C38.03-67.69,37.94-67.65,37.85-67.65z"/>
			<path fill="#FFFFFF" d="M43.6-69.65c-0.09,0-0.18-0.04-0.25-0.1c-0.06-0.07-0.1-0.16-0.1-0.25s0.04-0.18,0.1-0.25
				c0.13-0.13,0.36-0.13,0.5,0c0.06,0.07,0.1,0.16,0.1,0.25s-0.04,0.18-0.1,0.25C43.77-69.69,43.69-69.65,43.6-69.65z"/>
			<path fill="#FFFFFF" d="M49.85-63.65c-0.09,0-0.18-0.04-0.25-0.1c-0.07-0.07-0.1-0.16-0.1-0.25s0.03-0.18,0.1-0.25
				c0.14-0.13,0.37-0.13,0.5,0c0.06,0.07,0.1,0.16,0.1,0.25s-0.04,0.18-0.1,0.25C50.03-63.69,49.94-63.65,49.85-63.65z"/>
			<path fill="#FFFFFF" d="M46.35-62.65c-0.09,0-0.18-0.04-0.25-0.1C46.04-62.82,46-62.91,46-63c0-0.09,0.04-0.18,0.1-0.25
				c0.14-0.13,0.36-0.13,0.5,0c0.06,0.07,0.1,0.16,0.1,0.25c0,0.09-0.04,0.18-0.1,0.25C46.53-62.69,46.45-62.65,46.35-62.65z"/>
			<path fill="#FFFFFF" d="M36.1-60.9c-0.09,0-0.18-0.04-0.25-0.1c-0.06-0.07-0.1-0.16-0.1-0.25c0-0.1,0.04-0.18,0.1-0.25
				c0.14-0.13,0.36-0.13,0.49,0c0.07,0.07,0.11,0.16,0.11,0.25c0,0.09-0.04,0.18-0.1,0.25C36.28-60.94,36.19-60.9,36.1-60.9z"/>
			<path fill="#FFFFFF" d="M39.6-56.9c-0.09,0-0.18-0.04-0.25-0.1c-0.06-0.07-0.1-0.16-0.1-0.25c0-0.09,0.04-0.18,0.1-0.25
				c0.14-0.13,0.36-0.13,0.49,0c0.07,0.07,0.11,0.16,0.11,0.25c0,0.09-0.04,0.18-0.1,0.25C39.78-56.94,39.69-56.9,39.6-56.9z"/>
			<path fill="#FFFFFF" d="M25.1-53.9c-0.09,0-0.18-0.04-0.25-0.1c-0.06-0.07-0.1-0.16-0.1-0.25c0-0.09,0.04-0.18,0.1-0.25
				c0.14-0.13,0.36-0.13,0.49,0c0.07,0.07,0.11,0.16,0.11,0.25c0,0.09-0.04,0.18-0.1,0.25C25.28-53.94,25.19-53.9,25.1-53.9z"/>
			<path fill="#FFFFFF" d="M8.6-44.65c-0.09,0-0.18-0.04-0.25-0.1c-0.06-0.07-0.1-0.16-0.1-0.25c0-0.09,0.04-0.18,0.1-0.25
				c0.13-0.13,0.36-0.13,0.49,0c0.07,0.07,0.11,0.16,0.11,0.25c0,0.09-0.04,0.18-0.1,0.25C8.78-44.69,8.69-44.65,8.6-44.65z"/>
			<path fill="#FFFFFF" d="M16.35-40.15c-0.09,0-0.18-0.04-0.25-0.1c-0.06-0.07-0.1-0.16-0.1-0.25c0-0.09,0.04-0.18,0.1-0.25
				c0.12-0.12,0.36-0.13,0.5,0c0.06,0.07,0.1,0.16,0.1,0.25c0,0.09-0.04,0.18-0.1,0.25C16.53-40.19,16.44-40.15,16.35-40.15z"/>
			<path fill="#FFFFFF" d="M10.85-38.4c-0.09,0-0.18-0.04-0.25-0.1c-0.06-0.07-0.1-0.16-0.1-0.25c0-0.1,0.04-0.19,0.11-0.25
				c0.11-0.12,0.35-0.13,0.49,0c0.06,0.06,0.1,0.15,0.1,0.25c0,0.1-0.04,0.18-0.1,0.25C11.03-38.44,10.94-38.4,10.85-38.4z"/>
			<path fill="#FFFFFF" d="M5.6-34.9c-0.09,0-0.18-0.04-0.25-0.1c-0.06-0.07-0.1-0.16-0.1-0.25c0-0.09,0.04-0.18,0.1-0.25
				c0.12-0.12,0.37-0.13,0.5,0c0.06,0.07,0.1,0.15,0.1,0.25c0,0.09-0.04,0.18-0.1,0.25C5.78-34.94,5.69-34.9,5.6-34.9z"/>
			<path fill="#FFFFFF" d="M3.6-51.4c-0.09,0-0.18-0.04-0.25-0.1c-0.06-0.07-0.1-0.16-0.1-0.25c0-0.09,0.04-0.18,0.1-0.25
				c0.12-0.12,0.36-0.13,0.5,0c0.06,0.07,0.1,0.16,0.1,0.25c0,0.09-0.04,0.18-0.1,0.25C3.78-51.44,3.69-51.4,3.6-51.4z"/>
			<path fill="#FFFFFF" d="M20.85-41.15c-0.09,0-0.18-0.04-0.25-0.1c-0.06-0.07-0.1-0.16-0.1-0.25c0-0.1,0.04-0.19,0.11-0.25
				c0.13-0.13,0.35-0.13,0.49,0c0.06,0.06,0.1,0.15,0.1,0.25c0,0.09-0.04,0.18-0.1,0.25C21.03-41.19,20.94-41.15,20.85-41.15z"/>
			<path fill="#FFFFFF" d="M17.85-36.4c-0.09,0-0.18-0.04-0.25-0.1c-0.06-0.07-0.1-0.16-0.1-0.25c0-0.09,0.04-0.18,0.1-0.25
				c0.14-0.13,0.36-0.13,0.5,0c0.06,0.07,0.1,0.16,0.1,0.25c0,0.09-0.04,0.18-0.1,0.25C18.03-36.44,17.94-36.4,17.85-36.4z"/>
			<path fill="#FFFFFF" d="M16.35-32.9c-0.09,0-0.18-0.04-0.25-0.1c-0.06-0.07-0.1-0.16-0.1-0.25c0-0.1,0.04-0.19,0.11-0.25
				c0.11-0.12,0.35-0.13,0.49,0c0.06,0.06,0.1,0.15,0.1,0.25c0,0.09-0.04,0.18-0.1,0.25C16.53-32.94,16.45-32.9,16.35-32.9z"/>
			<path fill="#FFFFFF" d="M13.1-30.65c-0.09,0-0.18-0.04-0.25-0.1c-0.06-0.07-0.1-0.16-0.1-0.25c0-0.1,0.04-0.19,0.11-0.25
				c0.11-0.12,0.35-0.13,0.49,0c0.06,0.06,0.1,0.15,0.1,0.25c0,0.09-0.04,0.18-0.1,0.25C13.28-30.69,13.19-30.65,13.1-30.65z"/>
			<path fill="#FFFFFF" d="M13.1-25.4c-0.09,0-0.18-0.04-0.25-0.1c-0.06-0.07-0.1-0.16-0.1-0.25c0-0.1,0.04-0.19,0.11-0.25
				c0.11-0.12,0.35-0.13,0.49,0c0.06,0.06,0.1,0.15,0.1,0.25c0,0.09-0.04,0.18-0.1,0.25C13.28-25.44,13.19-25.4,13.1-25.4z"/>
			<path fill="#FFFFFF" d="M6.1-23.4c-0.09,0-0.18-0.04-0.25-0.1c-0.06-0.07-0.1-0.16-0.1-0.25s0.04-0.18,0.1-0.25
				c0.12-0.12,0.37-0.13,0.5,0c0.06,0.07,0.1,0.16,0.1,0.25s-0.04,0.18-0.1,0.25C6.28-23.44,6.19-23.4,6.1-23.4z"/>
			<path fill="#FFFFFF" d="M11.35-17.4c-0.09,0-0.18-0.04-0.25-0.1c-0.06-0.07-0.1-0.16-0.1-0.25s0.04-0.18,0.1-0.25
				c0.12-0.12,0.37-0.13,0.5,0c0.06,0.07,0.1,0.16,0.1,0.25s-0.04,0.18-0.1,0.25C11.53-17.44,11.44-17.4,11.35-17.4z"/>
			<path fill="#FFFFFF" d="M15.85-13.4c-0.09,0-0.18-0.04-0.25-0.1c-0.06-0.07-0.1-0.16-0.1-0.25s0.04-0.18,0.1-0.25
				c0.13-0.13,0.37-0.13,0.5,0c0.06,0.07,0.1,0.16,0.1,0.25s-0.04,0.18-0.1,0.25C16.03-13.44,15.94-13.4,15.85-13.4z"/>
			<path fill="#FFFFFF" d="M6.35-8.4c-0.09,0-0.18-0.04-0.25-0.1C6.04-8.57,6-8.66,6-8.75S6.04-8.93,6.1-9
				c0.12-0.12,0.36-0.13,0.5,0c0.06,0.06,0.1,0.15,0.1,0.25c0,0.09-0.04,0.18-0.1,0.25C6.53-8.44,6.44-8.4,6.35-8.4z"/>
			<path fill="#FFFFFF" d="M2.6-9.9c-0.09,0-0.18-0.04-0.25-0.1c-0.06-0.07-0.1-0.16-0.1-0.25s0.04-0.18,0.1-0.25
				c0.13-0.12,0.36-0.13,0.49,0c0.07,0.07,0.11,0.15,0.11,0.25c0,0.09-0.04,0.18-0.1,0.25C2.78-9.94,2.69-9.9,2.6-9.9z"/>
			<path fill="#FFFFFF" d="M9.35-3.9C9.26-3.9,9.17-3.94,9.1-4C9.04-4.07,9-4.16,9-4.25C9-4.34,9.04-4.43,9.1-4.5
				c0.13-0.13,0.35-0.13,0.49,0C9.66-4.43,9.7-4.34,9.7-4.25C9.7-4.16,9.66-4.07,9.6-4C9.53-3.94,9.45-3.9,9.35-3.9z"/>
			<path fill="#FFFFFF" d="M13.85-2.4c-0.09,0-0.18-0.04-0.25-0.1c-0.06-0.07-0.1-0.16-0.1-0.25S13.54-2.93,13.6-3
				c0.12-0.12,0.37-0.13,0.5,0c0.06,0.07,0.1,0.16,0.1,0.25s-0.04,0.18-0.1,0.25C14.03-2.44,13.94-2.4,13.85-2.4z"/>
			<path fill="#FFFFFF" d="M21.85-3.4c-0.09,0-0.18-0.04-0.25-0.1c-0.06-0.07-0.1-0.16-0.1-0.25c0-0.1,0.04-0.19,0.11-0.25
				c0.12-0.13,0.36-0.13,0.49,0c0.06,0.06,0.1,0.15,0.1,0.25c0,0.09-0.04,0.18-0.1,0.25C22.03-3.44,21.94-3.4,21.85-3.4z"/>
			<path fill="#FFFFFF" d="M23.35-6.15c-0.09,0-0.18-0.04-0.25-0.1C23.04-6.32,23-6.41,23-6.5c0-0.09,0.04-0.18,0.1-0.25
				c0.13-0.13,0.36-0.13,0.5,0c0.06,0.07,0.1,0.16,0.1,0.25c0,0.09-0.04,0.18-0.1,0.25C23.53-6.19,23.45-6.15,23.35-6.15z"/>
			<path fill="#FFFFFF" d="M22.6-11.9c-0.09,0-0.18-0.04-0.25-0.1c-0.06-0.07-0.1-0.16-0.1-0.25s0.04-0.18,0.1-0.25
				c0.12-0.12,0.36-0.13,0.5,0c0.06,0.07,0.1,0.16,0.1,0.25s-0.04,0.18-0.1,0.25C22.78-11.94,22.7-11.9,22.6-11.9z"/>
			<path fill="#FFFFFF" d="M24.6-14.4c-0.09,0-0.18-0.04-0.25-0.1c-0.06-0.07-0.1-0.16-0.1-0.25c0-0.1,0.04-0.18,0.1-0.25
				c0.12-0.12,0.36-0.13,0.5,0c0.06,0.07,0.1,0.15,0.1,0.25c0,0.09-0.04,0.18-0.1,0.25C24.78-14.44,24.7-14.4,24.6-14.4z"/>
			<path fill="#FFFFFF" d="M26.6-24.15c-0.09,0-0.18-0.04-0.25-0.1c-0.06-0.07-0.1-0.16-0.1-0.25s0.04-0.18,0.1-0.25
				c0.13-0.13,0.36-0.13,0.5,0c0.06,0.07,0.1,0.16,0.1,0.25s-0.04,0.18-0.1,0.25C26.78-24.19,26.69-24.15,26.6-24.15z"/>
			<path fill="#FFFFFF" d="M26.1-28.4c-0.09,0-0.18-0.04-0.25-0.1c-0.06-0.07-0.1-0.16-0.1-0.25s0.04-0.18,0.1-0.25
				c0.13-0.13,0.36-0.13,0.5,0c0.06,0.07,0.1,0.16,0.1,0.25s-0.04,0.18-0.1,0.25C26.28-28.44,26.19-28.4,26.1-28.4z"/>
			<path fill="#FFFFFF" d="M32.6-40.9c-0.09,0-0.18-0.04-0.25-0.1c-0.06-0.07-0.1-0.16-0.1-0.25c0-0.1,0.04-0.19,0.11-0.25
				c0.12-0.13,0.35-0.13,0.49,0c0.06,0.06,0.1,0.15,0.1,0.25c0,0.09-0.04,0.18-0.1,0.25C32.78-40.94,32.69-40.9,32.6-40.9z"/>
			<path fill="#FFFFFF" d="M34.6-44.15c-0.09,0-0.18-0.04-0.25-0.1c-0.06-0.07-0.1-0.16-0.1-0.25c0-0.09,0.03-0.18,0.1-0.25
				c0.13-0.13,0.36-0.13,0.5,0c0.06,0.07,0.1,0.16,0.1,0.25c0,0.09-0.04,0.18-0.1,0.25C34.78-44.19,34.7-44.15,34.6-44.15z"/>
			<path fill="#FFFFFF" d="M42.1-46.15c-0.09,0-0.18-0.04-0.25-0.1c-0.06-0.07-0.1-0.16-0.1-0.25c0-0.09,0.04-0.18,0.1-0.25
				c0.13-0.13,0.37-0.13,0.5,0c0.06,0.07,0.1,0.16,0.1,0.25c0,0.09-0.04,0.18-0.1,0.25C42.28-46.19,42.19-46.15,42.1-46.15z"/>
			<path fill="#FFFFFF" d="M43.35-51.15c-0.09,0-0.18-0.04-0.25-0.11C43.04-51.32,43-51.4,43-51.5c0-0.09,0.04-0.18,0.1-0.25
				c0.13-0.13,0.36-0.13,0.5,0c0.06,0.07,0.1,0.16,0.1,0.25c0,0.1-0.04,0.18-0.11,0.25C43.53-51.19,43.44-51.15,43.35-51.15z"/>
			<path fill="#FFFFFF" d="M36.85-52.65c-0.09,0-0.18-0.04-0.25-0.1c-0.07-0.08-0.1-0.16-0.1-0.25c0-0.09,0.03-0.18,0.1-0.24
				c0.16-0.15,0.37-0.14,0.5-0.01c0.06,0.07,0.1,0.16,0.1,0.25c0,0.09-0.04,0.18-0.1,0.25C37.03-52.69,36.94-52.65,36.85-52.65z"/>
			<path fill="#FFFFFF" d="M28.1-49.65c-0.09,0-0.18-0.04-0.25-0.1c-0.06-0.07-0.1-0.16-0.1-0.25c0-0.09,0.04-0.18,0.1-0.25
				c0.13-0.13,0.37-0.13,0.5,0c0.06,0.07,0.1,0.16,0.1,0.25c0,0.09-0.04,0.18-0.1,0.25C28.28-49.69,28.19-49.65,28.1-49.65z"/>
			<path fill="#FFFFFF" d="M52.35-49.9c-0.1,0-0.19-0.04-0.25-0.11c-0.06-0.06-0.1-0.15-0.1-0.24c0-0.09,0.04-0.18,0.1-0.25
				c0.14-0.13,0.36-0.13,0.49,0c0.07,0.07,0.11,0.16,0.11,0.25c0,0.09-0.04,0.18-0.1,0.25C52.53-49.94,52.45-49.9,52.35-49.9z"/>
			<path fill="#FFFFFF" d="M43.6-54.15c-0.09,0-0.19-0.04-0.25-0.1c-0.06-0.07-0.1-0.16-0.1-0.25c0-0.09,0.04-0.18,0.1-0.25
				c0.12-0.12,0.36-0.13,0.5,0c0.06,0.07,0.1,0.16,0.1,0.25c0,0.09-0.04,0.18-0.1,0.25C43.78-54.19,43.69-54.15,43.6-54.15z"/>
			<path fill="#FFFFFF" d="M50.85-53.9c-0.1,0-0.18-0.04-0.25-0.1c-0.06-0.07-0.1-0.16-0.1-0.25c0-0.09,0.04-0.18,0.1-0.25
				c0.14-0.13,0.36-0.13,0.49,0c0.07,0.07,0.11,0.16,0.11,0.25c0,0.09-0.04,0.18-0.1,0.25C51.03-53.94,50.94-53.9,50.85-53.9z"/>
			<path fill="#FFFFFF" d="M59.85-54.65c-0.09,0-0.18-0.04-0.25-0.1c-0.06-0.07-0.1-0.16-0.1-0.25c0-0.1,0.04-0.19,0.11-0.25
				c0.11-0.12,0.35-0.13,0.49,0c0.06,0.06,0.1,0.15,0.1,0.25c0,0.09-0.04,0.18-0.1,0.25C60.03-54.69,59.94-54.65,59.85-54.65z"/>
			<path fill="#FFFFFF" d="M58.6-57.9c-0.1,0-0.18-0.04-0.25-0.1c-0.06-0.07-0.1-0.16-0.1-0.25c0-0.09,0.04-0.18,0.1-0.25
				c0.14-0.13,0.36-0.13,0.49,0c0.07,0.07,0.11,0.16,0.11,0.25c0,0.09-0.04,0.18-0.1,0.25C58.78-57.94,58.69-57.9,58.6-57.9z"/>
			<path fill="#FFFFFF" d="M61.85-60.9c-0.09,0-0.18-0.04-0.25-0.1c-0.06-0.07-0.1-0.16-0.1-0.25c0-0.1,0.04-0.19,0.11-0.25
				c0.11-0.12,0.36-0.13,0.49,0.01c0.06,0.05,0.1,0.14,0.1,0.24c0,0.09-0.04,0.18-0.1,0.25C62.03-60.94,61.94-60.9,61.85-60.9z"/>
			<path fill="#FFFFFF" d="M59.1-64.4c-0.09,0-0.18-0.04-0.25-0.1c-0.07-0.07-0.1-0.16-0.1-0.25s0.03-0.18,0.1-0.24
				c0.15-0.15,0.36-0.14,0.49-0.01c0.07,0.07,0.11,0.15,0.11,0.25c0,0.09-0.04,0.18-0.1,0.25C59.28-64.44,59.19-64.4,59.1-64.4z"/>
			<path fill="#FFFFFF" d="M60.35-67.15c-0.09,0-0.19-0.04-0.25-0.11c-0.06-0.06-0.1-0.15-0.1-0.24c0-0.1,0.04-0.19,0.11-0.25
				c0.11-0.12,0.35-0.13,0.49,0c0.06,0.06,0.1,0.15,0.1,0.25c0,0.09-0.04,0.18-0.1,0.25C60.53-67.19,60.44-67.15,60.35-67.15z"/>
			<path fill="#FFFFFF" d="M67.85-65.9c-0.09,0-0.18-0.04-0.25-0.1c-0.06-0.06-0.1-0.15-0.1-0.25s0.04-0.18,0.1-0.25
				c0.13-0.12,0.37-0.13,0.5,0c0.06,0.07,0.1,0.16,0.1,0.25s-0.04,0.18-0.1,0.25C68.03-65.94,67.94-65.9,67.85-65.9z"/>
			<path fill="#FFFFFF" d="M71.1-63.4c-0.09,0-0.18-0.04-0.25-0.1c-0.06-0.06-0.1-0.15-0.1-0.25c0-0.1,0.04-0.18,0.1-0.25
				c0.13-0.12,0.36-0.13,0.49,0c0.07,0.07,0.11,0.16,0.11,0.25c0,0.09-0.04,0.18-0.1,0.25C71.28-63.44,71.19-63.4,71.1-63.4z"/>
			<path fill="#FFFFFF" d="M66.1-62.15c-0.09,0-0.18-0.04-0.25-0.1c-0.06-0.07-0.1-0.16-0.1-0.25c0-0.1,0.04-0.18,0.1-0.25
				c0.12-0.12,0.37-0.13,0.5,0c0.06,0.07,0.1,0.16,0.1,0.25c0,0.09-0.04,0.18-0.1,0.25C66.28-62.19,66.19-62.15,66.1-62.15z"/>
			<path fill="#FFFFFF" d="M60.6-48.15c-0.09,0-0.18-0.04-0.25-0.1c-0.06-0.07-0.1-0.16-0.1-0.25c0-0.09,0.04-0.18,0.1-0.25
				c0.12-0.13,0.37-0.13,0.5,0c0.06,0.07,0.1,0.16,0.1,0.25c0,0.09-0.04,0.18-0.1,0.25C60.78-48.19,60.69-48.15,60.6-48.15z"/>
			<path fill="#FFFFFF" d="M55.85-48.15c-0.09,0-0.18-0.04-0.25-0.1c-0.06-0.07-0.1-0.16-0.1-0.25c0-0.09,0.04-0.18,0.1-0.25
				c0.12-0.12,0.37-0.13,0.5,0c0.06,0.07,0.1,0.16,0.1,0.25c0,0.09-0.04,0.18-0.1,0.25C56.03-48.19,55.94-48.15,55.85-48.15z"/>
			<path fill="#FFFFFF" d="M55.85-53.15c-0.09,0-0.19-0.04-0.25-0.11c-0.06-0.06-0.1-0.15-0.1-0.24c0-0.1,0.04-0.19,0.11-0.25
				c0.11-0.12,0.35-0.13,0.49,0c0.06,0.06,0.1,0.15,0.1,0.25c0,0.09-0.04,0.18-0.1,0.25C56.03-53.19,55.94-53.15,55.85-53.15z"/>
			<path fill="#FFFFFF" d="M65.35-46.15c-0.09,0-0.18-0.04-0.25-0.1c-0.06-0.07-0.1-0.16-0.1-0.25c0-0.1,0.04-0.19,0.11-0.25
				c0.11-0.12,0.35-0.13,0.49,0c0.06,0.06,0.1,0.15,0.1,0.25c0,0.09-0.04,0.18-0.1,0.25C65.53-46.19,65.44-46.15,65.35-46.15z"/>
			<path fill="#FFFFFF" d="M58.1-41.15c-0.1,0-0.19-0.04-0.25-0.11c-0.06-0.06-0.1-0.15-0.1-0.24c0-0.1,0.04-0.19,0.11-0.25
				c0.11-0.12,0.35-0.13,0.49,0c0.06,0.06,0.1,0.15,0.1,0.25c0,0.09-0.04,0.18-0.1,0.25C58.28-41.19,58.19-41.15,58.1-41.15z"/>
			<path fill="#FFFFFF" d="M53.1-39.15c-0.09,0-0.18-0.04-0.25-0.11c-0.06-0.06-0.1-0.15-0.1-0.24c0-0.1,0.04-0.19,0.11-0.25
				c0.11-0.12,0.35-0.13,0.49,0c0.06,0.06,0.1,0.15,0.1,0.25c0,0.09-0.04,0.18-0.1,0.25C53.28-39.19,53.19-39.15,53.1-39.15z"/>
			<path fill="#FFFFFF" d="M47.85-38.15c-0.09,0-0.18-0.04-0.25-0.11c-0.06-0.06-0.1-0.15-0.1-0.24c0-0.1,0.04-0.19,0.11-0.25
				c0.11-0.12,0.35-0.13,0.49,0c0.06,0.06,0.1,0.15,0.1,0.25c0,0.09-0.04,0.18-0.1,0.25C48.03-38.19,47.94-38.15,47.85-38.15z"/>
			<path fill="#FFFFFF" d="M44.6-32.65c-0.09,0-0.18-0.04-0.25-0.11c-0.06-0.06-0.1-0.15-0.1-0.24c0-0.09,0.04-0.18,0.1-0.25
				c0.14-0.13,0.36-0.13,0.5,0c0.06,0.07,0.1,0.15,0.1,0.25c0,0.1-0.04,0.19-0.11,0.25C44.78-32.69,44.69-32.65,44.6-32.65z"/>
			<path fill="#FFFFFF" d="M34.35-30.4c-0.09,0-0.18-0.04-0.25-0.1c-0.06-0.07-0.1-0.16-0.1-0.25s0.04-0.18,0.1-0.25
				c0.14-0.13,0.36-0.13,0.5,0c0.06,0.07,0.1,0.16,0.1,0.25s-0.04,0.18-0.1,0.25C34.53-30.44,34.44-30.4,34.35-30.4z"/>
			<path fill="#FFFFFF" d="M41.1-23.9c-0.09,0-0.18-0.04-0.25-0.1c-0.06-0.07-0.1-0.16-0.1-0.25s0.04-0.18,0.1-0.25
				c0.14-0.13,0.36-0.13,0.49,0c0.07,0.06,0.11,0.16,0.11,0.25s-0.04,0.18-0.1,0.25C41.28-23.94,41.19-23.9,41.1-23.9z"/>
			<path fill="#FFFFFF" d="M46.1-19.65c-0.09,0-0.18-0.04-0.25-0.1c-0.06-0.07-0.1-0.16-0.1-0.25c0-0.1,0.04-0.19,0.11-0.25
				c0.12-0.13,0.36-0.13,0.49,0c0.06,0.06,0.1,0.15,0.1,0.25c0,0.09-0.04,0.18-0.1,0.25C46.28-19.69,46.19-19.65,46.1-19.65z"/>
			<path fill="#FFFFFF" d="M46.85-15.15c-0.09,0-0.18-0.04-0.25-0.1c-0.06-0.07-0.1-0.16-0.1-0.25s0.04-0.18,0.1-0.25
				c0.15-0.14,0.36-0.13,0.49,0c0.07,0.07,0.11,0.16,0.11,0.25s-0.04,0.18-0.1,0.25C47.03-15.19,46.94-15.15,46.85-15.15z"/>
			<path fill="#FFFFFF" d="M42.35-12.4c-0.09,0-0.18-0.04-0.24-0.1C42.04-12.57,42-12.66,42-12.75s0.04-0.18,0.1-0.25
				c0.14-0.13,0.36-0.13,0.5,0c0.06,0.07,0.1,0.16,0.1,0.25s-0.04,0.18-0.1,0.25C42.53-12.44,42.44-12.4,42.35-12.4z"/>
			<path fill="#FFFFFF" d="M40.35-9.15c-0.09,0-0.18-0.04-0.25-0.1C40.04-9.32,40-9.41,40-9.5s0.04-0.18,0.1-0.25
				c0.13-0.13,0.37-0.13,0.5,0c0.06,0.07,0.1,0.16,0.1,0.25s-0.04,0.18-0.1,0.25C40.53-9.19,40.45-9.15,40.35-9.15z"/>
			<path fill="#FFFFFF" d="M36.35-9.15c-0.09,0-0.18-0.04-0.25-0.1C36.04-9.32,36-9.41,36-9.5c0-0.1,0.04-0.19,0.11-0.25
				c0.12-0.13,0.35-0.13,0.49,0c0.06,0.06,0.1,0.15,0.1,0.25c0,0.09-0.04,0.18-0.1,0.25C36.53-9.19,36.44-9.15,36.35-9.15z"/>
			<path fill="#FFFFFF" d="M36.85-19.15c-0.09,0-0.18-0.04-0.25-0.1c-0.07-0.07-0.1-0.16-0.1-0.25s0.04-0.18,0.1-0.25
				c0.14-0.13,0.38-0.13,0.5,0.01c0.06,0.05,0.1,0.14,0.1,0.24c0,0.09-0.04,0.18-0.1,0.25C37.03-19.19,36.94-19.15,36.85-19.15z"/>
			<path fill="#FFFFFF" d="M30.35-8.4c-0.09,0-0.18-0.04-0.24-0.1C30.04-8.57,30-8.66,30-8.75c0-0.1,0.04-0.19,0.11-0.25
				c0.12-0.12,0.36-0.13,0.49,0c0.06,0.06,0.1,0.15,0.1,0.25c0,0.09-0.04,0.18-0.1,0.25C30.53-8.44,30.44-8.4,30.35-8.4z"/>
			<path fill="#FFFFFF" d="M31.85-3.4c-0.09,0-0.18-0.04-0.25-0.1c-0.06-0.07-0.1-0.16-0.1-0.25S31.54-3.93,31.6-4
				c0.13-0.13,0.36-0.13,0.5,0c0.06,0.07,0.1,0.16,0.1,0.25s-0.04,0.18-0.1,0.25C32.03-3.44,31.94-3.4,31.85-3.4z"/>
			<path fill="#FFFFFF" d="M37.35-0.9c-0.09,0-0.18-0.04-0.25-0.1C37.04-1.06,37-1.16,37-1.25c0-0.1,0.04-0.19,0.11-0.25
				c0.12-0.12,0.36-0.13,0.49,0c0.06,0.06,0.1,0.15,0.1,0.25c0,0.09-0.04,0.19-0.1,0.25C37.53-0.94,37.44-0.9,37.35-0.9z"/>
			<path fill="#FFFFFF" d="M63.35-14.9c-0.09,0-0.18-0.04-0.25-0.1c-0.06-0.07-0.1-0.16-0.1-0.25c0-0.1,0.04-0.19,0.11-0.25
				c0.11-0.12,0.35-0.13,0.49,0c0.06,0.06,0.1,0.15,0.1,0.25c0,0.09-0.04,0.18-0.1,0.25C63.53-14.94,63.44-14.9,63.35-14.9z"/>
			<path fill="#FFFFFF" d="M60.35-21.15c-0.1,0-0.19-0.04-0.25-0.11c-0.06-0.06-0.1-0.15-0.1-0.24s0.04-0.19,0.11-0.25
				c0.12-0.13,0.35-0.13,0.48,0c0.07,0.07,0.11,0.16,0.11,0.25s-0.04,0.18-0.1,0.25C60.53-21.19,60.45-21.15,60.35-21.15z"/>
			<path fill="#FFFFFF" d="M54.85-21.4c-0.09,0-0.18-0.04-0.25-0.1c-0.06-0.07-0.1-0.15-0.1-0.25s0.04-0.19,0.1-0.25
				c0.14-0.13,0.36-0.13,0.49,0c0.07,0.07,0.11,0.16,0.11,0.25s-0.04,0.18-0.1,0.24C55.03-21.44,54.95-21.4,54.85-21.4z"/>
			<path fill="#FFFFFF" d="M55.1-30.15c-0.09,0-0.18-0.04-0.25-0.11c-0.06-0.05-0.1-0.15-0.1-0.24s0.04-0.18,0.1-0.25
				c0.13-0.13,0.36-0.13,0.5,0c0.06,0.07,0.1,0.16,0.1,0.25s-0.04,0.19-0.11,0.25C55.28-30.19,55.19-30.15,55.1-30.15z"/>
			<path fill="#FFFFFF" d="M62.85-29.65c-0.09,0-0.18-0.04-0.25-0.1c-0.06-0.07-0.1-0.16-0.1-0.25s0.04-0.18,0.1-0.25
				c0.13-0.13,0.36-0.13,0.5,0c0.06,0.07,0.1,0.16,0.1,0.25s-0.04,0.18-0.1,0.25C63.03-29.69,62.94-29.65,62.85-29.65z"/>
			<path fill="#FFFFFF" d="M67.35-24.4c-0.09,0-0.18-0.04-0.24-0.1C67.04-24.57,67-24.66,67-24.75s0.04-0.18,0.1-0.25
				c0.13-0.13,0.36-0.13,0.49,0c0.08,0.07,0.11,0.16,0.11,0.25s-0.04,0.18-0.1,0.25C67.53-24.44,67.44-24.4,67.35-24.4z"/>
			<path fill="#FFFFFF" d="M69.85-17.65c-0.09,0-0.18-0.04-0.24-0.1c-0.07-0.07-0.11-0.16-0.11-0.25s0.04-0.18,0.1-0.25
				c0.13-0.13,0.36-0.13,0.49,0c0.07,0.07,0.11,0.16,0.11,0.25s-0.04,0.18-0.1,0.25C70.03-17.69,69.94-17.65,69.85-17.65z"/>
			<path fill="#FFFFFF" d="M63.85-10.15c-0.09,0-0.18-0.04-0.24-0.1c-0.07-0.07-0.11-0.16-0.11-0.25s0.04-0.18,0.1-0.25
				c0.13-0.13,0.36-0.13,0.49,0c0.08,0.07,0.11,0.16,0.11,0.25s-0.04,0.18-0.1,0.25C64.03-10.19,63.94-10.15,63.85-10.15z"/>
			<path fill="#FFFFFF" d="M70.6-10.9c-0.09,0-0.18-0.04-0.25-0.1c-0.06-0.07-0.1-0.16-0.1-0.25c0-0.1,0.04-0.19,0.11-0.25
				c0.1-0.12,0.35-0.13,0.49,0c0.06,0.06,0.1,0.15,0.1,0.25c0,0.09-0.04,0.18-0.1,0.25C70.78-10.94,70.69-10.9,70.6-10.9z"/>
			<path fill="#FFFFFF" d="M65.1-6.4c-0.09,0-0.18-0.04-0.25-0.1c-0.06-0.07-0.1-0.16-0.1-0.25c0-0.09,0.04-0.18,0.1-0.25
				c0.12-0.13,0.37-0.13,0.5,0.01c0.06,0.06,0.1,0.15,0.1,0.24c0,0.09-0.04,0.18-0.1,0.25C65.28-6.44,65.19-6.4,65.1-6.4z"/>
			<path fill="#FFFFFF" d="M66.1-3.65c-0.09,0-0.18-0.04-0.25-0.1c-0.06-0.07-0.1-0.16-0.1-0.25c0-0.09,0.04-0.18,0.1-0.25
				c0.12-0.13,0.37-0.13,0.5,0c0.06,0.07,0.1,0.16,0.1,0.25c0,0.09-0.04,0.18-0.1,0.25C66.28-3.69,66.19-3.65,66.1-3.65z"/>
			<path fill="#FFFFFF" d="M62.85-1.65c-0.09,0-0.18-0.04-0.25-0.1C62.54-1.82,62.5-1.91,62.5-2s0.04-0.19,0.11-0.25
				c0.11-0.12,0.36-0.13,0.49,0.01C63.16-2.19,63.2-2.1,63.2-2c0,0.09-0.04,0.18-0.1,0.25C63.03-1.69,62.94-1.65,62.85-1.65z"/>
			<path fill="#FFFFFF" d="M53.1-2.15c-0.1,0-0.19-0.04-0.25-0.1c-0.06-0.07-0.1-0.16-0.1-0.25s0.04-0.18,0.1-0.25
				c0.14-0.13,0.36-0.13,0.49,0c0.07,0.07,0.11,0.16,0.11,0.25s-0.04,0.18-0.1,0.25C53.28-2.19,53.2-2.15,53.1-2.15z"/>
			<path fill="#FFFFFF" d="M45.1-5.4c-0.1,0-0.18-0.04-0.25-0.11c-0.06-0.06-0.1-0.15-0.1-0.24c0-0.1,0.04-0.19,0.11-0.25
				c0.11-0.12,0.35-0.13,0.49,0c0.06,0.06,0.1,0.15,0.1,0.25c0,0.09-0.04,0.18-0.1,0.25C45.28-5.44,45.19-5.4,45.1-5.4z"/>
			<path fill="#FFFFFF" d="M28.85-0.65c-0.09,0-0.18-0.04-0.25-0.1C28.54-0.81,28.5-0.9,28.5-1c0-0.1,0.04-0.19,0.11-0.25
				c0.12-0.13,0.35-0.13,0.49,0C29.16-1.19,29.2-1.1,29.2-1c0,0.1-0.04,0.19-0.11,0.25C29.03-0.69,28.94-0.65,28.85-0.65z"/>
			<path fill="#FFFFFF" d="M3.35-42.4c-0.09,0-0.18-0.04-0.25-0.1C3.04-42.57,3-42.66,3-42.75c0-0.09,0.04-0.18,0.1-0.25
				c0.12-0.12,0.36-0.13,0.5,0c0.06,0.07,0.1,0.16,0.1,0.25c0,0.09-0.04,0.18-0.1,0.25C3.53-42.44,3.44-42.4,3.35-42.4z"/>
			<path fill="#FFFFFF" d="M13.6-66.9c-0.09,0-0.18-0.04-0.25-0.11c-0.06-0.05-0.1-0.14-0.1-0.24c0-0.09,0.04-0.19,0.1-0.25
				c0.13-0.13,0.36-0.13,0.49,0c0.07,0.07,0.11,0.16,0.11,0.25c0,0.1-0.04,0.19-0.11,0.25C13.78-66.94,13.69-66.9,13.6-66.9z"/>
			<path fill="#FFFFFF" d="M70.6-37.4c-0.09,0-0.18-0.04-0.25-0.1c-0.06-0.07-0.1-0.16-0.1-0.25c0-0.1,0.04-0.19,0.11-0.25
				c0.11-0.12,0.35-0.13,0.49,0c0.06,0.06,0.1,0.15,0.1,0.25c0,0.09-0.04,0.18-0.1,0.25C70.78-37.44,70.69-37.4,70.6-37.4z"/>
			<path fill="#FFFFFF" d="M71.6-30.65c-0.09,0-0.18-0.04-0.25-0.1c-0.06-0.07-0.1-0.16-0.1-0.25s0.04-0.18,0.1-0.25
				c0.13-0.13,0.36-0.13,0.5,0c0.06,0.07,0.1,0.16,0.1,0.25s-0.04,0.18-0.1,0.25C71.78-30.69,71.69-30.65,71.6-30.65z"/>
			<path fill="#FFFFFF" d="M1.35-20.15c-0.09,0-0.18-0.04-0.25-0.1C1.04-20.32,1-20.41,1-20.5c0-0.1,0.04-0.19,0.11-0.25
				c0.11-0.12,0.35-0.13,0.49,0c0.06,0.06,0.1,0.15,0.1,0.25c0,0.09-0.04,0.18-0.1,0.25C1.53-20.19,1.44-20.15,1.35-20.15z"/>
			<path fill="#FFFFFF" d="M72.35-48.4c-0.09,0-0.18-0.04-0.25-0.1c-0.06-0.07-0.1-0.16-0.1-0.25c0-0.09,0.04-0.18,0.1-0.25
				c0.12-0.12,0.36-0.13,0.5,0c0.06,0.07,0.1,0.16,0.1,0.25c0,0.09-0.04,0.18-0.1,0.25C72.53-48.44,72.44-48.4,72.35-48.4z"/>
			<path fill="#FFFFFF" d="M69.35-45.4c-0.09,0-0.18-0.04-0.25-0.1c-0.06-0.07-0.1-0.16-0.1-0.25c0-0.09,0.04-0.18,0.1-0.25
				c0.12-0.13,0.36-0.13,0.5,0c0.06,0.07,0.1,0.16,0.1,0.25c0,0.09-0.03,0.18-0.1,0.25C69.53-45.44,69.44-45.4,69.35-45.4z"/>
			<path fill="#FFFFFF" d="M68.85-11.65c-0.09,0-0.18-0.04-0.25-0.1c-0.06-0.07-0.1-0.16-0.1-0.25c0-0.1,0.04-0.18,0.1-0.25
				c0.12-0.12,0.37-0.13,0.5,0c0.06,0.07,0.1,0.16,0.1,0.25s-0.04,0.18-0.1,0.25C69.03-11.69,68.94-11.65,68.85-11.65z"/>
			<path fill="#FFFFFF" d="M71.85-3.65c-0.09,0-0.18-0.04-0.25-0.1C71.54-3.82,71.5-3.91,71.5-4c0-0.09,0.04-0.18,0.1-0.25
				c0.12-0.13,0.36-0.13,0.5,0c0.06,0.07,0.1,0.16,0.1,0.25c0,0.09-0.03,0.18-0.1,0.25C72.03-3.69,71.94-3.65,71.85-3.65z"/>
			<path fill="#FFFFFF" d="M0.85-14.15c-0.09,0-0.18-0.04-0.25-0.1c-0.06-0.07-0.1-0.16-0.1-0.25s0.04-0.18,0.1-0.25
				c0.12-0.12,0.36-0.13,0.5,0c0.06,0.07,0.1,0.16,0.1,0.25s-0.04,0.18-0.1,0.25C1.03-14.19,0.94-14.15,0.85-14.15z"/>
			<path fill="#FFFFFF" d="M3.1-0.65c-0.09,0-0.18-0.04-0.25-0.1C2.79-0.82,2.75-0.91,2.75-1c0-0.09,0.04-0.18,0.1-0.25
				c0.13-0.13,0.36-0.13,0.49,0C3.41-1.18,3.45-1.09,3.45-1c0,0.09-0.04,0.18-0.1,0.25C3.28-0.69,3.19-0.65,3.1-0.65z"/>
			<path fill="#FFFFFF" d="M70.6-47.9c-0.09,0-0.18-0.04-0.25-0.1c-0.06-0.07-0.1-0.16-0.1-0.25c0-0.1,0.04-0.19,0.11-0.25
				c0.11-0.12,0.35-0.13,0.49,0c0.06,0.06,0.1,0.15,0.1,0.25c0,0.09-0.04,0.18-0.1,0.25C70.78-47.94,70.69-47.9,70.6-47.9z"/>
			<path fill="#FFFFFF" d="M1.6-55.15c-0.09,0-0.18-0.04-0.25-0.1c-0.06-0.07-0.1-0.16-0.1-0.25c0-0.09,0.04-0.18,0.1-0.25
				c0.12-0.12,0.36-0.13,0.5,0c0.06,0.07,0.1,0.16,0.1,0.25c0,0.09-0.04,0.18-0.1,0.25C1.78-55.19,1.69-55.15,1.6-55.15z"/>
			<path fill="#FFFFFF" d="M18.35-58.85c-0.17,0-0.33-0.07-0.46-0.19c-0.12-0.13-0.19-0.29-0.19-0.46c0-0.17,0.07-0.34,0.19-0.46
				c0.24-0.24,0.68-0.24,0.92,0C18.93-59.84,19-59.67,19-59.5c0,0.17-0.07,0.34-0.19,0.46C18.69-58.92,18.52-58.85,18.35-58.85z"/>
			<path fill="#FFFFFF" d="M29.6-60.85c-0.17,0-0.34-0.07-0.46-0.19c-0.12-0.13-0.19-0.29-0.19-0.46c0-0.17,0.07-0.34,0.19-0.46
				c0.25-0.25,0.67-0.24,0.92,0c0.12,0.12,0.19,0.29,0.19,0.46c0,0.17-0.07,0.33-0.19,0.46C29.93-60.92,29.77-60.85,29.6-60.85z"/>
			<path fill="#FFFFFF" d="M29.6-68.35c-0.17,0-0.34-0.07-0.46-0.19c-0.12-0.12-0.19-0.29-0.19-0.46c0-0.18,0.07-0.34,0.19-0.46
				c0.24-0.24,0.68-0.24,0.92,0c0.12,0.12,0.19,0.29,0.19,0.46s-0.07,0.34-0.19,0.46C29.93-68.42,29.77-68.35,29.6-68.35z"/>
			<path fill="#FFFFFF" d="M40.6-61.35c-0.17,0-0.33-0.07-0.46-0.19c-0.12-0.13-0.19-0.29-0.19-0.46c0-0.17,0.07-0.34,0.19-0.46
				c0.24-0.24,0.68-0.24,0.92,0c0.12,0.11,0.19,0.28,0.19,0.46c0,0.17-0.07,0.33-0.19,0.46C40.94-61.42,40.77-61.35,40.6-61.35z"/>
			<path fill="#FFFFFF" d="M45.35-59.85c-0.18,0-0.34-0.07-0.46-0.2c-0.12-0.12-0.19-0.28-0.19-0.45c0-0.17,0.07-0.34,0.19-0.46
				c0.24-0.24,0.68-0.24,0.92,0C45.93-60.85,46-60.68,46-60.5c0,0.18-0.07,0.34-0.2,0.46C45.69-59.92,45.53-59.85,45.35-59.85z"/>
			<path fill="#FFFFFF" d="M47.6-48.85c-0.17,0-0.34-0.07-0.46-0.19c-0.12-0.12-0.19-0.29-0.19-0.46c0-0.17,0.07-0.34,0.19-0.46
				c0.23-0.24,0.68-0.24,0.92,0c0.12,0.12,0.19,0.29,0.19,0.46c0,0.17-0.07,0.34-0.19,0.46C47.94-48.92,47.77-48.85,47.6-48.85z"/>
			<path fill="#FFFFFF" d="M55.1-64.85c-0.18,0-0.34-0.07-0.46-0.19c-0.12-0.12-0.19-0.29-0.19-0.46s0.07-0.34,0.19-0.46
				c0.23-0.24,0.69-0.24,0.92,0c0.12,0.12,0.19,0.28,0.19,0.46c0,0.17-0.07,0.34-0.19,0.46C55.44-64.92,55.28-64.85,55.1-64.85z"/>
			<path fill="#FFFFFF" d="M64.35-65.1c-0.17,0-0.34-0.07-0.46-0.19c-0.12-0.12-0.19-0.29-0.19-0.46s0.07-0.34,0.19-0.46
				c0.24-0.24,0.68-0.24,0.92,0c0.12,0.12,0.19,0.29,0.19,0.46s-0.07,0.34-0.19,0.46C64.69-65.17,64.52-65.1,64.35-65.1z"/>
			<path fill="#FFFFFF" d="M65.35-69.1c-0.17,0-0.34-0.07-0.46-0.19c-0.12-0.13-0.19-0.29-0.19-0.46s0.07-0.34,0.19-0.46
				c0.25-0.24,0.67-0.24,0.92,0c0.12,0.13,0.19,0.29,0.19,0.46s-0.06,0.33-0.18,0.45C65.69-69.17,65.52-69.1,65.35-69.1z"/>
			<path fill="#FFFFFF" d="M69.85-53.6c-0.17,0-0.34-0.07-0.46-0.19c-0.12-0.12-0.19-0.29-0.19-0.46c0-0.17,0.07-0.34,0.19-0.46
				c0.24-0.24,0.67-0.25,0.92,0c0.12,0.12,0.19,0.29,0.19,0.46c0,0.17-0.07,0.34-0.19,0.46C70.19-53.67,70.02-53.6,69.85-53.6z"/>
			<path fill="#FFFFFF" d="M8.35-24.6c-0.18,0-0.34-0.07-0.46-0.19c-0.12-0.13-0.19-0.29-0.19-0.46c0-0.17,0.07-0.34,0.19-0.46
				c0.24-0.24,0.68-0.24,0.92,0C8.93-25.59,9-25.42,9-25.25c0,0.17-0.07,0.33-0.19,0.46C8.69-24.67,8.53-24.6,8.35-24.6z"/>
			<path fill="#FFFFFF" d="M5.35-14.85c-0.18,0-0.34-0.07-0.46-0.19C4.77-15.16,4.7-15.33,4.7-15.5s0.07-0.34,0.19-0.46
				c0.25-0.25,0.68-0.24,0.92,0C5.93-15.84,6-15.67,6-15.5s-0.07,0.34-0.19,0.46C5.69-14.92,5.53-14.85,5.35-14.85z"/>
			<path fill="#FFFFFF" d="M2.6-4.6c-0.17,0-0.34-0.07-0.46-0.19C2.02-4.92,1.95-5.08,1.95-5.25c0-0.17,0.07-0.34,0.19-0.46
				c0.24-0.24,0.68-0.24,0.92,0c0.12,0.12,0.19,0.29,0.19,0.46c0,0.17-0.07,0.33-0.19,0.46C2.94-4.67,2.77-4.6,2.6-4.6z"/>
			<path fill="#FFFFFF" d="M18.1-1.85c-0.17,0-0.34-0.07-0.46-0.19c-0.12-0.13-0.19-0.29-0.19-0.46s0.07-0.34,0.19-0.46
				c0.24-0.24,0.68-0.24,0.92,0c0.12,0.12,0.19,0.29,0.19,0.46s-0.07,0.33-0.19,0.46C18.44-1.92,18.27-1.85,18.1-1.85z"/>
			<path fill="#FFFFFF" d="M19.6-9.35c-0.17,0-0.34-0.07-0.46-0.19c-0.12-0.12-0.19-0.29-0.19-0.46c0-0.18,0.07-0.34,0.19-0.46
				c0.23-0.24,0.68-0.25,0.92,0c0.12,0.12,0.19,0.29,0.19,0.46c0,0.17-0.07,0.33-0.19,0.46C19.94-9.42,19.77-9.35,19.6-9.35z"/>
			<path fill="#FFFFFF" d="M21.35-26.35c-0.17,0-0.34-0.07-0.46-0.19c-0.12-0.12-0.19-0.29-0.19-0.46c0-0.18,0.07-0.34,0.19-0.46
				c0.23-0.24,0.68-0.25,0.92,0C21.93-27.34,22-27.17,22-27c0,0.17-0.07,0.33-0.19,0.46C21.69-26.42,21.53-26.35,21.35-26.35z"/>
			<path fill="#FFFFFF" d="M28.85-20.6c-0.17,0-0.34-0.07-0.46-0.19c-0.12-0.12-0.19-0.29-0.19-0.46c0-0.17,0.07-0.34,0.19-0.46
				c0.24-0.24,0.68-0.25,0.92,0c0.12,0.12,0.19,0.29,0.19,0.46c0,0.17-0.07,0.33-0.19,0.46C29.19-20.67,29.03-20.6,28.85-20.6z"/>
			<path fill="#FFFFFF" d="M34.35-11.35c-0.17,0-0.34-0.07-0.46-0.19c-0.12-0.12-0.19-0.29-0.19-0.46c0-0.18,0.07-0.34,0.19-0.46
				c0.24-0.24,0.68-0.24,0.92,0C34.93-12.35,35-12.18,35-12s-0.07,0.34-0.19,0.46C34.69-11.42,34.52-11.35,34.35-11.35z"/>
			<path fill="#FFFFFF" d="M34.6-4.85c-0.18,0-0.34-0.07-0.46-0.19c-0.12-0.12-0.19-0.29-0.19-0.46c0-0.17,0.07-0.34,0.19-0.46
				c0.25-0.25,0.68-0.24,0.92,0c0.12,0.12,0.19,0.28,0.19,0.46c0,0.18-0.07,0.34-0.19,0.46C34.94-4.92,34.77-4.85,34.6-4.85z"/>
			<path fill="#FFFFFF" d="M42.1-16.6c-0.17,0-0.34-0.07-0.46-0.19c-0.12-0.12-0.19-0.29-0.19-0.46c0-0.17,0.07-0.34,0.19-0.46
				c0.24-0.24,0.68-0.24,0.92,0c0.12,0.12,0.19,0.29,0.19,0.46c0,0.17-0.07,0.34-0.19,0.46C42.44-16.67,42.27-16.6,42.1-16.6z"/>
			<path fill="#FFFFFF" d="M52.6-11.85c-0.17,0-0.34-0.07-0.46-0.19c-0.12-0.12-0.19-0.29-0.19-0.46s0.07-0.34,0.19-0.46
				c0.23-0.24,0.68-0.24,0.92,0c0.12,0.12,0.19,0.29,0.19,0.46s-0.07,0.34-0.19,0.46C52.94-11.92,52.77-11.85,52.6-11.85z"/>
			<path fill="#FFFFFF" d="M55.35-6.35c-0.17,0-0.34-0.07-0.46-0.19C54.77-6.67,54.7-6.83,54.7-7c0-0.18,0.07-0.34,0.19-0.46
				c0.23-0.24,0.68-0.24,0.92,0C55.93-7.34,56-7.18,56-7c0,0.17-0.07,0.33-0.19,0.46C55.69-6.42,55.52-6.35,55.35-6.35z"/>
			<path fill="#FFFFFF" d="M25.6-47.1c-0.17,0-0.34-0.07-0.46-0.19c-0.12-0.13-0.19-0.29-0.19-0.46c0-0.17,0.07-0.34,0.19-0.46
				c0.23-0.24,0.68-0.24,0.92,0c0.12,0.12,0.19,0.29,0.19,0.46c0,0.17-0.07,0.33-0.19,0.46C25.94-47.17,25.77-47.1,25.6-47.1z"/>
			<path fill="#FFFFFF" d="M35.6-48.35c-0.18,0-0.34-0.07-0.46-0.19c-0.12-0.12-0.19-0.29-0.19-0.46c0-0.17,0.07-0.34,0.19-0.46
				c0.24-0.24,0.68-0.24,0.92,0c0.12,0.12,0.19,0.28,0.19,0.46c0,0.18-0.07,0.34-0.19,0.46C35.94-48.42,35.78-48.35,35.6-48.35z"/>
			<path fill="#FFFFFF" d="M45.35-42.1c-0.17,0-0.34-0.07-0.46-0.19c-0.12-0.12-0.19-0.29-0.19-0.46c0-0.17,0.07-0.34,0.19-0.46
				c0.23-0.24,0.69-0.24,0.92,0C45.93-43.1,46-42.93,46-42.75c0,0.18-0.07,0.34-0.2,0.46C45.69-42.17,45.52-42.1,45.35-42.1z"/>
			<path fill="#FFFFFF" d="M52.35-28.6c-0.17,0-0.34-0.07-0.46-0.19c-0.12-0.12-0.19-0.29-0.19-0.46c0-0.17,0.07-0.34,0.19-0.46
				c0.23-0.24,0.67-0.25,0.92,0c0.12,0.12,0.19,0.28,0.19,0.46c0,0.17-0.07,0.34-0.19,0.46C52.69-28.67,52.52-28.6,52.35-28.6z"/>
			<path fill="#FFFFFF" d="M67.35-19.85c-0.17,0-0.34-0.07-0.46-0.19c-0.12-0.12-0.19-0.29-0.19-0.46c0-0.18,0.07-0.34,0.2-0.46
				c0.22-0.23,0.67-0.24,0.91,0C67.93-20.84,68-20.67,68-20.5c0,0.17-0.07,0.34-0.19,0.46C67.69-19.92,67.52-19.85,67.35-19.85z"/>
			<path fill="#FFFFFF" d="M47.6-23.85c-0.17,0-0.34-0.07-0.46-0.19c-0.12-0.12-0.19-0.29-0.19-0.46c0-0.17,0.07-0.34,0.19-0.46
				c0.23-0.24,0.68-0.24,0.92,0c0.12,0.12,0.19,0.29,0.19,0.46c0,0.17-0.07,0.34-0.19,0.46C47.94-23.92,47.77-23.85,47.6-23.85z"/>
			<path fill="#FFFFFF" d="M37.35-27.1c-0.17,0-0.34-0.07-0.46-0.19c-0.12-0.13-0.19-0.29-0.19-0.46c0-0.17,0.07-0.34,0.19-0.46
				c0.24-0.24,0.68-0.24,0.92,0c0.12,0.12,0.19,0.29,0.19,0.46c0,0.17-0.07,0.33-0.19,0.46C37.69-27.17,37.52-27.1,37.35-27.1z"/>
			<path fill="#FFFFFF" d="M17.35-43.1c-0.17,0-0.34-0.07-0.46-0.19c-0.12-0.12-0.19-0.29-0.19-0.46c0-0.17,0.07-0.34,0.19-0.46
				c0.25-0.24,0.68-0.24,0.92,0c0.12,0.12,0.19,0.29,0.19,0.46c0,0.17-0.07,0.34-0.19,0.46C17.69-43.17,17.53-43.1,17.35-43.1z"/>
			<path fill="#FFFFFF" d="M11.6-34.85c-0.17,0-0.34-0.07-0.46-0.19c-0.12-0.12-0.19-0.29-0.19-0.46c0-0.18,0.07-0.34,0.19-0.46
				c0.25-0.25,0.69-0.24,0.92,0c0.12,0.12,0.19,0.29,0.19,0.46c0,0.17-0.07,0.34-0.19,0.46C11.94-34.92,11.77-34.85,11.6-34.85z"/>
			<path fill="#FFFFFF" d="M67.85-40.85c-0.17,0-0.34-0.07-0.46-0.19c-0.12-0.13-0.19-0.29-0.19-0.46c0-0.17,0.07-0.34,0.19-0.46
				c0.24-0.24,0.68-0.24,0.92,0c0.12,0.12,0.19,0.28,0.19,0.46c0,0.17-0.07,0.34-0.19,0.46C68.19-40.92,68.02-40.85,67.85-40.85z"/>
			<path fill="#FFFFFF" d="M7.6-55.85c-0.18,0-0.34-0.07-0.46-0.2c-0.12-0.11-0.19-0.28-0.19-0.45c0-0.17,0.07-0.34,0.19-0.46
				c0.24-0.24,0.68-0.25,0.92,0c0.12,0.12,0.19,0.29,0.19,0.46c0,0.17-0.07,0.34-0.19,0.46C7.94-55.92,7.78-55.85,7.6-55.85z"/>
			<path fill="#FFFFFF" d="M8.85-66.35c-0.17,0-0.33-0.07-0.46-0.19C8.27-66.66,8.2-66.83,8.2-67c0-0.18,0.07-0.34,0.19-0.46
				c0.24-0.24,0.68-0.25,0.92,0C9.43-67.34,9.5-67.18,9.5-67c0,0.17-0.07,0.34-0.19,0.46C9.19-66.42,9.02-66.35,8.85-66.35z"/>
			<path fill="#FFFFFF" d="M3.85-69.1c-0.17,0-0.34-0.07-0.46-0.19c-0.12-0.13-0.19-0.29-0.19-0.46s0.07-0.34,0.19-0.46
				c0.24-0.24,0.67-0.24,0.92,0c0.12,0.12,0.19,0.29,0.19,0.46s-0.07,0.33-0.19,0.46C4.19-69.17,4.02-69.1,3.85-69.1z"/>
			<path fill="#FFFFFF" d="M66.85-34.35c-0.17,0-0.34-0.07-0.46-0.19c-0.12-0.12-0.19-0.29-0.19-0.46c0-0.17,0.07-0.34,0.19-0.46
				c0.24-0.24,0.68-0.24,0.92,0c0.12,0.12,0.19,0.28,0.19,0.46c0,0.17-0.07,0.34-0.19,0.46C67.19-34.42,67.03-34.35,66.85-34.35z"/>
			<path fill="#FFFFFF" d="M44.35-8.6c-0.17,0-0.34-0.07-0.46-0.19c-0.12-0.13-0.19-0.29-0.19-0.46s0.07-0.34,0.19-0.46
				c0.23-0.24,0.67-0.25,0.92,0C44.93-9.59,45-9.42,45-9.25s-0.07,0.33-0.19,0.46C44.69-8.67,44.52-8.6,44.35-8.6z"/>
			<path fill="#FFFFFF" d="M26.1-1.6c-0.17,0-0.34-0.07-0.46-0.19c-0.12-0.13-0.19-0.29-0.19-0.46s0.07-0.34,0.19-0.46
				c0.25-0.25,0.68-0.24,0.92,0c0.12,0.12,0.19,0.29,0.19,0.46s-0.07,0.33-0.19,0.46C26.44-1.67,26.27-1.6,26.1-1.6z"/>
			<path fill="#FFFFFF" d="M22.35-29.85c-0.17,0-0.34-0.07-0.46-0.19c-0.12-0.12-0.19-0.28-0.19-0.46c0-0.18,0.07-0.34,0.19-0.46
				c0.24-0.24,0.67-0.24,0.92,0C22.93-30.84,23-30.67,23-30.5c0,0.17-0.07,0.34-0.19,0.46C22.69-29.92,22.52-29.85,22.35-29.85z"/>
			<path fill="#FFFFFF" d="M24.35-42.6c-0.17,0-0.34-0.07-0.46-0.19c-0.12-0.13-0.19-0.29-0.19-0.46c0-0.17,0.07-0.34,0.19-0.46
				c0.23-0.24,0.68-0.25,0.92,0c0.12,0.12,0.19,0.28,0.19,0.46c0,0.17-0.07,0.34-0.19,0.46C24.69-42.67,24.52-42.6,24.35-42.6z"/>
			<path fill="#FFFFFF" d="M41.85-37.1c-0.17,0-0.34-0.07-0.46-0.19c-0.12-0.12-0.19-0.29-0.19-0.46c0-0.17,0.07-0.34,0.19-0.46
				c0.24-0.24,0.68-0.24,0.92,0c0.12,0.12,0.19,0.29,0.19,0.46c0,0.17-0.07,0.33-0.19,0.46C42.19-37.17,42.02-37.1,41.85-37.1z"/>
			<path fill="#FFFFFF" d="M67.85-27.85c-0.17,0-0.34-0.07-0.46-0.19c-0.12-0.13-0.19-0.29-0.19-0.46c0-0.17,0.07-0.34,0.19-0.46
				c0.24-0.24,0.68-0.24,0.92,0c0.12,0.12,0.19,0.28,0.19,0.46c0,0.17-0.07,0.34-0.19,0.46C68.19-27.92,68.02-27.85,67.85-27.85z"/>
			<path fill="#FFFFFF" d="M53.6-56.6c-0.17,0-0.34-0.07-0.46-0.19c-0.12-0.12-0.19-0.29-0.19-0.46c0-0.17,0.07-0.34,0.19-0.46
				c0.24-0.24,0.68-0.24,0.92,0c0.12,0.12,0.19,0.29,0.19,0.46c0,0.17-0.07,0.33-0.19,0.46C53.94-56.67,53.77-56.6,53.6-56.6z"/>
			<path fill="#FFFFFF" d="M34.35-55.6c-0.17,0-0.34-0.07-0.46-0.19c-0.12-0.13-0.19-0.29-0.19-0.46c0-0.18,0.07-0.34,0.19-0.46
				c0.24-0.24,0.69-0.24,0.92,0c0.12,0.12,0.19,0.28,0.19,0.46c0,0.17-0.07,0.34-0.19,0.46C34.69-55.67,34.52-55.6,34.35-55.6z"/>
			<path fill="#FFFFFF" d="M13.1-52.35c-0.17,0-0.34-0.07-0.46-0.19c-0.12-0.12-0.19-0.29-0.19-0.46c0-0.17,0.07-0.34,0.19-0.46
				c0.25-0.25,0.68-0.24,0.92,0c0.12,0.12,0.19,0.29,0.19,0.46c0,0.17-0.07,0.34-0.19,0.46C13.44-52.42,13.27-52.35,13.1-52.35z"/>
			<path fill="#FFFFFF" d="M49.85-67.1c-0.17,0-0.34-0.07-0.46-0.19c-0.12-0.12-0.19-0.29-0.19-0.46s0.07-0.34,0.19-0.46
				c0.24-0.24,0.67-0.24,0.92,0c0.12,0.12,0.19,0.29,0.19,0.46s-0.07,0.34-0.19,0.46C50.19-67.17,50.02-67.1,49.85-67.1z"/>
			<path fill="#FFFFFF" d="M59.35-50.85c-0.17,0-0.34-0.07-0.46-0.19c-0.12-0.12-0.19-0.29-0.19-0.46c0-0.17,0.07-0.34,0.19-0.46
				c0.25-0.24,0.67-0.24,0.92,0C59.93-51.84,60-51.68,60-51.5c0,0.17-0.07,0.34-0.19,0.46C59.69-50.92,59.52-50.85,59.35-50.85z"/>
			<path fill="#FFFFFF" d="M67.85-14.35c-0.17,0-0.34-0.07-0.46-0.19c-0.12-0.13-0.19-0.29-0.19-0.46s0.07-0.34,0.19-0.46
				c0.24-0.24,0.68-0.24,0.92,0c0.12,0.12,0.19,0.28,0.19,0.46c0,0.17-0.07,0.34-0.19,0.46C68.19-14.42,68.02-14.35,67.85-14.35z"/>
			<path fill="#FFFFFF" d="M5.6-1.85c-0.18,0-0.34-0.07-0.46-0.19S4.95-2.33,4.95-2.5s0.07-0.34,0.19-0.46
				c0.25-0.25,0.68-0.24,0.92,0C6.18-2.84,6.25-2.67,6.25-2.5S6.18-2.16,6.06-2.04C5.94-1.92,5.78-1.85,5.6-1.85z"/>
			<path fill="#FFFFFF" d="M3.1-58.35c-0.18,0-0.34-0.07-0.46-0.2C2.52-58.66,2.45-58.83,2.45-59c0-0.17,0.07-0.34,0.19-0.46
				c0.24-0.25,0.68-0.24,0.92,0c0.12,0.12,0.19,0.29,0.19,0.46c0,0.17-0.07,0.34-0.19,0.46C3.44-58.42,3.28-58.35,3.1-58.35z"/>
			<path fill="#FFFFFF" d="M16.85-68.35c-0.17,0-0.34-0.07-0.46-0.19c-0.12-0.12-0.19-0.29-0.19-0.46s0.07-0.34,0.19-0.46
				c0.24-0.24,0.68-0.24,0.92,0c0.12,0.12,0.19,0.29,0.19,0.46s-0.07,0.34-0.19,0.46C17.19-68.42,17.02-68.35,16.85-68.35z"/>
			<path fill="#FFFFFF" d="M40.85-67.1c-0.17,0-0.34-0.07-0.46-0.19c-0.12-0.12-0.19-0.29-0.19-0.46s0.07-0.34,0.19-0.46
				c0.25-0.24,0.68-0.24,0.92,0c0.12,0.12,0.19,0.28,0.19,0.46c0,0.17-0.07,0.34-0.19,0.46C41.19-67.17,41.02-67.1,40.85-67.1z"/>
			<path fill="#FFFFFF" d="M3.1-39.6c-0.18,0-0.34-0.07-0.46-0.19c-0.12-0.12-0.19-0.29-0.19-0.46c0-0.17,0.07-0.34,0.19-0.46
				c0.24-0.24,0.69-0.24,0.92,0c0.12,0.12,0.19,0.29,0.19,0.46c0,0.17-0.07,0.34-0.19,0.46C3.44-39.67,3.27-39.6,3.1-39.6z"/>
			<path fill="#FFFFFF" d="M7.85-46.6c-0.18,0-0.34-0.07-0.46-0.19c-0.12-0.12-0.19-0.29-0.19-0.46c0-0.17,0.07-0.34,0.19-0.46
				c0.24-0.24,0.68-0.24,0.92,0c0.12,0.12,0.19,0.28,0.19,0.46c0,0.17-0.07,0.34-0.19,0.46C8.19-46.67,8.03-46.6,7.85-46.6z"/>
			<path fill="#FFFFFF" d="M4.35-24.85c-0.17,0-0.34-0.07-0.46-0.19C3.77-25.17,3.7-25.33,3.7-25.5c0-0.17,0.07-0.34,0.19-0.46
				c0.23-0.24,0.67-0.25,0.92,0C4.93-25.84,5-25.67,5-25.5c0,0.17-0.07,0.33-0.19,0.46C4.69-24.92,4.53-24.85,4.35-24.85z"/>
			<path fill="#FFFFFF" d="M11.35-21.1c-0.17,0-0.34-0.07-0.46-0.19c-0.12-0.13-0.19-0.29-0.19-0.46c0-0.18,0.07-0.34,0.19-0.46
				c0.24-0.24,0.68-0.24,0.92,0c0.12,0.12,0.19,0.29,0.19,0.46c0,0.17-0.07,0.33-0.19,0.46C11.69-21.17,11.52-21.1,11.35-21.1z"/>
			<path fill="#FFFFFF" d="M10.35-11.85c-0.18,0-0.34-0.07-0.46-0.19C9.77-12.16,9.7-12.33,9.7-12.5s0.07-0.34,0.19-0.46
				c0.24-0.24,0.68-0.24,0.92,0C10.93-12.84,11-12.67,11-12.5s-0.07,0.34-0.19,0.46C10.69-11.92,10.53-11.85,10.35-11.85z"/>
			<path fill="#FFFFFF" d="M13.85-5.85c-0.17,0-0.34-0.07-0.46-0.19C13.27-6.17,13.2-6.33,13.2-6.5c0-0.18,0.07-0.34,0.19-0.46
				c0.24-0.24,0.68-0.25,0.92,0c0.12,0.12,0.19,0.29,0.19,0.46c0,0.17-0.07,0.33-0.19,0.46C14.19-5.92,14.02-5.85,13.85-5.85z"/>
			<path fill="#FFFFFF" d="M22.35-18.35c-0.17,0-0.34-0.07-0.46-0.19c-0.12-0.12-0.19-0.28-0.19-0.46c0-0.18,0.07-0.35,0.2-0.46
				c0.22-0.24,0.67-0.24,0.91,0C22.93-19.34,23-19.17,23-19c0,0.17-0.07,0.33-0.19,0.46C22.69-18.42,22.52-18.35,22.35-18.35z"/>
			<path fill="#FFFFFF" d="M31.6-34.1c-0.17,0-0.34-0.07-0.46-0.19c-0.12-0.13-0.19-0.29-0.19-0.46c0-0.17,0.07-0.34,0.19-0.46
				c0.24-0.24,0.68-0.24,0.92,0c0.12,0.12,0.19,0.29,0.19,0.46c0,0.17-0.07,0.33-0.19,0.46C31.94-34.17,31.77-34.1,31.6-34.1z"/>
			<path fill="#FFFFFF" d="M26.35-37.6c-0.17,0-0.34-0.07-0.46-0.19c-0.12-0.12-0.19-0.29-0.19-0.46c0-0.17,0.07-0.34,0.19-0.46
				c0.25-0.25,0.68-0.24,0.92,0c0.12,0.12,0.19,0.29,0.19,0.46c0,0.17-0.07,0.34-0.19,0.46C26.69-37.67,26.52-37.6,26.35-37.6z"/>
			<path fill="#FFFFFF" d="M37.6-43.1c-0.17,0-0.34-0.07-0.46-0.19c-0.12-0.13-0.19-0.29-0.19-0.46c0-0.17,0.07-0.34,0.19-0.46
				c0.24-0.24,0.67-0.24,0.92,0c0.12,0.12,0.19,0.29,0.19,0.46c0,0.17-0.07,0.33-0.19,0.46C37.94-43.17,37.77-43.1,37.6-43.1z"/>
			<path fill="#FFFFFF" d="M62.1-55.1c-0.17,0-0.34-0.07-0.46-0.19c-0.12-0.13-0.19-0.29-0.19-0.46c0-0.17,0.07-0.34,0.19-0.46
				c0.24-0.24,0.68-0.24,0.92,0c0.12,0.12,0.19,0.28,0.19,0.46c0,0.17-0.07,0.34-0.19,0.46C62.44-55.17,62.27-55.1,62.1-55.1z"/>
			<path fill="#FFFFFF" d="M61.6-44.6c-0.18,0-0.34-0.07-0.46-0.19c-0.12-0.13-0.19-0.29-0.19-0.46c0-0.17,0.07-0.34,0.19-0.46
				c0.24-0.24,0.68-0.24,0.92,0c0.12,0.12,0.19,0.29,0.19,0.46c0,0.17-0.07,0.34-0.19,0.46C61.94-44.67,61.78-44.6,61.6-44.6z"/>
			<path fill="#FFFFFF" d="M59.1-14.6c-0.17,0-0.34-0.07-0.46-0.19c-0.12-0.13-0.19-0.29-0.19-0.46s0.07-0.34,0.19-0.46
				c0.24-0.24,0.68-0.24,0.92,0c0.12,0.12,0.19,0.29,0.19,0.46s-0.07,0.33-0.19,0.46C59.44-14.67,59.27-14.6,59.1-14.6z"/>
			<path fill="#FFFFFF" d="M59.6-27.35c-0.18,0-0.34-0.07-0.46-0.19c-0.12-0.12-0.19-0.29-0.19-0.46c0-0.17,0.07-0.34,0.19-0.46
				c0.24-0.24,0.68-0.24,0.92,0c0.12,0.12,0.19,0.29,0.19,0.46c0,0.17-0.07,0.34-0.19,0.46C59.94-27.42,59.78-27.35,59.6-27.35z"/>
			<path fill="#FFFFFF" d="M56.1-36.1c-0.17,0-0.34-0.07-0.46-0.19c-0.12-0.13-0.19-0.29-0.19-0.46c0-0.17,0.07-0.34,0.19-0.46
				c0.24-0.24,0.68-0.24,0.92,0c0.12,0.12,0.19,0.29,0.19,0.46c0,0.17-0.07,0.33-0.19,0.46C56.44-36.17,56.27-36.1,56.1-36.1z"/>
			<path fill="#FFFFFF" d="M69.6-1.1c-0.17,0-0.33-0.07-0.46-0.19c-0.12-0.12-0.19-0.29-0.19-0.46s0.07-0.34,0.19-0.46
				c0.23-0.23,0.68-0.24,0.92,0c0.12,0.12,0.19,0.29,0.19,0.46s-0.07,0.34-0.19,0.46C69.94-1.17,69.77-1.1,69.6-1.1z"/>
			<path fill="#FFFFFF" d="M61.1-5.85c-0.17,0-0.34-0.07-0.46-0.19c-0.12-0.12-0.19-0.29-0.19-0.46c0-0.17,0.07-0.34,0.19-0.46
				c0.24-0.24,0.68-0.25,0.92,0c0.12,0.12,0.19,0.28,0.19,0.46c0,0.17-0.07,0.34-0.19,0.46C61.44-5.92,61.27-5.85,61.1-5.85z"/>
			<path fill="#FFFFFF" d="M44.85-0.35c-0.17,0-0.34-0.07-0.46-0.19C44.27-0.66,44.2-0.83,44.2-1c0-0.17,0.07-0.34,0.19-0.46
				c0.24-0.24,0.69-0.24,0.92,0C45.43-1.34,45.5-1.17,45.5-1c0,0.17-0.07,0.34-0.19,0.46C45.19-0.42,45.02-0.35,44.85-0.35z"/>
			<path fill="#FFFFFF" d="M24.85-70.6c-0.17,0-0.34-0.07-0.46-0.19c-0.12-0.12-0.19-0.29-0.19-0.46c0-0.18,0.07-0.34,0.19-0.46
				c0.23-0.24,0.68-0.25,0.92,0c0.12,0.12,0.19,0.29,0.19,0.46s-0.07,0.33-0.19,0.46C25.19-70.67,25.03-70.6,24.85-70.6z"/>
		</g>
		<g>
			<path fill="#FFFFFF" d="M0.35-48.4c-0.09,0-0.18-0.04-0.25-0.1C0.04-48.57,0-48.66,0-48.75c0-0.09,0.04-0.18,0.1-0.25
				c0.12-0.12,0.36-0.13,0.5,0c0.06,0.07,0.1,0.16,0.1,0.25c0,0.09-0.04,0.18-0.1,0.25C0.53-48.44,0.44-48.4,0.35-48.4z"/>
		</g>
	</g>
</pattern>
<g id="Calque_1">
</g>
<g id="Calque_2">
</g>
<g id="Calque_3">
	<g>
		<g>
			<defs>
				<polygon id="SVGID_00000109029831259663634560000012381363849060362132_" points="77.5,0.47 188.76,0.47 188.76,154.26 
					3.22,154.26 3.22,55.73 				"/>
			</defs>
			<clipPath id="SVGID_00000069359144834957141660000002280331612618192283_">
				<use xlink:href="#SVGID_00000109029831259663634560000012381363849060362132_"  overflow="visible"/>
			</clipPath>
			<g clip-path="url(#SVGID_00000069359144834957141660000002280331612618192283_)">
				<g>
					<polygon opacity="0.3" fill="#FFFFFF" points="55.98,71.72 55.77,71.3 57.66,67.51 58.26,67.23 58.4,66.91 58.78,66.04 
						59.83,65.51 59.97,64.84 42.6,61.47 42.11,61.68 39.59,69.51 39.24,69.72 34.78,67.97 31.55,66.84 27.83,71.79 26.67,72.77 
						22.46,74.67 19.13,77.72 17.06,81.62 14.11,91.58 13.58,95.13 13.83,96.99 15.51,97.58 24.08,100.46 24.67,100.6 26.22,101.2 
						27.62,103.02 33.45,103.09 34.18,103.02 34.11,103.62 41.06,103.62 48.53,86.28 48.88,84.42 49.76,84.28 50.01,83.69 
						49.91,83.02 49.91,82.88 52.29,78.21 53.48,76.39 55.62,73.27 55.45,72.46 					"/>
					
						<pattern  id="SVGID_00000085219366958074875770000001390339124102213765_" xlink:href="#Plage_de_gravier_USGS_22" patternTransform="matrix(1.2381 0 0 1.2381 2011.0828 1093.1246)">
					</pattern>
					<polygon opacity="0.49" fill="url(#SVGID_00000085219366958074875770000001390339124102213765_)" points="55.98,71.72 
						55.77,71.3 57.66,67.51 58.26,67.23 58.4,66.91 58.78,66.04 59.83,65.51 59.97,64.84 42.6,61.47 42.11,61.68 39.59,69.51 
						39.24,69.72 34.78,67.97 31.55,66.84 27.83,71.79 26.67,72.77 22.46,74.67 19.13,77.72 17.06,81.62 14.11,91.58 13.58,95.13 
						13.83,96.99 15.51,97.58 24.08,100.46 24.67,100.6 26.22,101.2 27.62,103.02 33.45,103.09 34.18,103.02 34.11,103.62 
						41.06,103.62 48.53,86.28 48.88,84.42 49.76,84.28 50.01,83.69 49.91,83.02 49.91,82.88 52.29,78.21 53.48,76.39 55.62,73.27 
						55.45,72.46 					"/>
				</g>
				<g>
					<polygon opacity="0.3" fill="#FFFFFF" points="-19.31,118.25 -19.31,128.74 -18.88,128.74 -17.19,128.22 -16.91,128.67 
						-14.98,128.43 -15.05,128.15 -13.51,127.69 -12.84,127.2 -11.82,127.34 -11.72,127.69 -10.49,127.62 -7.61,127.41 
						-2.14,128.74 1.48,130.36 3.33,130.36 7.48,130.57 7.97,131.83 8.56,131.55 8.42,131.17 9.83,129.24 10.42,128.36 10.7,128.67 
						11.83,128.15 11.69,127.83 12.29,127.62 10.95,124.96 10.85,120.18 10.21,115.59 10.42,113.97 9.97,113.97 9.9,114.39 
						9.51,116.39 8.35,116.18 8.42,115.3 7.34,115.44 7.41,114.92 8.07,114.71 8.21,113.38 6.88,113.16 6.49,113.16 4.35,113.24 
						4.43,113.9 -0.28,114.11 -3.16,117.13 -5.09,118.11 -7.51,117.87 -8.77,117.3 -10.49,115.8 -11.37,114.99 					"/>
					
						<pattern  id="SVGID_00000152954287656052457000000010480242449342965904_" xlink:href="#Plage_de_gravier_USGS_22" patternTransform="matrix(1.2381 0 0 1.2381 2011.0828 1093.1246)">
					</pattern>
					<polygon opacity="0.49" fill="url(#SVGID_00000152954287656052457000000010480242449342965904_)" points="-19.31,118.25 
						-19.31,128.74 -18.88,128.74 -17.19,128.22 -16.91,128.67 -14.98,128.43 -15.05,128.15 -13.51,127.69 -12.84,127.2 
						-11.82,127.34 -11.72,127.69 -10.49,127.62 -7.61,127.41 -2.14,128.74 1.48,130.36 3.33,130.36 7.48,130.57 7.97,131.83 
						8.56,131.55 8.42,131.17 9.83,129.24 10.42,128.36 10.7,128.67 11.83,128.15 11.69,127.83 12.29,127.62 10.95,124.96 
						10.85,120.18 10.21,115.59 10.42,113.97 9.97,113.97 9.9,114.39 9.51,116.39 8.35,116.18 8.42,115.3 7.34,115.44 7.41,114.92 
						8.07,114.71 8.21,113.38 6.88,113.16 6.49,113.16 4.35,113.24 4.43,113.9 -0.28,114.11 -3.16,117.13 -5.09,118.11 
						-7.51,117.87 -8.77,117.3 -10.49,115.8 -11.37,114.99 					"/>
				</g>
				<g>
					<polygon opacity="0.3" fill="#FFFFFF" points="195.92,113.02 193.19,112.64 191.86,112.71 184.7,111.59 182.83,108.5 
						181.08,109.76 180.69,110.78 182.69,118.78 183.08,119.73 181.82,120.46 179.54,121.66 176.48,122.6 173.54,122.25 
						171.08,120.99 168.87,122.99 167.85,123.41 166.17,125.48 163.71,126.29 164.83,127.41 167.64,128.67 172.41,133.38 
						173.68,133.83 178.34,134.04 181.82,134.92 183.64,134.78 184.1,134.78 188.38,135.17 190.38,136.04 190.06,136.57 
						191.64,138.19 192,137.8 192.21,138.12 191.86,138.4 193.47,140.12 193.4,140.4 193.33,141.2 193.61,141.13 195.19,140.85 
						196.2,141.45 196.13,141.8 196.06,142.61 198.14,142.4 200.63,142.99 207.65,143.13 209.78,143.8 214.14,144.08 216.35,142.4 
						217.93,141.2 218.07,139.59 220.07,134.43 220.42,132.36 218.95,133.97 217.93,137.73 216.81,139.45 216.35,139.06 
						217.4,137.59 218,132.82 219.54,132.29 219.4,128.88 220.14,125.34 221.09,123.8 222.49,122.74 223.54,121.2 223.89,119.06 
						221.75,115.37 219.23,111.97 216.35,110.64 215.05,109.97 203.89,107.69 203.96,106.64 199.01,106.43 198.8,108.5 
						196.52,108.43 196.27,110.71 					"/>
					
						<pattern  id="SVGID_00000077282458415040303280000006898539832990150589_" xlink:href="#Plage_de_gravier_USGS_22" patternTransform="matrix(1.2381 0 0 1.2381 2011.0828 1093.1246)">
					</pattern>
					<polygon opacity="0.49" fill="url(#SVGID_00000077282458415040303280000006898539832990150589_)" points="195.92,113.02 
						193.19,112.64 191.86,112.71 184.7,111.59 182.83,108.5 181.08,109.76 180.69,110.78 182.69,118.78 183.08,119.73 
						181.82,120.46 179.54,121.66 176.48,122.6 173.54,122.25 171.08,120.99 168.87,122.99 167.85,123.41 166.17,125.48 
						163.71,126.29 164.83,127.41 167.64,128.67 172.41,133.38 173.68,133.83 178.34,134.04 181.82,134.92 183.64,134.78 
						184.1,134.78 188.38,135.17 190.38,136.04 190.06,136.57 191.64,138.19 192,137.8 192.21,138.12 191.86,138.4 193.47,140.12 
						193.4,140.4 193.33,141.2 193.61,141.13 195.19,140.85 196.2,141.45 196.13,141.8 196.06,142.61 198.14,142.4 200.63,142.99 
						207.65,143.13 209.78,143.8 214.14,144.08 216.35,142.4 217.93,141.2 218.07,139.59 220.07,134.43 220.42,132.36 
						218.95,133.97 217.93,137.73 216.81,139.45 216.35,139.06 217.4,137.59 218,132.82 219.54,132.29 219.4,128.88 220.14,125.34 
						221.09,123.8 222.49,122.74 223.54,121.2 223.89,119.06 221.75,115.37 219.23,111.97 216.35,110.64 215.05,109.97 
						203.89,107.69 203.96,106.64 199.01,106.43 198.8,108.5 196.52,108.43 196.27,110.71 					"/>
				</g>
				<g>
					<polygon opacity="0.3" fill="#FFFFFF" points="160.24,81.76 160.1,81.86 157.88,83.16 155.74,83.48 155.01,84.21 153.53,84.56 
						154.8,88.49 156.02,88.28 156.48,89.62 157.29,89.16 159.43,91.23 160.9,90.98 160.9,90.25 161.85,90.04 162.38,90.04 
						164.37,88.28 164.16,87.9 162.55,84.88 160.31,81.86 					"/>
					
						<pattern  id="SVGID_00000124148736593484630600000004063932105877824658_" xlink:href="#Plage_de_gravier_USGS_22" patternTransform="matrix(1.2381 0 0 1.2381 2011.0828 1093.1246)">
					</pattern>
					<polygon opacity="0.49" fill="url(#SVGID_00000124148736593484630600000004063932105877824658_)" points="160.24,81.76 
						160.1,81.86 157.88,83.16 155.74,83.48 155.01,84.21 153.53,84.56 154.8,88.49 156.02,88.28 156.48,89.62 157.29,89.16 
						159.43,91.23 160.9,90.98 160.9,90.25 161.85,90.04 162.38,90.04 164.37,88.28 164.16,87.9 162.55,84.88 160.31,81.86 					"/>
				</g>
				<g>
					<polygon opacity="0.3" fill="#FFFFFF" points="163.29,26.31 162.83,26.76 162.17,27.72 173.33,34.87 184.1,27.05 183.36,26.03 
						176.06,21.82 174.59,23.57 172.59,22.84 170.87,25.5 169.85,25.5 167.64,24.03 167.11,24.7 165.71,23.64 					"/>
					
						<pattern  id="SVGID_00000069386892915470307770000009000234629703998354_" xlink:href="#Plage_de_gravier_USGS_22" patternTransform="matrix(1.2381 0 0 1.2381 2011.0828 1093.1246)">
					</pattern>
					<polygon opacity="0.49" fill="url(#SVGID_00000069386892915470307770000009000234629703998354_)" points="163.29,26.31 
						162.83,26.76 162.17,27.72 173.33,34.87 184.1,27.05 183.36,26.03 176.06,21.82 174.59,23.57 172.59,22.84 170.87,25.5 
						169.85,25.5 167.64,24.03 167.11,24.7 165.71,23.64 					"/>
				</g>
				<g>
					<g>
						<path fill="#FFFFFF" d="M226.35,178.3l-0.18-3.72l-1.02-6.04l-1.4-4.66l-0.46-2.56l-0.42-0.98l-2.98-2.84l-3.54-3.44
							l-0.14-0.14l-2.28-1.47l-0.53-0.67l0.14-0.6l-0.56,0.11l-0.53-0.53l-0.67-1.13l0.53-0.07l-0.98-0.53l-0.21-0.67l-0.67-0.35
							l-1.69-2.21l-5.26-0.98h-1.09l-0.91,0.11h-0.88l-3.9-0.91l-4.52,0.98l-6.18-0.46l-0.46,0.07l-1.62-0.14l-0.53-0.07v-0.46
							l-0.35,0.32l-2.6-0.25l-3.69,0.81l-3.65-0.42l-2.49-1.72l-6-2.81l-3.68-2.49l-4.28-4.28l-12.7-15.37l-0.81-0.88l-1.93-2.95
							l-0.49-0.6l-6.67-7.75l0.25-0.21l-0.39-0.07l-2.95-2.81l-1.05-3.93l-9.79-5.83l-6-2.53l-8.78-2.35l-11.3-5.48L79.1,82.74
							l-2.07,0.35l-4.53,2.14l-5.51,6.95l-9.23,10.1l-11.62,18.25l-0.21,0.39l-3.83,5.09l-2.31,1.93l-4.21,4.7l-1.89,1.19
							l-5.19,2.21h-3.3l-3.86-2.42l-4.14-3.41l-1.02-1.72l-1.4-5.37l-2.21-4.35l-0.07-4l2.63-10.56l-0.21-2.81l-1.09-4.42
							l-0.25-1.86l0.53-3.55l2.95-9.96l2.07-3.9l3.33-3.05l4.21-1.89l1.16-0.99l3.72-4.95l4.88-6.49l3.76-7.3l1.61-2.39l2.42-2.63
							l8.49-6.35l1.65-1.86l10.77-6.7l2.74-1.72l2-1.26l2.28-1.61l5.54-4.14l2.88-2.28l19.79-8.49l2.49-1.68l2.21-2.81l1.58-2.88
							l0.88-1.72l4.49-6.63l1.72-4.28l0.67-4.81l-1.27-5.47l-0.39-0.81l0.53,0.21h0.28l-0.74-1.09l0.53,0.07l-0.74-0.35l-1.26-2.17
							l-3.09-2.88l-11.02-4.88l-13.05-3.62l-4.21-0.63l-5.16,0.07l-8.07,1.02l-1.61,0.46l-3.97,1.09l-0.53,0.32l-9.54,3.61
							l-6.7,3.76l-2.95,2.07l-1.93,2.07l-5.9,4.14l-3.12,2.49l-3.62,3.79l-6.95,5.09l-9.37,9.09h-0.35l-5.68,5.83l-4.6,3.76
							l-3.09,1.61l-3.93,3.2l-3.41,1.96l-3.54,2.03l-3.16,2.42l-2.47,0.87v3.72l6.68-2.38l2.49-2.32l0.18-0.11l8.71-5.47l4.63-4.35
							l6.95-7.47l0.32-0.28l3.09-3.02l7.23-7.16l7.54-5.33l1.75-1.47l3.48-4.07l3.12-2.14l3.75-1.89l2-2.07l1.83-1.86l0.6-0.46
							l2.95-1.33l1.05-0.81l-0.07-0.28l2.63-1.61l7.54-2.98l1.68-0.81l4.67-1.23l0.88-0.25l3.79-0.53h7.3l1.93,0.39l0.49,0.14
							l2.07,0.74l7.33,2.53l10.56,2.35l5.02,2.28l1.96,1.54l1.06,1.44l1.02,3.09l0.74,5.76l-1.82,6.95l-1.41,2.88l-3.02,4.56
							l-1.33,1.65l-1.86,2.21l-3.16,2.14l-2.39,3.4l-8.78,4.28l-1.33,0.67L81.1,19.5l-0.67,0.32l-1.72,1.09l0.32,0.11l-5.02,3.3
							l-2.39,1.79l-6.49,5.02l-1.02,0.81l-8.35,3.62l-8.35,4.95l-1.33,1.12l-2.95,4.21l-5.47,6.7l-3.69,5.3l-7.9,9.41l-5.4,5.62
							l0.25,0.14l-0.11,0.46l-1.47,1.96l0.39-0.74l-0.28-0.21l-2.17,2.88l-1.97,3.62l-2.6,8.35l-1.12,5.48l-0.07,2l1.19,5.76v1.89
							l-2.07,10.88l0.67,4.88l0.6,1.16l1.47,3.86l0.39,2.81l1.75,4.28l2.21,2.95l2.07,1.93l4.67,2.21l1.96,0.49l2.24-0.14l0.81,0.14
							l3.16-1.02l3.68-1.79l3.41-2.21l3.41-3.54l1.19-4.95l7.23-10.91l2.67-4.74l3.23-4.7l7.68-8.39l2.81-3.09l1.62-3.83l4.21-4.42
							l3.55-1.93l2.39-0.28l13.93-0.18l7.23,3.12l2.74,1.68l7.26,2.46l5.09,4.77l11.65,6.14l0.98,0.14l4.28,4.67l7.16,7.9l0.74,1.05
							l3.54,5.09l9.23,11.06l0.35,0.39l6,6.14l3.96,2.81l4.07,2.03l2.35,0.99l1.65,1.82l0.14,2l-0.88,4.74l-0.14,2.42v2.88
							l0.56,1.58l0.46,1.09l0.67,1.26l3.23,4.56l1.4,1.79l0.32,0.21l1.48,1.79l0.21,0.35l2.46,3.4l0.81,2.74v2.88l-0.38,1.13h1.69
							l0.45-3.13l-1.69-6.42l-2.28-2.74l0.14,0.39l0.21,0.42l-0.28-0.14l-2.14-2.53l0.28-0.04l0.21,0.14l-5.58-6.88l-0.77-2.56
							l-0.21-0.77l0.14-3.09l1.05-5.09l-0.39-3.26l4.67,0.21l0.28-0.07l3.19-0.6l3.55,0.91l1.26-0.07h3.47l6.18,0.35l1.65-0.46
							l5.75,0.25l4.56,0.35l3.34,3.47l2,2.95l3.37,2.53l1.58,1.19l1.16,1.2l3.05,3.16l0.42,2l0.18,0.95l1.3,4.28l0.39,1.68
							l0.81,4.14l0.53,5.09l0.6,1.19l0.4,0.99h1.37L226.35,178.3z M97.24,11.47l3.26-2.67l2.28-2.49l0.07-0.07l4.42-6.42l2.6-6.81
							l0.21-4.14l-0.63-4.35l-0.98-3.09l-0.14-0.25l-0.74-0.88l-1.41-1.68l-3.89-2.39l-3.65-1.27l-10.1-2.28l-4.95-1.82l-5.09-1.65
							l-6.21-0.35l1.33-0.39h6.88l8.11,1.72l10.95,3.54l6.84,2.81l1.72,1.16l1.96,2.21l2.53,6.07l0.74,4l-0.21,2.35l-1.05,3.09
							l-6.7,10.81l-2.14,3.48l-2.67,2.21l-3.54,1.61l-0.74-0.46L97.24,11.47z M122.9,98.85l-0.53-0.11l-2.6-1.16l-4.88-3.12
							l-3.09-3.55l5.16,1.48l4.35,2l1.4,1.86l0.25,1.47L122.9,98.85z M128.79,101.13l-4.42-2.07l-0.6-1.2l-0.14-1.75l5.76,3.02
							l0.21,1.54l0.07,1.05L128.79,101.13z"/>
					</g>
				</g>
				<g>
					<g>
						<g>
							<g>
								<g>
									<path fill="none" stroke="#FFFFFF" stroke-width="1.0523" d="M12.55,95.84c-0.02,0.21-0.04,0.41-0.05,0.62
										c0.19,0.08,0.37,0.17,0.56,0.25"/>
									<path fill="none" stroke="#FFFFFF" stroke-width="1.0523" stroke-dasharray="1.2242,1.2242" d="M14.19,97.17
										c3.83,1.5,8.42,2.64,11.99,4.2c0.28,0.31,0.59,0.67,0.89,1.05"/>
									<path fill="none" stroke="#FFFFFF" stroke-width="1.0523" d="M27.43,102.92c0.12,0.18,0.23,0.35,0.33,0.53
										c0-0.04,0.32-0.18,0.58-0.21"/>
									<path fill="none" stroke="#FFFFFF" stroke-width="1.0523" stroke-dasharray="1.2707,1.2707" d="M28.38,104.09
										c0.39,0.44,2.31,0.9,2.6,1.11c1.76,0.57,3.56,1.76,5.44,1.79c1.37-0.07-0.58,2.68-0.42,3.65c0.35,2.43-0.11,5.01,1.58,6.98
										c1.18,2.61,2.3,3.9,5.3,4c2.44,1.01,3.86,0.32,6.39-0.25c0.41-0.21,0.82-0.05,1.19,0.23"/>
									<path fill="none" stroke="#FFFFFF" stroke-width="1.0523" d="M50.94,122.03c0.16,0.16,0.31,0.31,0.44,0.43
										c0.26-0.16,0.45-0.23,0.58-0.23"/>
									<path fill="none" stroke="#FFFFFF" stroke-width="1.0523" stroke-dasharray="1.368,1.368" d="M51.77,123.39
										c-0.22,0.31-0.52,0.58-0.82,0.68c-1.47,0.77-1.25,2.34-1.09,3.79c-0.4,2.64,1.34,2.31,3.22,2.15"/>
									<path fill="none" stroke="#FFFFFF" stroke-width="1.0523" d="M53.78,129.97c0.21-0.01,0.42-0.01,0.62,0
										c0.15-0.15,0.29-0.29,0.44-0.44"/>
									<path fill="none" stroke="#FFFFFF" stroke-width="1.0523" stroke-dasharray="1.4048,1.4048" d="M55.83,128.55
										c1.16-1.16,2.3-2.36,3.23-3.71"/>
									<path fill="none" stroke="#FFFFFF" stroke-width="1.0523" d="M59.45,124.26c0.11-0.17,0.22-0.35,0.32-0.53
										c0.17,0.11,0.35,0.22,0.52,0.33"/>
									<path fill="none" stroke="#FFFFFF" stroke-width="1.0523" stroke-dasharray="1.3055,1.3055" d="M61.41,124.72
										c1.8,1.05,3.64,1.99,5.41,3.04c0.36,0.13,0.6,0.32,0.79,0.56"/>
									<path fill="none" stroke="#FFFFFF" stroke-width="1.0523" d="M67.92,128.89c0.08,0.19,0.14,0.39,0.2,0.59
										c0.21-0.04,0.42-0.04,0.61,0"/>
									<path fill="none" stroke="#FFFFFF" stroke-width="1.0523" stroke-dasharray="1.2211,1.2211" d="M69.83,129.98
										c0.31,0.2,0.61,0.42,0.92,0.59c3.35,1.48,7.15,2.45,10.6,3.69c7.77,2.65,15.59,5.23,23.34,7.89
										c0.86,0.03,1.03,0.39,0.96,0.86"/>
									<path fill="none" stroke="#FFFFFF" stroke-width="1.0523" d="M105.48,143.6c-0.07,0.19-0.14,0.39-0.21,0.58
										c0.2,0.05,0.4,0.09,0.6,0.13"/>
									<path fill="none" stroke="#FFFFFF" stroke-width="1.0523" stroke-dasharray="1.1842,1.1842" d="M107.05,144.5
										c1.37,0.19,2.77,0.27,4.13,0.38c4.72,0.3,6.31,2.01,10.35-1.65c1.53-2.11,2.66,0.46,4.09,1.91"/>
									<path fill="none" stroke="#FFFFFF" stroke-width="1.0523" d="M126.06,145.55c0.17,0.13,0.35,0.24,0.53,0.33
										c0.18-0.1,0.37-0.18,0.57-0.23"/>
									<path fill="none" stroke="#FFFFFF" stroke-width="1.0523" stroke-dasharray="1.2008,1.2008" d="M128.33,145.48
										c1.51-0.03,3.23,0.4,4.71-0.31c4.68-2.58,10-4.64,14.39-7.26c0.48-0.35,0.5-0.97,1.09-1.2c0.26-0.07,0.51-0.27,0.75-0.48"
										/>
									<path fill="none" stroke="#FFFFFF" stroke-width="1.0523" d="M149.73,135.83c0.19-0.14,0.38-0.22,0.58-0.18
										c0.14-0.16,0.3-0.3,0.47-0.41"/>
									<path fill="none" stroke="#FFFFFF" stroke-width="1.0523" stroke-dasharray="1.2517,1.2517" d="M151.91,134.76
										c0.41-0.14,0.83-0.29,1.24-0.54c2.16-1.09,3.76-2.51,5.79-3.79c2.47-0.45,4.77-1.87,7.09-2.6
										c3.42,1.45,4.66,6.21,8.74,6.28c2.19-0.24,4.28,0.23,6.35,0.84c2.69,0.1,5.59-0.55,8.14,0.67
										c1.53,0.68,0.99,1.61,1.85,2.09"/>
									<path fill="none" stroke="#FFFFFF" stroke-width="1.0523" stroke-dasharray="1.2362,1.2362" d="M196.29,109.92
										c-0.08,2.07-0.13,3.88-3.03,2.75c-2.23,0.14-5.64-0.61-8.28-0.98c-1.74-1.44-1.24-5-3.93-2.04
										c-0.79,1.51-0.31,2.86,0.6,4.28c0.53,1.43,0.48,3.07,0.9,4.54"/>
									<path fill="none" stroke="#FFFFFF" stroke-width="1.0523" d="M182.75,119.06c0.08,0.19,0.16,0.38,0.26,0.56
										c-0.18,0.1-0.36,0.2-0.54,0.31"/>
									<path fill="none" stroke="#FFFFFF" stroke-width="1.0523" stroke-dasharray="1.2357,1.2357" d="M181.4,120.53
										c-2.39,1.32-5.01,2.47-7.72,1.51c-0.44-0.39,0.89-1.04,0.98-1.89c0.73-1.45,0.58-4.65,1.47-6.11"/>
									<path fill="none" stroke="#FFFFFF" stroke-width="1.0523" d="M176.52,113.57c0.16-0.13,0.34-0.22,0.55-0.26
										c0.03-0.16,0.01-0.37-0.04-0.62"/>
									<path fill="none" stroke="#FFFFFF" stroke-width="1.0523" stroke-dasharray="0.8508,0.8508" d="M176.83,111.86
										c-0.12-0.44-0.24-0.9-0.25-1.26"/>
									<path fill="none" stroke="#FFFFFF" stroke-width="1.0523" d="M176.65,110.19c0.08-0.18,0.23-0.29,0.5-0.29
										c-0.33,0.06-0.52,0-0.59-0.1"/>
									<path fill="none" stroke="#FFFFFF" stroke-width="1.0523" d="M176.68,109.37c0.13-0.13,0.34-0.22,0.57-0.21
										c0.01-0.21,0.03-0.41,0.04-0.62"/>
									<path fill="none" stroke="#FFFFFF" stroke-width="1.0523" stroke-dasharray="1.2311,1.2311" d="M177.4,107.32
										c0.14-1.46,0.34-2.92,0.52-4.54c-0.34-4.56-1.19-9.24-1.44-13.72c-1.72-8.95,1.67-21.03-5.4-27.76
										c-3.15-0.85-6.62-2.41-7.62-5.83c-0.75-5.13-0.81-10.73-2.12-15.73"/>
									<path fill="none" stroke="#FFFFFF" stroke-width="1.0523" d="M161.18,39.15c-0.06-0.2-0.12-0.4-0.18-0.59
										c-0.19-0.08-0.37-0.17-0.55-0.28"/>
									<path fill="none" stroke="#FFFFFF" stroke-width="1.0523" stroke-dasharray="1.2303,1.2303" d="M159.44,37.58
										c-1.71-1.37-3.11-3.32-5.24-3.44c-1.96-0.38-3.89-2.09-5.9-1.48c-2.72,0.72-5.84,0.21-8.53,0.88
										c-14.11-0.25-28.6,0.7-42.99,1.16c-1.52-0.34-2.27,1.18-3.51,1.68c-3.52,1.41-7.61,3.48-10.42,5.75
										c-3.01,2.12-7.94,5-9.41,7.65c-1.2,1.23-1.62-1.14-2.63-0.46c-3.02,2.16-5.94,4.45-8.14,7.51
										c-1.29,0.58-1.25,1.82-1.42,3.08"/>
									<path fill="none" stroke="#FFFFFF" stroke-width="1.0523" d="M61.16,60.53c-0.04,0.2-0.1,0.4-0.17,0.6
										c0.31-0.14,0.44-0.04,0.46,0.18"/>
									<path fill="none" stroke="#FFFFFF" stroke-width="1.0523" d="M60.86,62.91c-0.17,0.26-0.33,0.44-0.43,0.42
										c0.03,0.24-0.03,0.42-0.19,0.56"/>
									<path fill="none" stroke="#FFFFFF" stroke-width="1.0523" stroke-dasharray="1.2225,1.2225" d="M59.1,64.25
										c-3.72,0.28-14.07-2.9-16.53-2.88c-0.93-0.31-0.7,1.45-1.16,1.96c-0.58,1.98-1.57,4.26-1.96,6.14
										c-0.33,0.4-2.18-0.54-3.09-0.91c-6.85-3.46-4.83-0.94-9.44,3.51c-3.34,2.17-8.01,2.76-9.65,6.95
										c-2.08,4.93-4.02,10.79-4.65,16.2"/>
								</g>
							</g>
						</g>
					</g>
				</g>
				<g>
					<polygon fill="none" points="129.39,99.13 123.63,96.11 123.77,97.86 124.37,99.06 128.79,101.13 129.67,101.72 129.6,100.67 
											"/>
					<polygon fill="none" points="121.32,94.39 116.97,92.39 111.81,90.91 114.9,94.46 119.77,97.58 122.37,98.74 122.9,98.85 
						122.97,97.72 122.72,96.25 					"/>
				</g>
			</g>
		</g>
		<g opacity="0.6">
			<g>
				<path fill="#FFFFFF" d="M129.63,38.7L129.63,38.7c-1.96,0-3.44-1.47-3.44-3.44l0,0c0-1.97,1.48-3.44,3.44-3.44l0,0
					c1.96,0,3.44,1.47,3.44,3.44l0,0C133.08,37.22,131.6,38.7,129.63,38.7"/>
				<path fill="#FFFFFF" d="M95.74,84.04L95.74,84.04c-1.97,0-3.44-1.47-3.44-3.44l0,0c0-1.97,1.47-3.44,3.44-3.44l0,0
					c1.93,0,3.44,1.47,3.44,3.44l0,0C99.17,82.56,97.66,84.04,95.74,84.04"/>
				<path fill="#FFFFFF" d="M88.89,82.04L88.89,82.04c-1.97,0-3.44-1.47-3.44-3.41l0,0c0-1.96,1.47-3.44,3.44-3.44l0,0
					c1.96,0,3.44,1.47,3.44,3.44l0,0C92.33,80.56,90.86,82.04,88.89,82.04"/>
				<path fill="#FFFFFF" d="M89.59,86.49L89.59,86.49c-1.97,0-3.44-1.48-3.44-3.44l0,0c0-1.96,1.47-3.44,3.44-3.44l0,0
					c1.96,0,3.44,1.47,3.44,3.44l0,0C93.03,85.02,91.56,86.49,89.59,86.49"/>
				<path fill="#FFFFFF" d="M121.56,96.04L121.56,96.04c-1.97,0-3.44-1.51-3.44-3.44l0,0c0-1.97,1.47-3.44,3.44-3.44l0,0
					c1.96,0,3.44,1.47,3.44,3.44l0,0C125,94.53,123.53,96.04,121.56,96.04"/>
				<path fill="#FFFFFF" d="M144.69,118.53L144.69,118.53c-1.96,0-3.44-1.48-3.44-3.44l0,0c0-1.96,1.47-3.44,3.44-3.44l0,0
					c1.97,0,3.44,1.47,3.44,3.44l0,0C148.13,117.06,146.66,118.53,144.69,118.53"/>
				<path fill="#FFFFFF" d="M89.14,92.22L89.14,92.22c-1.97,0-3.44-1.48-3.44-3.41l0,0c0-1.96,1.47-3.44,3.44-3.44l0,0
					c1.96,0,3.44,1.48,3.44,3.44l0,0C92.58,90.74,91.1,92.22,89.14,92.22"/>
				<path fill="#FFFFFF" d="M67.1,88.04L67.1,88.04c-1.96,0-3.44-1.47-3.44-3.44l0,0c0-1.96,1.47-3.44,3.44-3.44l0,0
					c1.97,0,3.44,1.47,3.44,3.44l0,0C70.54,86.57,69.07,88.04,67.1,88.04"/>
				<path fill="#FFFFFF" d="M72.71,94.78L72.71,94.78c-1.93,0-3.44-1.47-3.44-3.41l0,0c0-1.96,1.51-3.44,3.44-3.44l0,0
					c1.96,0,3.44,1.47,3.44,3.44l0,0C76.15,93.3,74.68,94.78,72.71,94.78"/>
				<path fill="#FFFFFF" d="M34.22,108.25L34.22,108.25c-1.96,0-3.44-1.47-3.44-3.44l0,0c0-1.96,1.47-3.44,3.44-3.44l0,0
					c1.96,0,3.44,1.47,3.44,3.44l0,0C37.66,106.78,36.18,108.25,34.22,108.25"/>
				<path fill="#FFFFFF" d="M76.68,97.48L76.68,97.48c-1.97,0-3.44-1.47-3.44-3.44l0,0c0-1.96,1.47-3.44,3.44-3.44l0,0
					c1.96,0,3.44,1.48,3.44,3.44l0,0C80.12,96,78.64,97.48,76.68,97.48"/>
				<path fill="#FFFFFF" d="M37.55,115.76L37.55,115.76c-1.97,0-3.44-1.47-3.44-3.44l0,0c0-1.97,1.47-3.44,3.44-3.44l0,0
					c1.96,0,3.44,1.47,3.44,3.44l0,0C40.99,114.29,39.52,115.76,37.55,115.76"/>
				<path fill="#FFFFFF" d="M68.19,128.01L68.19,128.01c-1.96,0-3.44-1.47-3.44-3.44l0,0c0-1.97,1.47-3.44,3.44-3.44l0,0
					c1.97,0,3.44,1.47,3.44,3.44l0,0C71.63,126.53,70.15,128.01,68.19,128.01"/>
			</g>
		</g>
		<polygon fill="#FFFFFF" points="130.42,21.32 133.72,31.49 144.42,31.49 135.76,37.78 139.07,47.95 130.42,41.67 121.76,47.95 
			125.07,37.78 116.42,31.49 127.11,31.49 		"/>
		<g>
			<text transform="matrix(1 0 0 1 114.4332 15.474)" fill="#FFFFFF" font-family="'Arial-BoldMT'" font-size="15px">Invalides</text>
		</g>
		<g>
			
				<text transform="matrix(0.9 0 0 1 80.3111 126.1996)" fill="#FFFFFF" font-family="'ArialMT-LightItalic'" font-size="18.7116px">PARIS</text>
		</g>
	</g>
</g>
</svg>
